<?xml version="1.0" encoding="UTF-8"?>
<!DOCTYPE svg  PUBLIC '-//W3C//DTD SVG 20010904//EN'  'http://www.w3.org/TR/2001/REC-SVG-20010904/DTD/svg10.dtd'>
<svg width="660px" height="660px" version="1.0" viewBox="0 0 6600 6600" xmlns="http://www.w3.org/2000/svg">
<g fill="#110c14">
<path d="m0 3300v-3300h3300 3300v3300 3300h-3300-3300v-3300z"/>
</g>
<g fill="#cfd0d3">
<path d="m0 3300v-3300h3300 3300v3300 3300h-3300-3300v-3300zm3910 2711c421-72 805-230 1149-474 233-166 493-428 643-649 131-191 150-445 49-649-38-76-612-890-675-957-69-73-156-128-254-159l-83-26 48-27c70-41 127-94 177-163 60-84 500-1039 522-1133 24-104 15-266-21-364-55-152-142-251-360-415-588-441-1316-622-2033-505-693 113-1309 491-1739 1067-608 815-729 1906-316 2843 297 671 841 1197 1513 1460 200 78 435 137 657 165 164 21 561 13 723-14z"/>
<path d="m3236 5449c-309-40-638-164-897-338-737-494-1109-1385-949-2269 145-798 702-1451 1451-1702 367-123 791-137 1172-41 258 66 523 192 735 350 126 95 152 122 162 166 9 38 1 58-202 497-159 345-216 459-231 464-16 5-29-3-55-32-204-232-363-336-611-401-122-32-321-36-446-9-219 47-413 160-573 332-379 405-422 1056-101 1513 434 618 1285 632 1740 28 53-71 159-265 159-293 0-6 9-19 20-29 20-18 21-18 45 1 14 10 146 192 295 403 265 377 270 386 270 434 0 45-5 56-64 131-332 425-850 721-1384 791-123 16-421 18-536 4z"/>
<path d="m3456 4129c-217-29-439-168-561-351-108-160-151-316-142-507 7-140 24-208 83-326 102-207 276-355 499-425 99-31 303-39 409-16 152 34 278 101 388 204 119 113 187 223 234 379 23 75 27 108 27 218 1 152-14 224-75 355-150 325-505 518-862 469zm121-395c96-20 163-49 238-107 138-105 215-265 215-447 0-160-52-284-165-396-254-252-674-208-866 90-193 297-68 698 260 832 109 44 202 52 318 28z"/>
<path d="m3267 3190c-77-23-127-93-127-179 0-132 119-219 240-177 42 14 47 14 87-5 38-18 44-19 76-5 65 26 78 97 28 147-16 16-37 29-45 29-10 0-16 9-16 23-1 32-33 98-61 124-50 46-119 62-182 43z"/>
</g>
<g fill="#fefefe">
<path d="m0 3300v-3300h3300 3300v3300 3300h-3300-3300v-3300zm3785 2729c628-63 1263-388 1703-872 254-279 326-418 327-632 0-116-21-208-67-300-40-77-633-909-685-960-66-65-159-120-246-146l-68-21 60-40c74-48 159-140 199-216 68-129 452-975 474-1043 32-106 30-253-5-364-49-151-118-240-302-388-390-314-855-510-1375-579-157-21-508-15-679 11-484 74-915 262-1301 567-116 93-350 329-440 444-601 777-768 1773-451 2692 141 408 364 762 670 1068 147 147 249 230 421 345 522 349 1127 498 1765 434z"/>
<path d="m3287 5450c-626-66-1192-412-1553-952-197-294-327-659-365-1027-16-155-6-442 20-596 123-717 563-1315 1198-1626 304-149 639-219 988-206 181 7 298 24 464 68 273 72 549 213 778 398 129 103 137 61-114 604-238 516-226 500-296 408-90-118-259-251-405-318-165-77-393-110-573-83-420 61-768 369-903 798-43 137-59 259-53 407 10 248 70 438 202 635 154 232 382 398 643 467 85 23 117 26 252 26s167-3 252-26c318-85 580-305 729-612 27-55 49-105 49-112 0-14 32-26 51-18 8 3 139 184 292 401 326 464 313 430 220 553-80 107-279 303-401 394-277 206-587 339-922 397-144 24-414 34-553 20z"/>
<path d="m3363 3999c-154-15-339-94-429-184-61-60-125-184-155-300-30-113-30-298 0-410 134-503 690-758 1155-529 146 71 209 140 274 297 64 154 79 363 37 522-23 85-97 229-155 302-170 213-453 330-727 302zm242-264c192-49 352-202 411-394 71-228-26-492-229-628-105-70-196-98-322-97-158 1-286 55-396 165-175 175-217 432-106 658 65 134 216 255 367 295 73 19 201 20 275 1z"/>
<path d="m3241 3172c-114-57-134-211-39-299 47-44 141-57 199-28 28 15 31 15 56-5 57-44 143-5 143 66 0 33-31 74-63 82-28 7-33 13-37 48-13 92-83 154-175 154-28 0-65-8-84-18z"/>
</g>
</svg>
