<?xml version="1.0" encoding="UTF-8"?>
<svg version="1.1" viewBox="0 0 50 50" xmlns="http://www.w3.org/2000/svg" xmlns:cc="http://creativecommons.org/ns#" xmlns:dc="http://purl.org/dc/elements/1.1/" xmlns:rdf="http://www.w3.org/1999/02/22-rdf-syntax-ns#">
<metadata>
<rdf:RDF>
<cc:Work rdf:about="">
<dc:format>image/svg+xml</dc:format>
<dc:type rdf:resource="http://purl.org/dc/dcmitype/StillImage"/>
</cc:Work>
</rdf:RDF>
</metadata>
<rect width="50" height="50" fill-opacity="0"/>
<path d="m24.894 0.72446c-13.432 0-24.362 10.928-24.362 24.361 1.516e-5 13.432 10.93 24.362 24.362 24.362 13.432 0 24.362-10.93 24.362-24.362-1.4e-5 -13.432-10.93-24.361-24.362-24.361zm0 3.6997c11.433 0 20.661 9.2281 20.661 20.661-1.4e-5 11.433-9.2281 20.663-20.661 20.663-11.433 1.02e-4 -20.661-9.2301-20.661-20.663 1.3e-5 -11.433 9.2281-20.661 20.661-20.661z" color="#000000" color-rendering="auto" fill="#ec2828" image-rendering="auto" shape-rendering="auto" solid-color="#000000" stroke-width="1.3295" style="isolation:auto;mix-blend-mode:normal;text-decoration-color:#000000;text-decoration-line:none;text-decoration-style:solid;text-indent:0;text-transform:none;white-space:normal"/>
<path d="m34.903 13.429c-0.52375-0.52375-1.3665-0.52375-1.8902 0l-19.775 19.775c-0.52375 0.52375-0.52375 1.3665 1e-6 1.8902l1.6483 1.6483c0.52375 0.52375 1.3665 0.52375 1.8902 1e-6l19.775-19.775c0.52375-0.52375 0.52375-1.3665-2e-6 -1.8902z" fill="#ec2828" stroke-width="1.3295"/>
<path d="m13.237 15.077c-0.52375 0.52375-0.52375 1.3665 0 1.8902l19.775 19.775c0.52375 0.52375 1.3665 0.52375 1.8902-3e-6l1.6483-1.6483c0.52375-0.52375 0.52375-1.3665 1e-6 -1.8902l-19.775-19.775c-0.52375-0.52375-1.3665-0.52375-1.8902 1e-6z" fill="#ec2828" stroke-width="1.3295"/>
</svg>
