<?xml version="1.0" encoding="UTF-8" standalone="no"?>
<svg
   xmlns:dc="http://purl.org/dc/elements/1.1/"
   xmlns:cc="http://creativecommons.org/ns#"
   xmlns:rdf="http://www.w3.org/1999/02/22-rdf-syntax-ns#"
   xmlns:svg="http://www.w3.org/2000/svg"
   xmlns="http://www.w3.org/2000/svg"
   xmlns:sodipodi="http://sodipodi.sourceforge.net/DTD/sodipodi-0.dtd"
   xmlns:inkscape="http://www.inkscape.org/namespaces/inkscape"
   version="1.1"
   viewBox="0 0 50 50"
   id="svg10"
   sodipodi:docname="false-2061132.svg"
   inkscape:version="0.92.4 (5da689c313, 2019-01-14)">
  <metadata
     id="metadata16">
    <rdf:RDF>
      <cc:Work
         rdf:about="">
        <dc:format>image/svg+xml</dc:format>
        <dc:type
           rdf:resource="http://purl.org/dc/dcmitype/StillImage" />
      </cc:Work>
    </rdf:RDF>
  </metadata>
  <defs
     id="defs14" />
  <sodipodi:namedview
     pagecolor="#ffffff"
     bordercolor="#666666"
     borderopacity="1"
     objecttolerance="10"
     gridtolerance="10"
     guidetolerance="10"
     inkscape:pageopacity="0"
     inkscape:pageshadow="2"
     inkscape:window-width="1117"
     inkscape:window-height="721"
     id="namedview12"
     showgrid="false"
     inkscape:zoom="4.72"
     inkscape:cx="25"
     inkscape:cy="25"
     inkscape:window-x="556"
     inkscape:window-y="155"
     inkscape:window-maximized="0"
     inkscape:current-layer="svg10" />
  <rect
     width="50"
     height="50"
     fill-opacity="0"
     id="rect2" />
  <path
     d="M 24.894068,0.7244585 C 11.461921,0.7244585 0.5319322,11.65232 0.5319322,25.085264 0.53194736,38.517412 11.461788,49.4474 24.894068,49.4474 38.326347,49.4474 49.256203,38.517544 49.256203,25.085264 49.256189,11.653118 38.326347,0.7244585 24.894068,0.7244585 Z m 0,3.699657 c 11.432946,0 20.66075,9.2280695 20.66075,20.6607505 -1.4e-5,11.432947 -9.22807,20.663409 -20.66075,20.663409 C 13.461121,45.748377 4.2333175,36.518211 4.2333175,25.084866 4.2333305,13.651919 13.461387,4.4241155 24.894068,4.4241155 Z"
     style="color:#000000;text-indent:0;text-decoration:none;text-decoration-line:none;text-decoration-style:solid;text-decoration-color:#000000;text-transform:none;white-space:normal;isolation:auto;mix-blend-mode:normal;solid-color:#000000;fill:#ec2828;stroke-width:1.32952058;color-rendering:auto;image-rendering:auto;shape-rendering:auto"
     id="path4"
     inkscape:connector-curvature="0" />
  <path
     d="m 34.902699,13.428693 c -0.523752,-0.523752 -1.366481,-0.523752 -1.89018,0 l -6.992081,6.992081 -5.790993,5.790994 -6.992082,6.992081 c -0.523752,0.523752 -0.523752,1.366482 10e-7,1.890179 l 1.64834,1.64834 c 0.523752,0.523751 1.366481,0.523751 1.89018,10e-7 l 6.992081,-6.992081 5.790993,-5.790993 6.992082,-6.992082 c 0.523752,-0.523751 0.523752,-1.366481 -2e-6,-1.89018 z"
     id="path6"
     inkscape:connector-curvature="0"
     style="fill:#ec2828;stroke-width:1.32952058" />
  <path
     d="m 13.236832,15.077299 c -0.523752,0.523751 -0.523752,1.36648 0,1.890179 l 6.992081,6.992081 5.790993,5.790993 6.992081,6.992083 c 0.523752,0.523751 1.366482,0.523751 1.890181,-3e-6 l 1.648339,-1.648339 c 0.523751,-0.523752 0.523751,-1.366481 10e-7,-1.890179 l -6.992081,-6.992082 -5.790994,-5.790993 -6.992082,-6.992082 c -0.523751,-0.523751 -1.366481,-0.523751 -1.890179,10e-7 z"
     id="path8"
     inkscape:connector-curvature="0"
     style="fill:#ec2828;stroke-width:1.32952058" />
</svg>
