<?xml version="1.0" encoding="UTF-8"?>
<svg version="1.1" viewBox="0 0 31 31" xmlns="http://www.w3.org/2000/svg">
<defs>
<filter id="a" x="-.36" y="-.36" width="1.72" height="1.72" color-interpolation-filters="sRGB">
<feGaussianBlur stdDeviation="2.46429"/>
</filter>
<linearGradient id="b" x1="131.75" x2="111.82" y1="738.97" y2="716.11" gradientUnits="userSpaceOnUse">
<stop stop-color="#2300cb" offset="0"/>
<stop stop-color="#082fe5" offset="1"/>
</linearGradient>
</defs>
<g transform="matrix(.90129 0 0 .90129 -60.324 -646.32)">
<path transform="translate(-37.5 7.1429)" d="m137.5 727.18a15.893 15.893 0 1 1-31.786 0 15.893 15.893 0 1 1 31.786 0z" fill="url(#b)" fill-rule="evenodd" stroke="#00017d" stroke-width="1.6643"/>
<path transform="matrix(1.0862 0 0 1.0126 -42.463 -.567)" d="m122.14 721.65a8.2143 8.2143 0 1 1-16.429 0 8.2143 8.2143 0 1 1 16.429 0z" fill="#3a64ff" fill-opacity=".75" fill-rule="evenodd" filter="url(#a)"/>
<text transform="matrix(1.1095 0 0 1.1095 66.931 717.11)" x="14.84322" y="17.470339" fill="#000000" font-family="Sans" font-size="40px" letter-spacing="0px" word-spacing="0px" line-height="125%" xml:space="preserve"><tspan x="14.84322" y="17.470339"/></text>
<g transform="translate(-41.537 -2.3319)">
<g transform="translate(40.954 1.6032)" fill="#00017d">
<path d="m81.624 725.18c-3e-6 -0.85523 0.30627-1.5891 0.91882-2.2017 0.61254-0.62408 1.3464-0.93613 2.2017-0.93616 0.86681 3e-5 1.6007 0.3063 2.2017 0.91883 0.60098 0.61257 0.90148 1.3522 0.90149 2.219-9e-6 0.86684-0.30628 1.6065-0.91882 2.219-0.601 0.61257-1.3291 0.91884-2.1844 0.91882-0.88994 2e-5 -1.6354-0.31203-2.2364-0.93616-0.58944-0.63564-0.88415-1.3696-0.88415-2.2017m5.8423 6.0157v10.627c-9e-6 0.87838 0.13868 1.4852 0.41607 1.8203 0.27737 0.32362 0.92459 0.48542 1.9417 0.48542v1.8376h-10.61v-1.8376h0.39874c0.98239 0 1.6007-0.17336 1.855-0.52009 0.26582-0.34672 0.39873-0.94193 0.39874-1.7856v-5.1662c-4e-6 -0.85524-0.13292-1.4505-0.39874-1.7856-0.26583-0.34671-0.88415-0.52007-1.855-0.52008h-0.39874v-1.8376l8.2521-1.3176" fill="#00017d"/>
</g>
<g transform="translate(41.391 2.0404)" fill="#fff">
<path d="m81.624 725.18c-3e-6 -0.85523 0.30627-1.5891 0.91882-2.2017 0.61254-0.62408 1.3464-0.93613 2.2017-0.93616 0.86681 3e-5 1.6007 0.3063 2.2017 0.91883 0.60098 0.61257 0.90148 1.3522 0.90149 2.219-9e-6 0.86684-0.30628 1.6065-0.91882 2.219-0.601 0.61257-1.3291 0.91884-2.1844 0.91882-0.88994 2e-5 -1.6354-0.31203-2.2364-0.93616-0.58944-0.63564-0.88415-1.3696-0.88415-2.2017m5.8423 6.0157v10.627c-9e-6 0.87838 0.13868 1.4852 0.41607 1.8203 0.27737 0.32362 0.92459 0.48542 1.9417 0.48542v1.8376h-10.61v-1.8376h0.39874c0.98239 0 1.6007-0.17336 1.855-0.52009 0.26582-0.34672 0.39873-0.94193 0.39874-1.7856v-5.1662c-4e-6 -0.85524-0.13292-1.4505-0.39874-1.7856-0.26583-0.34671-0.88415-0.52007-1.855-0.52008h-0.39874v-1.8376l8.2521-1.3176" fill="#fff"/>
</g>
</g>
</g>
</svg>
