<?xml version="1.0" encoding="UTF-8" standalone="no"?>
<!-- Created with Inkscape (http://www.inkscape.org/) -->

<svg
   xmlns:dc="http://purl.org/dc/elements/1.1/"
   xmlns:cc="http://creativecommons.org/ns#"
   xmlns:rdf="http://www.w3.org/1999/02/22-rdf-syntax-ns#"
   xmlns:svg="http://www.w3.org/2000/svg"
   xmlns="http://www.w3.org/2000/svg"
   xmlns:sodipodi="http://sodipodi.sourceforge.net/DTD/sodipodi-0.dtd"
   xmlns:inkscape="http://www.inkscape.org/namespaces/inkscape"
   width="307.61145mm"
   height="247.88899mm"
   viewBox="0 0 307.61145 247.88899"
   version="1.1"
   id="svg1070"
   inkscape:version="0.92.4 (5da689c313, 2019-01-14)"
   sodipodi:docname="2Sides.svg">
  <defs
     id="defs1064">
    <linearGradient
       id="c0yjGprCnv9Gl20e9Vf6Cb"
       x1="32"
       x2="32"
       y1="6"
       y2="56"
       gradientUnits="userSpaceOnUse"
       spreadMethod="reflect"
       gradientTransform="matrix(0.30973675,0,0,0.30973675,-250.23473,-113.67598)">
      <stop
         offset="0"
         stop-color="#42d778"
         id="stop13" />
      <stop
         offset=".996"
         stop-color="#34b171"
         id="stop15" />
      <stop
         offset="1"
         stop-color="#34b171"
         id="stop17" />
    </linearGradient>
  </defs>
  <sodipodi:namedview
     id="base"
     pagecolor="#ffffff"
     bordercolor="#666666"
     borderopacity="1.0"
     inkscape:pageopacity="0.0"
     inkscape:pageshadow="2"
     inkscape:zoom="0.35"
     inkscape:cx="485.55233"
     inkscape:cy="446.1542"
     inkscape:document-units="mm"
     inkscape:current-layer="layer1"
     showgrid="false"
     inkscape:window-width="1920"
     inkscape:window-height="1017"
     inkscape:window-x="-8"
     inkscape:window-y="-8"
     inkscape:window-maximized="1" />
  <metadata
     id="metadata1067">
    <rdf:RDF>
      <cc:Work
         rdf:about="">
        <dc:format>image/svg+xml</dc:format>
        <dc:type
           rdf:resource="http://purl.org/dc/dcmitype/StillImage" />
        <dc:title></dc:title>
      </cc:Work>
    </rdf:RDF>
  </metadata>
  <g
     inkscape:label="Calque 1"
     inkscape:groupmode="layer"
     id="layer1"
     transform="translate(145.47798,-18.989307)">
    <g
       id="g1030"
       transform="translate(-147.48481,39.946769)">
      <g
         id="g1005">
        <g
           id="g1212"
           transform="matrix(0.02645815,9.7204336e-5,9.7204336e-5,-0.02645815,332.48093,215.82727)">
          <g
             id="g1332"
             transform="rotate(0.12725906,-9412.1275,2247.619)">
            <rect
               style="fill:none;fill-opacity:1;stroke:#000000;stroke-width:150;stroke-miterlimit:4;stroke-dasharray:none;stroke-opacity:1"
               id="rect912-7-7-2"
               width="6883.9199"
               height="2216.228"
               x="-351.16147"
               y="7574.2769"
               transform="rotate(90.166985)" />
            <rect
               style="fill:#fa2c2e;fill-opacity:1;stroke:none;stroke-width:2.05238509;stroke-miterlimit:4;stroke-dasharray:none;stroke-opacity:1"
               id="rect844-6-1-7-8"
               width="2333.8459"
               height="2216.228"
               x="4198.9126"
               y="7574.2769"
               transform="rotate(90.166985)" />
            <rect
               style="fill:#4cae44;fill-opacity:1;stroke:none;stroke-width:2.10346603;stroke-miterlimit:4;stroke-dasharray:none;stroke-opacity:1"
               id="rect844-2-9-1-3"
               width="2451.4639"
               height="2216.228"
               x="1865.0664"
               y="7574.2769"
               transform="rotate(90.166985)" />
            <rect
               style="fill:#561b6c;fill-opacity:1;stroke:none;stroke-width:2.05238509;stroke-miterlimit:4;stroke-dasharray:none;stroke-opacity:1"
               id="rect844-67-8-5"
               width="2333.8459"
               height="2216.228"
               x="-351.16147"
               y="7574.2769"
               transform="rotate(90.166985)" />
            <rect
               style="fill:#808080;fill-opacity:1;stroke:none;stroke-width:2;stroke-miterlimit:4;stroke-dasharray:none;stroke-opacity:1"
               id="rect844-2-4-2-4-6"
               width="117.61794"
               height="2217.6179"
               x="1865.0664"
               y="7574.2769"
               transform="rotate(90.166985)" />
            <rect
               style="fill:#808080;fill-opacity:1;stroke:none;stroke-width:2;stroke-miterlimit:4;stroke-dasharray:none;stroke-opacity:1"
               id="rect844-2-4-8-8-5-8"
               width="117.61794"
               height="2217.6179"
               x="4198.9126"
               y="7574.2769"
               transform="rotate(90.166985)" />
          </g>
        </g>
        <g
           id="g5365-0-3"
           transform="matrix(-3.2111099e-4,0.02645638,0.02645638,3.2111099e-4,-74.105521,38.316611)">
          <g
             id="g1185"
             transform="rotate(0.63630329,3560.9648,4106.9478)">
            <rect
               style="fill:none;fill-opacity:1;stroke:#000000;stroke-width:150;stroke-miterlimit:4;stroke-dasharray:none;stroke-opacity:1"
               id="rect912-7-1-3-2"
               width="6883.9194"
               height="2216.228"
               x="119.00508"
               y="2998.8337" />
            <rect
               style="fill:#ffeb47;fill-opacity:1;stroke:none;stroke-width:2.05238509;stroke-miterlimit:4;stroke-dasharray:none;stroke-opacity:1"
               id="rect844-6-1-3-3-0"
               width="2333.8459"
               height="2216.228"
               x="4669.0796"
               y="2998.8337" />
            <rect
               style="fill:#4cae44;fill-opacity:1;stroke:none;stroke-width:2.10346603;stroke-miterlimit:4;stroke-dasharray:none;stroke-opacity:1"
               id="rect844-2-9-3-0-1"
               width="2451.4639"
               height="2216.228"
               x="2335.2332"
               y="2998.8337" />
            <rect
               style="fill:#fa2c2e;fill-opacity:1;stroke:none;stroke-width:2.05238509;stroke-miterlimit:4;stroke-dasharray:none;stroke-opacity:1"
               id="rect844-67-9-9-5"
               width="2333.8459"
               height="2216.228"
               x="119.00508"
               y="2998.8337" />
            <rect
               style="fill:#808080;fill-opacity:1;stroke:none;stroke-width:2;stroke-miterlimit:4;stroke-dasharray:none;stroke-opacity:1"
               id="rect844-2-4-2-5-4-7"
               width="117.61794"
               height="2217.6179"
               x="2335.2332"
               y="2998.8337" />
            <rect
               style="fill:#808080;fill-opacity:1;stroke:none;stroke-width:2;stroke-miterlimit:4;stroke-dasharray:none;stroke-opacity:1"
               id="rect844-2-4-8-8-6-9-6"
               width="117.61794"
               height="2217.6179"
               x="4669.0796"
               y="2998.8337" />
          </g>
        </g>
      </g>
      <g
         style="stroke-width:0.27559057"
         transform="matrix(0.96005952,0,0,0.96005952,-61.547044,155.71043)"
         id="g874">
        <path
           inkscape:connector-curvature="0"
           style="fill:#d40000;fill-opacity:1;stroke-width:0.27559057"
           d="m 160.05085,43.474576 c 0,13.805 -11.195,25 -25,25 -13.805,0 -25,-11.195 -25,-25 0,-13.805 11.195,-25 25,-25 13.805,0 25,11.195 25,25 z"
           id="path26" />
        <g
           style="stroke-width:0.27559057"
           id="g867"
           transform="translate(7.8644095,1.084746)">
          <path
             id="path28"
             d="m 138.45444,31.12183 v 0 c 0.976,0.976 0.976,2.559 0,3.535 l -19.001,19.001 c -0.976,0.976 -2.559,0.976 -3.535,0 v 0 c -0.976,-0.976 -0.976,-2.559 0,-3.535 l 19.001,-19.001 c 0.976,-0.976 2.559,-0.976 3.535,0 z"
             inkscape:connector-curvature="0"
             style="fill:#ffffff;stroke-width:0.27559057" />
          <g
             style="stroke-width:0.27559057"
             transform="translate(95.186441,11.38983)"
             id="g856">
            <path
               style="fill:#ffffff;stroke-width:0.27559057"
               inkscape:connector-curvature="0"
               d="m 43.268,42.268 v 0 c -0.976,0.976 -2.559,0.976 -3.535,0 L 20.732,23.267 c -0.976,-0.976 -0.976,-2.559 0,-3.535 v 0 c 0.976,-0.976 2.559,-0.976 3.535,0 l 19.001,19.001 c 0.976,0.976 0.976,2.559 0,3.535 z"
               id="path30" />
          </g>
        </g>
      </g>
    </g>
    <g
       transform="translate(207.07918,-114.29272)"
       id="g1779">
      <g
         id="g1759">
        <rect
           style="fill:none;fill-opacity:1;stroke:#000000;stroke-width:3.96874928;stroke-miterlimit:4;stroke-dasharray:none;stroke-opacity:1"
           id="rect912-3-8"
           width="182.13702"
           height="58.637691"
           x="135.58835"
           y="-105.16731"
           transform="matrix(-0.00299898,0.9999955,0.9999955,0.00299898,0,0)" />
        <rect
           style="fill:#3ac2ee;fill-opacity:1;stroke:none;stroke-width:0.05430268;stroke-miterlimit:4;stroke-dasharray:none;stroke-opacity:1"
           id="rect844-6-3-4"
           width="61.749664"
           height="58.637691"
           x="135.58835"
           y="-105.16731"
           transform="matrix(-0.00299898,0.9999955,0.9999955,0.00299898,0,0)" />
        <rect
           style="fill:#fa2c2e;fill-opacity:1;stroke:none;stroke-width:0.0556542;stroke-miterlimit:4;stroke-dasharray:none;stroke-opacity:1"
           id="rect844-2-46-8"
           width="64.861641"
           height="58.637691"
           x="194.226"
           y="-105.16731"
           transform="matrix(-0.00299898,0.9999955,0.9999955,0.00299898,0,0)" />
        <rect
           style="fill:#ffeb47;fill-opacity:1;stroke:none;stroke-width:0.05430268;stroke-miterlimit:4;stroke-dasharray:none;stroke-opacity:1"
           id="rect844-7-6"
           width="61.749664"
           height="58.637691"
           x="255.97566"
           y="-105.13053"
           transform="matrix(-0.00299898,0.9999955,0.9999955,0.00299898,0,0)" />
        <rect
           style="fill:#808080;fill-opacity:1;stroke:none;stroke-width:0.05291666;stroke-miterlimit:4;stroke-dasharray:none;stroke-opacity:1"
           id="rect844-2-4-7-1"
           width="3.1119742"
           height="58.674465"
           x="194.226"
           y="-105.16731"
           transform="matrix(-0.00299898,0.9999955,0.9999955,0.00299898,0,0)" />
        <rect
           style="fill:#808080;fill-opacity:1;stroke:none;stroke-width:0.05291666;stroke-miterlimit:4;stroke-dasharray:none;stroke-opacity:1"
           id="rect844-2-4-8-1-6"
           width="3.1119742"
           height="58.674465"
           x="255.97566"
           y="-105.16731"
           transform="matrix(-0.00299898,0.9999955,0.9999955,0.00299898,0,0)" />
      </g>
      <g
         id="g1751">
        <rect
           style="fill:none;fill-opacity:1;stroke:#000000;stroke-width:3.96874857;stroke-miterlimit:4;stroke-dasharray:none;stroke-opacity:1"
           id="rect912-7-1-3-2-3"
           width="182.13698"
           height="58.63768"
           x="197.14156"
           y="-174.77646"
           transform="matrix(-0.00103119,0.99999947,0.99999947,0.00103119,0,0)" />
        <rect
           style="fill:#561b6c;fill-opacity:1;stroke:none;stroke-width:0.05430267;stroke-miterlimit:4;stroke-dasharray:none;stroke-opacity:1"
           id="rect844-6-1-3-3-0-8"
           width="61.749653"
           height="58.63768"
           x="317.5289"
           y="-174.77646"
           transform="matrix(-0.00103119,0.99999947,0.99999947,0.00103119,0,0)" />
        <rect
           style="fill:#ffeb47;fill-opacity:1;stroke:none;stroke-width:0.05565419;stroke-miterlimit:4;stroke-dasharray:none;stroke-opacity:1"
           id="rect844-2-9-3-0-1-8"
           width="64.861626"
           height="58.63768"
           x="255.77924"
           y="-174.77646"
           transform="matrix(-0.00103119,0.99999947,0.99999947,0.00103119,0,0)" />
        <rect
           style="fill:#fa2c2e;fill-opacity:1;stroke:none;stroke-width:0.05430267;stroke-miterlimit:4;stroke-dasharray:none;stroke-opacity:1"
           id="rect844-67-9-9-5-1"
           width="61.749653"
           height="58.63768"
           x="197.14156"
           y="-174.77646"
           transform="matrix(-0.00103119,0.99999947,0.99999947,0.00103119,0,0)" />
        <rect
           style="fill:#808080;fill-opacity:1;stroke:none;stroke-width:0.05291665;stroke-miterlimit:4;stroke-dasharray:none;stroke-opacity:1"
           id="rect844-2-4-2-5-4-7-5"
           width="3.1119738"
           height="58.674454"
           x="255.77924"
           y="-174.77646"
           transform="matrix(-0.00103119,0.99999947,0.99999947,0.00103119,0,0)" />
        <rect
           style="fill:#808080;fill-opacity:1;stroke:none;stroke-width:0.05291665;stroke-miterlimit:4;stroke-dasharray:none;stroke-opacity:1"
           id="rect844-2-4-8-8-6-9-6-0"
           width="3.1119738"
           height="58.674454"
           x="317.5289"
           y="-174.77646"
           transform="matrix(-0.00103119,0.99999947,0.99999947,0.00103119,0,0)" />
      </g>
      <g
         style="stroke-width:0.30973676"
         transform="matrix(0.85422,0,0,0.85422,-138.8016,230.38637)"
         id="g846">
        <g
           style="stroke-width:0.30973676"
           id="g841">
          <path
             inkscape:connector-curvature="0"
             style="fill:url(#c0yjGprCnv9Gl20e9Vf6Cb);stroke-width:0.30973676"
             id="path20"
             d="M 57,31 C 57,44.805 45.805,56 32,56 18.195,56 7,44.805 7,31 7,17.195 18.195,6 32,6 45.805,6 57,17.195 57,31 Z" />
        </g>
        <path
           style="fill:#ffffff;stroke-width:0.30973676"
           inkscape:connector-curvature="0"
           d="M 42.695,21.733 27.5,36.946 22.265,31.726 c -0.977,-0.974 -2.558,-0.973 -3.533,0.003 v 0 c -0.977,0.977 -0.976,2.562 0.002,3.538 l 7.002,6.985 c 0.977,0.975 2.559,0.973 3.534,-0.003 L 46.232,25.267 c 0.975,-0.977 0.975,-2.559 -10e-4,-3.535 v 0 c -0.977,-0.976 -2.56,-0.976 -3.536,0.001 z"
           id="path22" />
      </g>
    </g>
  </g>
</svg>
