<?xml version="1.0" encoding="UTF-8" standalone="no"?>
<svg
   xmlns:dc="http://purl.org/dc/elements/1.1/"
   xmlns:cc="http://creativecommons.org/ns#"
   xmlns:rdf="http://www.w3.org/1999/02/22-rdf-syntax-ns#"
   xmlns:svg="http://www.w3.org/2000/svg"
   xmlns="http://www.w3.org/2000/svg"
   xmlns:sodipodi="http://sodipodi.sourceforge.net/DTD/sodipodi-0.dtd"
   xmlns:inkscape="http://www.inkscape.org/namespaces/inkscape"
   enable-background="new 0 0 511.999 511.999"
   version="1.1"
   viewBox="0 0 504.53589 493.29515"
   xml:space="preserve"
   id="svg8"
   sodipodi:docname="Chat.svg"
   width="504.53589"
   height="493.29514"
   inkscape:version="0.92.4 (5da689c313, 2019-01-14)"><metadata
   id="metadata14"><rdf:RDF><cc:Work
       rdf:about=""><dc:format>image/svg+xml</dc:format><dc:type
         rdf:resource="http://purl.org/dc/dcmitype/StillImage" /><dc:title /></cc:Work></rdf:RDF></metadata><defs
   id="defs12" /><sodipodi:namedview
   pagecolor="#ffffff"
   bordercolor="#666666"
   borderopacity="1"
   objecttolerance="10"
   gridtolerance="10"
   guidetolerance="10"
   inkscape:pageopacity="0"
   inkscape:pageshadow="2"
   inkscape:window-width="1920"
   inkscape:window-height="1017"
   id="namedview10"
   showgrid="false"
   inkscape:zoom="1.2139473"
   inkscape:cx="155.28674"
   inkscape:cy="302.78446"
   inkscape:window-x="-8"
   inkscape:window-y="-8"
   inkscape:window-maximized="1"
   inkscape:current-layer="svg8" />

	
		<path
   d="m 312.2951,0.02056621 c -91.73024,0.382986 -183.48407,-0.17572 -275.212895,0.287589 C 15.276669,2.2120382 -2.1982093,26.390872 0.22496613,50.365849 c 0.2564309,67.724771 -0.5490726,135.483801 0.4197385,203.187281 2.63082427,22.97673 23.16158337,40.6871 43.47851637,39.0226 4.949083,1.00803 13.01123,-3.51351 15.902344,3.16782 1.203409,18.67206 -1.275724,37.79273 1.103515,56.37808 3.372786,8.67205 14.159764,9.01582 19.552765,2.64926 23.165265,-17.2278 46.331285,-34.45435 69.496065,-51.68294 0.71773,29.21309 -1.23542,58.61083 1.02149,87.66631 4.28449,22.73522 25.61639,38.47751 46.04882,35.50402 47.54623,0 95.09245,0 142.63868,0 30.38049,22.02173 59.9276,45.69729 90.83007,66.68768 8.4312,2.36218 15.4564,-7.71526 13.50586,-16.52977 0,-16.73674 0,-33.47347 0,-50.2102 16.13161,0.74185 34.77261,1.6371 47.08203,-12.27911 10.98449,-11.18733 14.36515,-28.61973 12.91237,-44.587 -0.25836,-65.50136 0.56327,-131.04027 -0.42994,-196.51829 -2.73633,-23.82768 -24.48379,-41.70316 -45.58789,-38.82218 -34.65495,0 -69.3099,0 -103.96485,0 -0.51558,-32.40317 0.98677,-64.911399 -0.78906,-97.246043 C 349.89666,15.660648 331.49048,-0.66059479 312.2951,0.02056621 Z M 212.87127,24.644179 c 34.76683,0.154061 69.5756,-0.205668 104.31641,0.479313 11.04842,2.261208 17.00467,15.978741 15.03251,27.601888 -0.24944,66.11361 0.51898,132.27504 -0.39189,198.35927 -2.0196,12.33274 -14.32275,18.96441 -24.74218,16.77994 -49.47874,0.28349 -99.0381,-0.59769 -148.4668,0.4492 -10.78114,5.06421 -19.22947,14.63052 -29.43769,20.89808 -15.61647,11.61318 -31.232983,23.22626 -46.849425,34.83945 -1.097004,-16.52149 1.619752,-33.43972 -1.341797,-49.71562 -5.144758,-9.59389 -16.351493,-5.8458 -24.544922,-6.72128 -10.486318,0.81041 -24.668802,2.42411 -31.183593,-9.39237 -6.110325,-12.44232 -1.746316,-27.2681 -3.017261,-40.64569 0.163753,-58.64389 -0.477051,-117.33316 0.355151,-175.949254 1.888155,-11.886292 13.337519,-18.916348 23.599608,-16.938951 55.557289,0.07837 111.114579,-0.0458 166.671879,-0.04398 z M 425.50018,158.49883 c 14.20904,0.31804 28.53222,-0.51094 42.67382,0.72986 10.51928,2.88143 15.90106,16.0957 14.04424,27.35352 -0.24944,66.11364 0.51897,132.27506 -0.39189,198.35929 -2.00432,12.29726 -14.16698,18.77539 -24.52539,16.89796 -10.31443,0.88246 -21.52253,-2.83612 -31.00391,2.54908 -6.99783,7.34422 -3.13984,19.25491 -4.07617,28.68032 0,8.29649 0,16.59296 0,24.88944 -25.37917,-18.26201 -49.93598,-38.17556 -75.74414,-55.54147 -14.28123,-1.99779 -28.88593,0.24706 -43.34764,-0.72424 -38.61729,-0.1905 -77.27851,0.55541 -115.86916,-0.41523 -11.05288,-2.25656 -17.00529,-15.97821 -15.03906,-27.60189 0,-27.09062 0,-54.18122 0,-81.27185 49.05415,-0.31299 98.13958,0.61443 147.17383,-0.47933 21.30903,-3.08922 37.39398,-27.1209 34.82617,-50.86814 0,-27.50531 0,-55.0106 0,-82.51592 23.75984,0.0796 47.51945,-0.0291 71.2793,-0.0415 z"
   id="path2"
   inkscape:connector-curvature="0"
   style="stroke-width:1" />
	


	
		<path
   d="M 189.16313,210.25222 H 69.163128 c -8.284,0 -15,4.47733 -15,10 0,5.52267 6.716,10 15,10 H 189.16313 c 8.284,0 15,-4.47733 15,-10 0,-5.52267 -6.716,-10 -15,-10 z"
   id="path4"
   style="fill:#000080;stroke-width:0.81649661"
   inkscape:connector-curvature="0" />
	


	
		<path
   d="M 281.16313,158.25222 H 69.163128 c -8.284,0 -15,4.47733 -15,10 0,5.52267 6.716,10 15,10 H 281.16313 c 8.284,0 15,-4.47733 15,-10 0,-5.52267 -6.716,-10 -15,-10 z"
   id="path6"
   style="fill:#000080;stroke-width:0.81649661"
   inkscape:connector-curvature="0" />
	
















<path
   d="M 216.16313,106.48311 H 72.163128 c -9.9408,0 -18,4.47733 -18,9.99999 0,5.52267 8.0592,10 18,10 H 216.16313 c 9.9408,0 18,-4.47733 18,-10 0,-5.52266 -8.0592,-9.99999 -18,-9.99999 z"
   id="path4-9"
   style="fill:#000080;stroke-width:0.89442724"
   inkscape:connector-curvature="0" /><path
   d="M 281.16313,54.120615 H 69.163128 c -8.284,0 -15,4.47733 -15,10 0,5.52267 6.716,10 15,10 H 281.16313 c 8.284,0 15,-4.47733 15,-10 0,-5.52267 -6.716,-10 -15,-10 z"
   id="path6-0"
   style="fill:#000080;stroke-width:0.81649661"
   inkscape:connector-curvature="0" /></svg>