<?xml version="1.0" encoding="UTF-8"?>
<svg enable-background="new 0 0 511.999 511.999" version="1.1" viewBox="0 0 504.54 493.3" xml:space="preserve" xmlns="http://www.w3.org/2000/svg" xmlns:cc="http://creativecommons.org/ns#" xmlns:dc="http://purl.org/dc/elements/1.1/" xmlns:rdf="http://www.w3.org/1999/02/22-rdf-syntax-ns#"><metadata><rdf:RDF><cc:Work rdf:about=""><dc:format>image/svg+xml</dc:format><dc:type rdf:resource="http://purl.org/dc/dcmitype/StillImage"/><dc:title/></cc:Work></rdf:RDF></metadata>

	
		<path d="m312.3 0.020566c-91.73 0.38299-183.48-0.17572-275.21 0.28759-21.806 1.9039-39.28 26.083-36.857 50.058 0.25643 67.725-0.54907 135.48 0.41974 203.19 2.6308 22.977 23.162 40.687 43.479 39.023 4.9491 1.008 13.011-3.5135 15.902 3.1678 1.2034 18.672-1.2757 37.793 1.1035 56.378 3.3728 8.672 14.16 9.0158 19.553 2.6493 23.165-17.228 46.331-34.454 69.496-51.683 0.71773 29.213-1.2354 58.611 1.0215 87.666 4.2845 22.735 25.616 38.478 46.049 35.504h142.64c30.38 22.022 59.928 45.697 90.83 66.688 8.4312 2.3622 15.456-7.7153 13.506-16.53v-50.21c16.132 0.74185 34.773 1.6371 47.082-12.279 10.984-11.187 14.365-28.62 12.912-44.587-0.25836-65.501 0.56327-131.04-0.42994-196.52-2.7363-23.828-24.484-41.703-45.588-38.822h-103.96c-0.51558-32.403 0.98677-64.911-0.78906-97.246-3.5488-21.093-21.955-37.414-41.15-36.733zm-99.424 24.624c34.767 0.15406 69.576-0.20567 104.32 0.47931 11.048 2.2612 17.005 15.979 15.033 27.602-0.24944 66.114 0.51898 132.28-0.39189 198.36-2.0196 12.333-14.323 18.964-24.742 16.78-49.479 0.28349-99.038-0.59769-148.47 0.4492-10.781 5.0642-19.229 14.631-29.438 20.898-15.616 11.613-31.233 23.226-46.849 34.839-1.097-16.521 1.6198-33.44-1.3418-49.716-5.1448-9.5939-16.351-5.8458-24.545-6.7213-10.486 0.81041-24.669 2.4241-31.184-9.3924-6.1103-12.442-1.7463-27.268-3.0173-40.646 0.16375-58.644-0.47705-117.33 0.35515-175.95 1.8882-11.886 13.338-18.916 23.6-16.939 55.557 0.07837 111.11-0.0458 166.67-0.04398zm212.63 133.85c14.209 0.31804 28.532-0.51094 42.674 0.72986 10.519 2.8814 15.901 16.096 14.044 27.354-0.24944 66.114 0.51897 132.28-0.39189 198.36-2.0043 12.297-14.167 18.775-24.525 16.898-10.314 0.88246-21.523-2.8361-31.004 2.5491-6.9978 7.3442-3.1398 19.255-4.0762 28.68v24.889c-25.379-18.262-49.936-38.176-75.744-55.541-14.281-1.9978-28.886 0.24706-43.348-0.72424-38.617-0.1905-77.279 0.55541-115.87-0.41523-11.053-2.2566-17.005-15.978-15.039-27.602v-81.272c49.054-0.31299 98.14 0.61443 147.17-0.47933 21.309-3.0892 37.394-27.121 34.826-50.868v-82.516c23.76 0.0796 47.519-0.0291 71.279-0.0415z"/>
	


	
		<path d="m189.16 210.25h-120c-8.284 0-15 4.4773-15 10s6.716 10 15 10h120c8.284 0 15-4.4773 15-10s-6.716-10-15-10z" fill="#000080" stroke-width=".8165"/>
	


	
		<path d="m281.16 158.25h-212c-8.284 0-15 4.4773-15 10s6.716 10 15 10h212c8.284 0 15-4.4773 15-10s-6.716-10-15-10z" fill="#000080" stroke-width=".8165"/>
	
















<path d="m216.16 106.48h-144c-9.9408 0-18 4.4773-18 10 0 5.5227 8.0592 10 18 10h144c9.9408 0 18-4.4773 18-10 0-5.5227-8.0592-10-18-10z" fill="#000080" stroke-width=".89443"/><path d="m281.16 54.121h-212c-8.284 0-15 4.4773-15 10s6.716 10 15 10h212c8.284 0 15-4.4773 15-10s-6.716-10-15-10z" fill="#000080" stroke-width=".8165"/></svg>
