<?xml version="1.0" encoding="UTF-8"?>
<svg enable-background="new 0 0 511.999 511.999" version="1.1" viewBox="0 0 512 512" xml:space="preserve" xmlns="http://www.w3.org/2000/svg">

	
		<path d="m467 150.99h-105v-75c0-24.813-20.187-45-45-45h-272c-24.813 0-45 20.187-45 45v180c0 24.813 20.187 45 45 45h15v45c0 12.013 13.418 19.081 23.32 12.481l66.68-44.453v61.972c0 24.813 20.187 45 45 45h147.46l86.221 57.481c9.916 6.611 23.32-0.465 23.32-12.481v-45h15c24.813 0 45-20.187 45-45v-180c1e-3 -24.813-20.186-45-44.999-45zm-310.36 122.55c-0.014 0.01-0.029 0.019-0.043 0.028l-66.595 44.397v-31.972c0-8.284-6.716-15-15-15h-30c-8.271 0-15-6.729-15-15v-180c0-8.271 6.729-15 15-15h272c8.271 0 15 6.729 15 15v180c0 8.271-6.729 15-15 15h-152c-2.903 0-5.903 0.898-8.362 2.547zm325.36 102.45c0 8.271-6.729 15-15 15h-30c-8.284 0-15 6.716-15 15v31.972l-66.68-44.453c-2.464-1.643-5.359-2.519-8.32-2.519h-152c-8.271 0-15-6.729-15-15v-75h137c24.813 0 45-20.187 45-45v-75h105c8.271 0 15 6.729 15 15v180z"/>
	


	
		<path d="m195 180.99h-120c-8.284 0-15 6.716-15 15s6.716 15 15 15h120c8.284 0 15-6.716 15-15s-6.716-15-15-15z"/>
	


	
		<path d="m287 120.99h-212c-8.284 0-15 6.716-15 15s6.716 15 15 15h212c8.284 0 15-6.716 15-15s-6.716-15-15-15z"/>
	
















</svg>
