<?xml version="1.0" encoding="UTF-8" standalone="no"?>
<svg
   xmlns:dc="http://purl.org/dc/elements/1.1/"
   xmlns:cc="http://creativecommons.org/ns#"
   xmlns:rdf="http://www.w3.org/1999/02/22-rdf-syntax-ns#"
   xmlns:svg="http://www.w3.org/2000/svg"
   xmlns="http://www.w3.org/2000/svg"
   xmlns:sodipodi="http://sodipodi.sourceforge.net/DTD/sodipodi-0.dtd"
   xmlns:inkscape="http://www.inkscape.org/namespaces/inkscape"
   enable-background="new 0 0 511.999 511.999"
   version="1.1"
   viewBox="0 0 504.53589 442.22208"
   xml:space="preserve"
   id="svg8"
   sodipodi:docname="Chat.svg"
   width="504.53589"
   height="442.22208"
   inkscape:version="0.92.4 (5da689c313, 2019-01-14)"><metadata
   id="metadata14"><rdf:RDF><cc:Work
       rdf:about=""><dc:format>image/svg+xml</dc:format><dc:type
         rdf:resource="http://purl.org/dc/dcmitype/StillImage" /><dc:title /></cc:Work></rdf:RDF></metadata><defs
   id="defs12" /><sodipodi:namedview
   pagecolor="#ffffff"
   bordercolor="#666666"
   borderopacity="1"
   objecttolerance="10"
   gridtolerance="10"
   guidetolerance="10"
   inkscape:pageopacity="0"
   inkscape:pageshadow="2"
   inkscape:window-width="1920"
   inkscape:window-height="1017"
   id="namedview10"
   showgrid="false"
   inkscape:zoom="1.2139473"
   inkscape:cx="70.546986"
   inkscape:cy="293.57909"
   inkscape:window-x="-8"
   inkscape:window-y="-8"
   inkscape:window-maximized="1"
   inkscape:current-layer="svg8" />

	
		<path
   d="m 312.2951,0.01843688 c -91.73024,0.343333 -183.48407,-0.157527 -275.212895,0.257813 C 15.276669,1.9830159 -2.1982093,23.658507 0.22496613,45.151247 0.48139703,105.86417 -0.32410647,166.6078 0.64470463,227.30164 3.2755289,247.89949 23.806288,263.77623 44.123221,262.28406 c 4.949083,0.90366 13.01123,-3.14975 15.902344,2.83984 1.203409,16.73886 -1.275724,33.87988 1.103515,50.54102 3.372786,7.77418 14.159764,8.08236 19.552765,2.37496 23.165265,-15.44414 46.331285,-30.88714 69.496065,-46.33199 0.71773,26.18853 -1.23542,52.5426 1.02149,78.58984 4.28449,20.38135 25.61639,34.49376 46.04882,31.82812 47.54623,0 95.09245,0 142.63868,0 30.38049,19.74173 59.9276,40.96606 90.83007,59.78321 8.4312,2.11762 15.4564,-6.91646 13.50586,-14.81836 0,-15.00391 0,-30.00781 0,-45.01172 16.13161,0.66506 34.77261,1.46761 47.08203,-11.00781 10.98449,-10.02904 14.36515,-25.65659 12.91237,-39.9707 -0.25836,-58.71971 0.56327,-117.47308 -0.42994,-176.17188 -2.73633,-21.3607 -24.48379,-37.38544 -45.58789,-34.80274 -34.65495,0 -69.3099,0 -103.96485,0 -0.51558,-29.048325 0.98677,-58.19083 -0.78906,-87.177725 C 349.89666,14.039231 331.49048,-0.59220012 312.2951,0.01843688 Z M 212.87127,22.092656 c 34.76683,0.138111 69.5756,-0.184374 104.31641,0.429688 11.04842,2.027096 17.00467,14.324391 15.03251,24.744139 -0.24944,59.268577 0.51898,118.580017 -0.39189,177.822257 -2.0196,11.05588 -14.32275,17.00094 -24.74218,15.04263 -49.47874,0.25414 -99.0381,-0.5358 -148.4668,0.40269 -10.78114,4.53989 -19.22947,13.11577 -29.43769,18.73441 -15.61647,10.41081 -31.232983,20.82154 -46.849425,31.23238 -1.097004,-14.81096 1.619752,-29.97757 -1.341797,-44.56835 -5.144758,-8.60059 -16.351493,-5.24055 -24.544922,-6.0254 -10.486318,0.72651 -24.668802,2.17314 -31.183593,-8.41992 C 19.151568,220.33306 23.515577,207.04225 22.244632,195.0497 22.408385,142.47749 21.767581,89.864575 22.599783,37.317266 24.487938,26.661615 35.937302,20.359411 46.199391,22.132079 101.75668,22.202337 157.31397,22.091021 212.87127,22.092656 Z M 425.50018,142.08874 c 14.20904,0.28512 28.53222,-0.45804 42.67382,0.6543 10.51928,2.58308 15.90106,14.42924 14.04424,24.52148 -0.24944,59.26859 0.51897,118.58003 -0.39189,177.82227 -2.00432,11.02407 -14.16698,16.83149 -24.52539,15.14844 -10.31443,0.79109 -21.52253,-2.54249 -31.00391,2.28516 -6.99783,6.58384 -3.13984,17.26136 -4.07617,25.71093 0,7.4375 0,14.875 0,22.3125 -25.37917,-16.37124 -49.93598,-34.22306 -75.74414,-49.79101 -14.28123,-1.79094 -28.88593,0.22149 -43.34764,-0.64925 -38.61729,-0.17078 -77.27851,0.49791 -115.86916,-0.37224 -11.05288,-2.02292 -17.00529,-14.32393 -15.03906,-24.74414 0,-24.2858 0,-48.57161 0,-72.85742 49.05415,-0.28058 98.13958,0.55083 147.17383,-0.42969 21.30903,-2.76939 37.39398,-24.31296 34.82617,-45.60156 0,-24.65755 0,-49.3151 0,-73.97266 23.75984,0.0713 47.51945,-0.0261 71.2793,-0.0371 z"
   id="path2"
   inkscape:connector-curvature="0" />
	


	
		<path
   d="M 189.16313,166.12562 H 69.163128 c -8.284,0 -15,4.47733 -15,10 0,5.52267 6.716,10 15,10 H 189.16313 c 8.284,0 15,-4.47733 15,-10 0,-5.52267 -6.716,-10 -15,-10 z"
   id="path4"
   style="fill:#000080;stroke-width:0.81649661"
   inkscape:connector-curvature="0" />
	


	
		<path
   d="M 281.16313,114.12562 H 69.163128 c -8.284,0 -15,4.47733 -15,10 0,5.52267 6.716,10 15,10 H 281.16313 c 8.284,0 15,-4.47733 15,-10 0,-5.52267 -6.716,-10 -15,-10 z"
   id="path6"
   style="fill:#000080;stroke-width:0.81649661"
   inkscape:connector-curvature="0" />
	
















<path
   d="M 216.16313,62.356504 H 72.163128 c -9.9408,0 -18,4.47733 -18,10.000001 0,5.52267 8.0592,10 18,10 H 216.16313 c 9.9408,0 18,-4.47733 18,-10 0,-5.522671 -8.0592,-10.000001 -18,-10.000001 z"
   id="path4-9"
   style="fill:#000080;stroke-width:0.89442724"
   inkscape:connector-curvature="0" /></svg>