<?xml version="1.0" encoding="UTF-8"?>
<svg width="196.13mm" height="186.43mm" version="1.1" viewBox="0 0 196.13 186.43" xmlns="http://www.w3.org/2000/svg" xmlns:cc="http://creativecommons.org/ns#" xmlns:dc="http://purl.org/dc/elements/1.1/" xmlns:rdf="http://www.w3.org/1999/02/22-rdf-syntax-ns#">
<metadata>
<rdf:RDF>
<cc:Work rdf:about="">
<dc:format>image/svg+xml</dc:format>
<dc:type rdf:resource="http://purl.org/dc/dcmitype/StillImage"/>
<dc:title/>
</cc:Work>
</rdf:RDF>
</metadata>
<g transform="translate(-7.0103 -53.349)">
<g transform="matrix(.026458 0 0 .026458 7.0103 53.349)">
<g transform="translate(9638.8 339.64)">
<rect transform="matrix(-.002999 1 1 .002999 0 0)" x="-240.18" y="-7031.2" width="6883.9" height="2216.2" fill="none" stroke="#000" stroke-width="150"/>
<rect transform="matrix(-.002999 1 1 .002999 0 0)" x="-240.18" y="-7031.2" width="2333.8" height="2216.2" fill="#3ac2ee"/>
<rect transform="matrix(-.002999 1 1 .002999 0 0)" x="1976" y="-7031.2" width="2451.5" height="2216.2" fill="#ffeb47"/>
<rect transform="matrix(-.002999 1 1 .002999 0 0)" x="4309.9" y="-7029.8" width="2333.8" height="2216.2" fill="#561b6c"/>
<rect transform="matrix(-.002999 1 1 .002999 0 0)" x="1976" y="-7031.2" width="117.62" height="2217.6" fill="#808080"/>
<rect transform="matrix(-.002999 1 1 .002999 0 0)" x="4309.9" y="-7031.2" width="117.62" height="2217.6" fill="#808080"/>
</g>
<g transform="rotate(-.2105 119171 -2686354)">
<g transform="rotate(.12726 -9412.1 2247.6)">
<rect transform="rotate(90.167)" x="-351.16" y="7574.3" width="6883.9" height="2216.2" fill="none" stroke="#000" stroke-width="150"/>
<rect transform="rotate(90.167)" x="4198.9" y="7574.3" width="2333.8" height="2216.2" fill="#fa2c2e"/>
<rect transform="rotate(90.167)" x="1865.1" y="7574.3" width="2451.5" height="2216.2" fill="#4cae44"/>
<rect transform="rotate(90.167)" x="-351.16" y="7574.3" width="2333.8" height="2216.2" fill="#561b6c"/>
<rect transform="rotate(90.167)" x="1865.1" y="7574.3" width="117.62" height="2217.6" fill="#808080"/>
<rect transform="rotate(90.167)" x="4198.9" y="7574.3" width="117.62" height="2217.6" fill="#808080"/>
</g>
</g>
<g transform="matrix(-.012136 .99993 .99993 .012136 2162.8 -82.439)">
<g transform="rotate(.6363 3561 4106.9)">
<rect x="119.01" y="2998.8" width="6883.9" height="2216.2" fill="none" stroke="#000" stroke-width="150"/>
<rect x="4669.1" y="2998.8" width="2333.8" height="2216.2" fill="#ffeb47"/>
<rect x="2335.2" y="2998.8" width="2451.5" height="2216.2" fill="#4cae44"/>
<rect x="119.01" y="2998.8" width="2333.8" height="2216.2" fill="#fa2c2e"/>
<rect x="2335.2" y="2998.8" width="117.62" height="2217.6" fill="#808080"/>
<rect x="4669.1" y="2998.8" width="117.62" height="2217.6" fill="#808080"/>
</g>
</g>
</g>
<g transform="translate(0 -4.4654e-6)">
<text transform="scale(1.0598 .94356)" x="115.16708" y="227.53894" fill="#000000" font-family="'Yu Gothic UI'" font-size="201.75px" font-weight="600" letter-spacing="0px" stroke="#000000" stroke-width="4.5937" word-spacing="0px" style="font-feature-settings:normal;font-variant-caps:normal;font-variant-ligatures:normal;font-variant-numeric:normal;line-height:1.25" xml:space="preserve"><tspan x="115.16708" y="227.53894" font-family="'Yu Gothic UI'" font-size="201.75px" font-weight="600" stroke="#000000" stroke-width="4.5937" style="font-feature-settings:normal;font-variant-caps:normal;font-variant-ligatures:normal;font-variant-numeric:normal">1</tspan></text>
<g transform="translate(-366.64 133.19)">
<rect x="388.01" y="1.279" width="116.42" height="24.19"/>
<rect transform="rotate(90)" x="-44.834" y="-458.31" width="116.42" height="24.19"/>
</g>
</g>
</g>
</svg>
