<?xml version="1.0" encoding="UTF-8"?>
<svg width="179.84mm" height="149.5mm" version="1.1" viewBox="0 0 179.84 149.5" xmlns="http://www.w3.org/2000/svg" xmlns:cc="http://creativecommons.org/ns#" xmlns:dc="http://purl.org/dc/elements/1.1/" xmlns:rdf="http://www.w3.org/1999/02/22-rdf-syntax-ns#">
<metadata>
<rdf:RDF>
<cc:Work rdf:about="">
<dc:format>image/svg+xml</dc:format>
<dc:type rdf:resource="http://purl.org/dc/dcmitype/StillImage"/>
<dc:title/>
</cc:Work>
</rdf:RDF>
</metadata>
<g transform="translate(-122.12 -66.727)">
<g transform="matrix(.63724 0 0 .63724 103.18 43.008)" stroke-width="1.5693">
<path d="m29.714 154.52v-117.3h282.22v234.6h-282.22z" fill="#fefefe"/>
<path d="m158.48 266.86c-10.106-0.77567-17.407-1.6476-20.461-2.4436-0.6791-0.17698-3.5366-0.82075-6.35-1.4306-6.3114-1.3681-15.38-4.3181-19.81-6.4445-6.5915-3.1636-11.501-7.2189-13.394-11.063-0.66166-1.344-0.83742-2.2648-0.83042-4.3506 0.01016-3.0216 0.93972-5.249 3.2667-7.8276 5.1932-5.7546 17.224-11.157 31.649-14.211 2.3283-0.49302 4.5905-0.97777 5.0271-1.0772l0.79375-0.18084v-17.718l-1.3229 0.2204c-11.657 1.942-19.953 0.55807-27.061-4.5142-3.6506-2.605-6.2959-5.8732-9.8705-12.194-3.6216-6.4044-6.5482-9.4146-11.874-12.213-6.1309-3.2217-5.9902-6.7486 0.28378-7.1097 6.7694-0.38967 13.654 3.9604 18.916 11.952 2.7095 4.1151 4.3724 5.9302 7.197 7.856 5.7058 3.89 12.505 4.6075 20.178 2.1293 4.0421-1.3056 4.171-1.4181 5.2752-4.607 1.2275-3.545 3.1626-6.776 5.5949-9.3417l1.8827-1.986-2.9236-0.40895c-22.172-3.1014-37.412-11.198-45.699-24.28l-1.6215-2.5597-2.4961 3.5e-4c-4.0707 7.1e-4 -16.082 0.98837-23.839 1.9604-9.038 1.1326-18.601 2.8724-25.925 4.7167-4.8848 1.2301-5.7073 1.3528-6.1433 0.91684-0.95032-0.95032 0.2547-1.5218 6.2498-2.9642 14.156-3.4058 28.294-5.4212 44.83-6.3906 3.1806-0.18646 5.8507-0.40686 5.9336-0.48977 0.08291-0.0829-0.19735-0.95991-0.6228-1.9489l-0.77354-1.7981-10.628 7e-4c-15.265 7.1e-4 -27.735 0.93384-39.848 2.9813-4.9702 0.83998-5.8812 0.84342-5.8812 0.0221 0-0.8799 0.95396-1.1921 6.3501-2.0782 11.748-1.929 20.76-2.6508 36.601-2.9311 6.8395-0.12103 12.435-0.35639 12.435-0.52302s-0.32059-1.4519-0.71242-2.8561c-1.898-6.802-3.0706-17.901-2.6946-25.504 0.5574-11.268 3.9153-20.302 10.714-28.825l1.9039-2.3865-0.93679-3.6107c-1.2335-4.7544-1.5601-12.532-0.73684-17.55 0.61115-3.7252 2.0567-9.0343 2.9765-10.932 0.58911-1.2154 0.63712-1.2366 3.0679-1.3522 5.0451-0.23996 10.832 1.3813 18.697 5.2377 2.7164 1.332 6.7125 3.5426 8.8803 4.9126s4.2585 2.4908 4.6461 2.4908c0.38758 0 2.3446-0.39127 4.3489-0.86948 14.661-3.4981 33.256-3.7633 48.976-0.6985 2.4254 0.47283 4.7272 0.85544 5.1153 0.85024 0.38806-0.0052 2.2137-0.97018 4.057-2.1444 4.0405-2.5739 12.215-6.6101 15.925-7.8628 3.937-1.3294 7.3849-1.975 10.548-1.975 2.512 0 2.8407 0.07936 3.288 0.79375 0.70812 1.1311 2.2029 5.9225 2.944 9.4368 0.89768 4.257 0.89012 14.247-0.0137 18.1l-0.64601 2.7547 1.2778 1.4787c7.0601 8.1702 10.605 15.468 12.369 25.468 0.40131 2.2747 0.55653 5.3604 0.54742 10.882-0.014 8.5007-0.39397 13.51-1.4892 19.633-0.39912 2.2313-0.74898 4.2521-0.77749 4.4906-0.0399 0.33386 2.9934 0.46952 13.177 0.58934 16.102 0.18944 25.157 0.89202 37.394 2.9015 5.3961 0.88606 6.3501 1.1983 6.3501 2.0782 0 0.83466-0.98626 0.83307-5.8791-9e-3 -12.312-2.1201-26.04-3.0914-41.388-2.9286l-10.402 0.11038-0.41942 0.88194c-0.23069 0.48507-0.52364 1.302-0.65102 1.8155l-0.23159 0.93352 4.1742 0.23283c17.935 1.0003 33.613 3.1594 47.808 6.5835 5.996 1.4464 7.1997 2.018 6.2498 2.9679-0.43598 0.43597-1.2585 0.31322-6.1433-0.91684-13.829-3.4824-37.81-6.6755-50.146-6.6771l-2.8785-3.5e-4 -1.405 2.5576c-6.02 10.958-16.25 17.964-32.051 21.949-3.7114 0.93603-13.292 2.6574-14.79 2.6574-0.46965 0-0.85391 0.0947-0.85391 0.2105 0 0.11577 0.93921 1.2355 2.0871 2.4882 2.4787 2.7051 4.7035 6.8124 5.7447 10.606 0.7048 2.5677 0.76366 3.7658 0.90205 18.359l0.14805 15.612 0.76253 0.15801c0.41939 0.0869 2.7476 0.55938 5.1738 1.05 12.468 2.5209 22.504 6.261 29.209 10.885 7.0894 4.889 9.4379 10.875 6.4411 16.418-6.6413 12.284-38.181 21.404-73.223 21.172-5.0447-0.0334-10.68-0.17646-12.524-0.31794zm-4.2101-51.144c0.65599-0.35108 0.68236-0.87598 0.68236-13.582 0-7.2692-0.12452-13.217-0.27671-13.217-0.47477 0-1.4464 1.9337-2.0594 4.0983-0.46342 1.6364-0.62189 4.1835-0.74947 12.045-0.089 5.4835-0.0711 10.206 0.0397 10.495 0.23367 0.60893 1.3797 0.68649 2.3635 0.15996zm34.804-9.9536c-0.14027-7.9163-0.29996-10.399-0.77649-12.073-0.70186-2.4649-1.4728-4.0668-1.9572-4.0668-0.38883 0-0.49574 25.483-0.10854 25.87 0.12935 0.12935 0.86149 0.23519 1.627 0.23519h1.3918zm-17.626-5.6444-0.092-14.905h-1.7639l-0.184 29.81h2.132zm-29.687-53.515c3.3266-1.4715 6.5466-6.0574 7.7055-10.974 0.68173-2.8923 0.68972-8.6783 0.0159-11.536-1.1427-4.8467-4.3194-9.3577-7.7642-11.025-3.5594-1.7231-7.9144-0.69573-11.034 2.6031-7.5444 7.9771-6.3788 24.211 2.1758 30.302 2.421 1.7239 5.8759 1.9686 8.9012 0.63034zm-4.6384-4.6282c-1.8018-0.52393-3.9252-2.6502-5.1682-5.1752-1.0292-2.0906-1.1695-2.7384-1.2884-5.9508-0.10142-2.7398 0.0127-4.0568 0.47556-5.4885 1.4557-4.5024 4.4123-7.3517 7.6287-7.3517 2.1731 0 3.1278 0.38766 4.9018 1.9903 2.7512 2.4856 4.0878 6.4463 3.7791 11.199-0.31893 4.9102-2.333 8.6005-5.5758 10.216-1.9514 0.97244-2.937 1.0887-4.7528 0.5607zm-0.59364-15.696c0.86378-0.60501 1.0624-2.2064 0.36072-2.908-0.23283-0.23283-0.83608-0.42333-1.3406-0.42333-1.1802 0-1.7639 0.60038-1.7639 1.8144 0 0.83812 1.0484 2.0661 1.7639 2.0661 0.10769 0 0.54862-0.24712 0.97984-0.54917zm71.179 20.26c6.5566-3.082 10.045-14.579 7.2106-23.768-3.8183-12.381-15.689-14.236-21.076-3.2934-1.7626 3.5804-2.2965 6.4725-2.1057 11.407 0.19506 5.0451 0.99965 7.9141 3.1026 11.063 3.3837 5.0671 8.2002 6.7854 12.869 4.591zm-7.383-4.7084c-4.2529-1.5158-7.1495-8.0721-6.2181-14.075 0.916-5.9037 4.1581-9.7476 8.2216-9.7476 2.2459 0 3.8201 0.7751 5.538 2.7267 5.177 5.8814 3.7286 17.58-2.5649 20.716-2.0302 1.0117-2.9967 1.0855-4.9766 0.37979zm0.51162-15.721c1.1072-0.59257 0.8381-2.4329-0.42367-2.8971-1.5014-0.5524-2.8276 2.0799-1.4516 2.8813 0.78962 0.45991 1.0416 0.46204 1.8753 0.0158zm-115.38 54.693c-0.38806-0.38806-0.70222-1.1421-0.69815-1.6757 0.0089-1.1692 1.624-6.7996 2.0818-7.2574 0.39385-0.39385 1.8181 4.1323 2.0647 6.5616 0.13134 1.2936 0.02473 1.8472-0.45854 2.3812-0.80803 0.89286-2.0913 0.88866-2.9898-0.01z" fill="#f2c8b0"/>
<path d="m158.48 266.86c-10.106-0.77567-17.407-1.6476-20.461-2.4436-0.6791-0.17698-3.5366-0.82075-6.35-1.4306-6.3114-1.3681-15.38-4.3181-19.81-6.4445-6.5915-3.1636-11.501-7.2189-13.394-11.063-1.2449-2.5287-1.1801-6.3098 0.15208-8.8612 3.8617-7.3962 16.453-13.834 34.569-17.674 2.6141-0.55417 4.9296-1.1167 5.1454-1.2501 0.46651-0.28832 0.56513-17.339 0.10194-17.625-0.1598-0.0988-1.787 0.0662-3.616 0.36652-4.1592 0.683-12.51 0.46374-15.66-0.41117-5.0204-1.3945-9.575-4.1911-13.112-8.0508-1.1857-1.294-3.494-4.6586-5.3939-7.8622-3.9967-6.7394-7.0835-10.099-11.277-12.275-3.64-1.8885-5.3987-3.5327-5.2613-4.9189 0.16511-1.6656 1.7228-2.3858 5.1441-2.3783 6.6531 0.0146 12.81 4.0659 18.001 11.844 3.7592 5.633 7.2821 8.649 12.263 10.498 1.7509 0.65002 2.8418 0.779 6.6788 0.78963 4.8016 0.0133 6.8882-0.36736 11.037-2.0137 2.0043-0.79528 2.0185-0.81138 2.7627-3.1277 1.1811-3.6763 3.2957-7.34 5.7204-9.9111 2.5498-2.7038 2.7479-2.4271-2.2343-3.1205-8.9952-1.2518-18.617-4.11-25.598-7.6044-8.0261-4.0173-13.945-9.1256-18.453-15.925-1.7699-2.6697-2.3232-3.2624-3.0449-3.2616-0.48507 7.1e-4 -3.5013 0.16259-6.7028 0.36003-16.511 1.0182-31.758 3.2358-45.103 6.5598-3.8486 0.95858-5.1602 1.1624-5.4681 0.84993-0.68935-0.69975 0.52848-1.2487 5.4114-2.4393 13.656-3.3297 28.439-5.4809 44.102-6.4176 3.9776-0.23787 7.3508-0.5354 7.4961-0.66119 0.14531-0.12578-0.07753-1.0376-0.4952-2.0262-0.94822-2.2444-0.81167-2.2165-10.881-2.2193-13.209-4e-3 -26.633 0.94676-37.571 2.66-9.131 1.4301-8.6431 1.3892-8.6431 0.72495 0-0.84053 1.007-1.1268 7.4679-2.1231 12.541-1.9338 23.005-2.6786 37.635-2.6786h10.366l-0.18318-0.79375c-0.10075-0.43656-0.58024-2.3019-1.0656-4.1451-1.7021-6.4648-2.1594-10.734-2.1727-20.285-0.01108-7.9796 0.06609-9.1694 0.81055-12.495 1.5821-7.0674 4.3102-13.045 8.4599-18.537 1.2974-1.7171 2.5595-3.3886 2.8047-3.7144 0.36194-0.4811 0.34659-0.87326-0.0817-2.0871-1.1023-3.1242-1.7228-7.588-1.7208-12.379 2e-3 -5.5206 0.6523-9.6538 2.3444-14.907 1.4199-4.4085 1.6966-4.6218 5.6169-4.3303 7.2585 0.53983 17.098 4.5489 27.075 11.032l2.988 1.9415 1.7745-0.42046c11.086-2.6268 17.572-3.3592 29.644-3.3473 10.549 0.0104 14.127 0.3405 23.283 2.1482l4.5861 0.90542 3.3514-2.1001c9.868-6.1835 18.594-9.6274 25.753-10.163 3.8315-0.2869 4.1239-0.05811 5.5388 4.3348 1.749 5.4302 2.343 9.3553 2.3093 15.26-0.0208 3.6418-0.22628 6.0298-0.71346 8.2903l-0.6843 3.175 2.2705 2.6458c5.7675 6.7209 9.1314 13.57 11.088 22.578 0.72257 3.3257 0.8035 4.6232 0.79219 12.7-0.0133 9.4866-0.60321 16.345-1.8578 21.599-0.35797 1.4992-0.56776 2.8088-0.46618 2.9104s5.1219 0.18469 11.156 0.18469c15.251 0 25.546 0.72119 38.24 2.6786 6.4609 0.99629 7.4679 1.2826 7.4679 2.1231 0 0.66426 0.48794 0.70518-8.6431-0.72495-6.9595-1.09-14.506-1.837-23.283-2.3048-7.3885-0.39376-21.253-0.43162-23.938-0.0654-1.6627 0.22687-1.7317 0.28414-2.368 1.9644-0.36048 0.9519-0.57262 1.8647-0.47142 2.0285 0.10121 0.16375 1.2462 0.29838 2.5444 0.29917 5.4424 3e-3 19.398 1.2884 28.979 2.6683 7.4773 1.077 13.658 2.2582 20.565 3.9298 5.4699 1.3238 6.7394 1.8674 6.0339 2.5836-0.30788 0.31252-1.6194 0.10865-5.4681-0.84993-13.345-3.324-28.593-5.5415-45.103-6.5598-9.1214-0.56254-8.1882-0.75636-9.7215 2.019-7.9252 14.345-21.31 21.478-46.824 24.953l-1.6886 0.22996 2.4253 2.597c2.6254 2.8113 4.4745 5.99 5.747 9.8795 0.78392 2.3961 0.81189 2.9408 0.94188 18.344 0.0737 8.7312 0.2552 16 0.40337 16.152s2.5578 0.74171 5.3547 1.3098c13.157 2.6724 23.059 6.3294 29.886 11.038 7.0894 4.889 9.4379 10.875 6.4411 16.418-6.6413 12.284-38.181 21.404-73.223 21.172-5.0447-0.0334-10.68-0.17646-12.524-0.31794zm-4.2101-51.144c0.65623-0.35121 0.68236-0.87798 0.68236-13.758 0-7.3662-0.12952-13.393-0.28782-13.393-0.5718 0-1.8716 2.85-2.3678 5.1917-0.36977 1.745-0.50873 5.028-0.5132 12.124-4e-3 5.3519 0.0997 9.8366 0.22906 9.966 0.34988 0.34989 1.4827 0.28465 2.2574-0.13zm34.817-10.483c-0.14942-11.217-0.32672-12.496-2.1147-15.258l-0.79934-1.2347-0.0926 13.051c-0.051 7.1783-0.0162 13.25 0.0771 13.494 0.098 0.25534 0.7827 0.44237 1.6195 0.44237h1.4498zm-17.28-4.4979c0.054-7.7611 9e-3 -14.478-0.1003-14.926-0.16407-0.67405-0.39485-0.79621-1.3328-0.70556l-1.1344 0.10965-0.0922 14.464c-0.0507 7.955-0.0121 14.672 0.0858 14.927 0.11006 0.28682 0.61648 0.42159 1.3269 0.35312l1.149-0.11073zm24.244-37.727c21.775-2.9054 31.149-12.217 32.146-31.935 0.42183-8.3379-2.1549-14.408-8.7929-20.713-3.0865-2.9318-6.3115-4.6382-10.653-5.637-3.6146-0.83139-13.564-0.81502-22.225 0.0366-9.4205 0.9263-20.638 1.0817-28.928 0.40076-15.018-1.2336-18.42-1.3764-22.63-0.94958-7.602 0.77071-11.682 2.6898-16.352 7.6907-5.9788 6.4035-7.9704 12.14-7.1307 20.538 1.9456 19.459 14.37 28.674 41.879 31.058 1.9403 0.16819 11.307 0.26437 20.814 0.21373 14.01-0.0746 18.155-0.20802 21.872-0.70398zm-29.348-5.2892c-2.8617-1.3324-5.0907-4.9926-3.4288-5.6304 0.74871-0.2873 1.0775-0.0448 2.0692 1.5262 2.0972 3.3222 7.2112 3.3123 9.117-0.0176 0.87689-1.5322 1.5248-1.9187 2.2322-1.3316 0.74796 0.62075 0.58262 1.4854-0.59491 3.1109-1.2728 1.757-4.042 3.1951-6.1526 3.1951-0.77611 0-2.2351-0.38364-3.2422-0.85253zm1.5334-9.4179c-1.0722-0.62325-1.6928-2.5264-1.2438-3.8144 0.37616-1.0791 1.8372-2.1361 2.9525-2.1361s2.5764 1.057 2.9525 2.1361c0.46134 1.3234-0.19255 3.2337-1.312 3.8328-0.90048 0.48193-2.5038 0.47314-3.3493-0.0183zm-32.158-7.3182c-1.6626-1.0361-2.8766-2.5136-3.9488-4.8059-0.90491-1.9346-0.99006-2.4657-0.98979-6.1736 2.6e-4 -3.6296 0.0965-4.2613 0.91375-5.9972 1.8766-3.9861 4.3833-5.8523 7.4632-5.5564 5.9106 0.56794 9.4396 9.7461 6.6323 17.249-0.86826 2.3206-2.7093 4.5784-4.3797 5.3711-1.6454 0.78079-4.3649 0.73908-5.691-0.0873zm1.1082-14.701c2.0459-2.046-0.85209-4.9359-3.2162-3.2072-0.9505 0.69503-0.86745 2.634 0.14805 3.4563 1.0987 0.88969 2.0027 0.81629 3.0682-0.24911zm62.016 14.471c-3.2214-2.1205-4.9123-6.3144-4.6744-11.593 0.54079-11.997 11.604-14.86 15.342-3.9705 0.84108 2.4499 0.82371 7.529-0.0339 9.9054-1.5481 4.2899-3.7091 6.2782-7.0372 6.4748-1.8745 0.11071-2.3535 2e-3 -3.5966-0.81629zm2.1145-14.478c0.88753-0.88753 0.70158-2.5079-0.36823-3.2089-0.82633-0.54143-1.0196-0.55032-1.8521-0.0852-0.59086 0.33012-0.97125 0.88006-1.0441 1.5095-0.21872 1.8892 1.9656 3.0834 3.2644 1.7846zm-115.86 54.529c-0.38806-0.38806-0.70222-1.1421-0.69815-1.6757 0.0089-1.1692 1.624-6.7996 2.0818-7.2574 0.39385-0.39385 1.8181 4.1323 2.0647 6.5616 0.13134 1.2936 0.02473 1.8472-0.45854 2.3812-0.80803 0.89286-2.0913 0.88866-2.9898-0.01z" fill="#9ad8ee"/>
<path d="m172.83 266.65c-0.45856-0.45856-0.25472-9.8942 0.27454-12.709 0.32405-1.7231 1.072-3.8619 1.9849-5.6758l1.4649-2.9108-1.4873-1.6136c-0.81803-0.88746-1.9097-2.5145-2.4259-3.6156l-0.93853-2.0021 0.12812-25.79c0.0705-14.185 0.0172-26.14-0.11835-26.567-0.19688-0.6203-0.4711-0.75477-1.3628-0.66826l-1.1164 0.1083v26.106c0 23.539-0.0578 26.249-0.58756 27.565-0.97389 2.4186-1.6849 3.6313-2.9508 5.0324l-1.2054 1.3342 1.4124 2.7898c1.9111 3.7749 2.4358 6.59 2.4432 13.109l6e-3 5.3799-4.1451-0.0412c-2.2798-0.0227-5.177-0.14175-6.4382-0.26459l-2.293-0.22335-0.22147-6.35c-0.13472-3.8628-0.41636-6.9718-0.71904-7.9375-0.46087-1.4704-0.59419-1.5956-1.807-1.697l-1.3094-0.10949v15.565l-1.4993-6e-3c-1.4334-6e-3 -7.8394-0.81938-9.8778-1.2539l-0.97014-0.20681v-6.4242c0-6.7816-0.34596-9.0848-1.7897-11.915-1.1529-2.2599-3.5713-4.3822-5.865-5.1467-1.2581-0.41936-2.2719-1.0271-2.7244-1.6331-0.72023-0.96467-0.72024-0.96575-0.0215-2.2334 0.50224-0.91108 1.3758-1.6265 3.1019-2.5404 5.3148-2.8139 6.243-4.5972 6.6299-12.737 0.37111-7.8082 0.38692-21.081 0.0254-21.305-0.15979-0.0988-1.787 0.0662-3.616 0.36652-4.1592 0.683-12.51 0.46373-15.66-0.41118-5.0204-1.3945-9.575-4.1911-13.112-8.0508-1.1857-1.294-3.494-4.6586-5.3939-7.8622-3.9967-6.7394-7.0835-10.099-11.277-12.275-3.64-1.8885-5.3987-3.5327-5.2613-4.9189 0.16511-1.6656 1.7228-2.3858 5.1441-2.3783 6.6531 0.0146 12.81 4.0659 18.001 11.844 3.7592 5.633 7.2821 8.649 12.263 10.498 1.7509 0.65002 2.8418 0.779 6.6788 0.78963 4.8016 0.0133 6.8882-0.36736 11.037-2.0137 2.0043-0.79528 2.0185-0.81138 2.7627-3.1277 1.1811-3.6763 3.2957-7.34 5.7204-9.9111 2.5498-2.7037 2.7479-2.4271-2.2343-3.1204-8.9952-1.2518-18.617-4.11-25.598-7.6044-8.0261-4.0173-13.945-9.1256-18.453-15.925-1.7699-2.6697-2.3232-3.2624-3.0449-3.2616-0.48507 7e-4 -3.5013 0.16258-6.7028 0.36003-16.511 1.0182-31.758 3.2358-45.103 6.5598-3.8486 0.95859-5.1602 1.1624-5.4681 0.84994-0.68935-0.69975 0.52848-1.2487 5.4114-2.4393 13.656-3.3297 28.439-5.4809 44.102-6.4176 3.9776-0.23787 7.3508-0.5354 7.4961-0.66119 0.14531-0.12578-0.07753-1.0376-0.4952-2.0262-0.94822-2.2444-0.81167-2.2165-10.881-2.2193-13.209-4e-3 -26.633 0.94676-37.571 2.66-9.131 1.4301-8.6431 1.3892-8.6431 0.72495 0-0.84053 1.007-1.1268 7.4679-2.1231 12.541-1.9338 23.005-2.6786 37.635-2.6786h10.366l-0.18318-0.79375c-0.10075-0.43656-0.58024-2.3019-1.0656-4.1451-1.7021-6.4648-2.1594-10.734-2.1727-20.285-0.01108-7.9796 0.06609-9.1694 0.81055-12.495 1.5821-7.0674 4.3102-13.045 8.4599-18.537 1.2974-1.7171 2.5595-3.3886 2.8047-3.7144 0.36194-0.4811 0.34659-0.87326-0.0817-2.0871-1.1023-3.1242-1.7228-7.588-1.7208-12.379 2e-3 -5.5206 0.6523-9.6538 2.3444-14.907 1.4199-4.4085 1.6966-4.6218 5.6169-4.3303 7.2585 0.53983 17.098 4.5489 27.075 11.032l2.988 1.9415 1.7745-0.42046c11.086-2.6268 17.572-3.3592 29.644-3.3473 10.549 0.0104 14.127 0.3405 23.283 2.1482l4.5861 0.90542 3.3514-2.1001c9.868-6.1835 18.594-9.6274 25.753-10.163 3.8315-0.2869 4.1239-0.05811 5.5388 4.3348 1.749 5.4302 2.343 9.3553 2.3093 15.26-0.0208 3.6418-0.22628 6.0298-0.71346 8.2903l-0.6843 3.175 2.2705 2.6458c5.7675 6.7209 9.1314 13.57 11.088 22.578 0.72257 3.3257 0.8035 4.6232 0.79219 12.7-0.0133 9.4866-0.60321 16.345-1.8578 21.599-0.35797 1.4992-0.56776 2.8088-0.46618 2.9104s5.1219 0.18469 11.156 0.18469c15.251 0 25.546 0.72119 38.24 2.6786 6.4609 0.99629 7.4679 1.2826 7.4679 2.1231 0 0.66426 0.48794 0.70518-8.6431-0.72495-6.9595-1.09-14.506-1.837-23.283-2.3048-7.3885-0.39376-21.253-0.43162-23.938-0.0654-1.6627 0.22687-1.7317 0.28414-2.368 1.9644-0.36048 0.9519-0.57262 1.8647-0.47142 2.0285 0.10121 0.16375 1.2462 0.29838 2.5444 0.29917 5.4424 3e-3 19.398 1.2884 28.979 2.6683 7.4773 1.077 13.658 2.2582 20.565 3.9298 5.4699 1.3238 6.7394 1.8674 6.0339 2.5836-0.30788 0.31252-1.6194 0.10865-5.4681-0.84993-13.345-3.324-28.593-5.5415-45.103-6.5598-9.1214-0.56254-8.1882-0.75636-9.7215 2.019-7.9252 14.345-21.31 21.478-46.824 24.953l-1.6886 0.22996 2.4253 2.597c2.6403 2.8272 4.4968 6.0284 5.7296 9.8795 0.76442 2.388 0.79913 3.1153 1.0522 22.049 0.1807 13.52 0.39461 20.069 0.69116 21.161 1.0433 3.8422 3.1763 6.5857 6.5458 8.4195 0.94497 0.51428 2.0144 1.4454 2.3765 2.0692 0.98184 1.6913 0.31447 2.8037-2.5434 4.2391-2.9387 1.476-4.389 2.9145-5.7769 5.7299l-1.1259 2.2837-0.10751 7.5941c-0.0591 4.1767-0.21787 7.7052-0.35277 7.841-0.21515 0.21658-10.304 1.6934-11.569 1.6934-0.38991 0-0.49952-1.5264-0.57631-8.0257l-0.0948-8.0257-1.1719 0.0548c-0.64455 0.0301-1.2499 0.13277-1.3452 0.22809-0.72266 0.72266-1.2849 4.6262-1.442 10.012l-0.17683 6.0616-2.1654 0.18737c-4.4947 0.38893-10.327 0.57718-10.563 0.34096zm-19.034-25.985c0.53994-0.99241 0.6425-2.7182 0.84286-14.183 0.35626-20.384 0.34717-37.924-0.0196-37.924-0.59995 0-2.1078 3.674-2.5338 6.1736-0.30267 1.7762-0.36243 6.2825-0.21284 16.051 0.11748 7.6728 0.0654 14.716-0.11962 16.188-0.5698 4.5334-2.6561 7.9112-6.3505 10.282-0.9599 0.61596-1.7453 1.1677-1.7453 1.226 0 0.0583 0.67468 0.50567 1.4993 0.99404s2.278 1.6848 3.2296 2.6587l1.7303 1.7708 1.5324-1.0543c0.84284-0.57989 1.8091-1.5628 2.1472-2.1842zm38.441 1.9569c0.58992-0.7276 1.9582-1.8785 3.0407-2.5576 1.0825-0.67909 1.9758-1.3372 1.9851-1.4625 9e-3 -0.1253-0.76843-0.73179-1.7283-1.3478-3.6936-2.3702-5.7794-5.7466-6.352-10.282-0.18667-1.4787-0.23837-8.3301-0.1195-15.836 0.2224-14.042 0.0513-16.517-1.371-19.823-0.39611-0.92079-0.95937-1.8726-1.2517-2.1152-0.47295-0.39251-0.50682 2.2-0.30754 23.537 0.12317 13.188 0.35735 24.534 0.5204 25.213 0.5535 2.3052 1.3632 3.7541 2.7256 4.8771 0.74741 0.61608 1.4549 1.1201 1.5723 1.1201s0.69602-0.59531 1.2859-1.3229zm-60.94-51.402c0.23448-0.28254 0.32393-0.67941 0.19876-0.88194-0.36459-0.58991-2.297-0.44047-2.5415 0.19654-0.40817 1.0637 1.5527 1.6373 2.3427 0.6854zm-7.9247-0.53612c0-0.71002-1.8136-1.3346-2.3417-0.8065-0.2188 0.21879-0.29845 0.65674-0.177 0.97321 0.28789 0.75024 2.5187 0.60258 2.5187-0.16671zm14.225-1.8898c0.0675-0.34811-0.11245-0.58813-0.44097-0.58813-0.32725 0-0.55503 0.30162-0.55503 0.73495 0 0.85974 0.82436 0.73821 0.996-0.14682zm-21.457-0.0508c0-0.71307-1.5325-1.6623-2.2433-1.3895-0.72562 0.27845-0.7323 0.64839-0.0245 1.3562 0.71076 0.71076 2.2678 0.73364 2.2678 0.0333zm-5.9972-4.947c0-0.60117-1.225-1.9403-1.775-1.9403-0.6863 0-0.77996 1.0847-0.15342 1.777 0.73984 0.81752 1.9284 0.91813 1.9284 0.16325zm-4.9389-5.844c0-0.80663-0.76387-1.7407-1.4235-1.7407-0.77444 0-0.87057 0.42042-0.32795 1.4343 0.3829 0.71546 1.7515 0.95487 1.7515 0.30639zm-5.0397-6.226c-0.42647-0.42646-0.70892-0.49052-0.9777-0.22174-0.26878 0.26878-0.20472 0.55123 0.22175 0.9777 0.42647 0.42647 0.70891 0.49053 0.9777 0.22174 0.26878-0.26878 0.20472-0.55123-0.22175-0.9777zm-4.1325-2.8853c0-0.43279-0.99387-0.78022-1.2138-0.42432-0.09795 0.1585-0.07658 0.38969 0.0475 0.51376 0.3362 0.3362 1.1663 0.27255 1.1663-0.0894zm100.01-5.8385c21.775-2.9054 31.149-12.217 32.146-31.935 0.42183-8.3379-2.1549-14.408-8.7929-20.713-3.0865-2.9318-6.3115-4.6382-10.653-5.637-3.6146-0.83139-13.564-0.81502-22.225 0.0366-9.4205 0.9263-20.638 1.0817-28.928 0.40076-15.018-1.2336-18.42-1.3764-22.63-0.94958-7.602 0.77071-11.682 2.6898-16.352 7.6907-5.9788 6.4035-7.9704 12.14-7.1307 20.538 1.9456 19.459 14.37 28.674 41.879 31.058 1.9403 0.16819 11.307 0.26437 20.814 0.21373 14.01-0.0746 18.155-0.20802 21.872-0.70398zm-29.348-5.2892c-2.8617-1.3324-5.0907-4.9926-3.4288-5.6304 0.74871-0.2873 1.0775-0.0448 2.0692 1.5262 2.0972 3.3222 7.2112 3.3123 9.117-0.0176 0.87689-1.5322 1.5248-1.9187 2.2322-1.3316 0.74796 0.62075 0.58262 1.4854-0.59491 3.1109-1.2728 1.757-4.042 3.1951-6.1526 3.1951-0.77611 0-2.2351-0.38364-3.2422-0.85253zm1.5334-9.4179c-1.0722-0.62325-1.6928-2.5264-1.2438-3.8144 0.37616-1.0791 1.8372-2.1361 2.9525-2.1361s2.5764 1.057 2.9525 2.1361c0.46134 1.3234-0.19255 3.2337-1.312 3.8328-0.90048 0.48193-2.5038 0.47314-3.3493-0.0183zm-32.158-7.3182c-1.6626-1.0361-2.8766-2.5136-3.9488-4.8059-0.90491-1.9346-0.99006-2.4657-0.98979-6.1736 2.6e-4 -3.6296 0.0965-4.2613 0.91375-5.9972 1.8766-3.9861 4.3833-5.8523 7.4632-5.5564 5.9106 0.56794 9.4396 9.7461 6.6323 17.249-0.86826 2.3206-2.7093 4.5784-4.3797 5.3711-1.6454 0.78079-4.3649 0.73908-5.691-0.0873zm1.1082-14.701c2.0459-2.046-0.85209-4.9359-3.2162-3.2072-0.9505 0.69503-0.86745 2.634 0.14805 3.4563 1.0987 0.88969 2.0027 0.81629 3.0682-0.24911zm62.016 14.471c-3.2214-2.1205-4.9123-6.3144-4.6744-11.593 0.54079-11.997 11.604-14.86 15.342-3.9705 0.84108 2.4499 0.82371 7.529-0.0339 9.9054-1.5481 4.2899-3.7091 6.2782-7.0372 6.4748-1.8745 0.11071-2.3535 2e-3 -3.5966-0.81629zm2.1145-14.478c0.88753-0.88753 0.70158-2.5079-0.36823-3.2089-0.82633-0.54143-1.0196-0.55032-1.8521-0.0852-0.59086 0.33012-0.97125 0.88006-1.0441 1.5095-0.21872 1.8892 1.9656 3.0834 3.2644 1.7846z" fill="#79b5de"/>
<path d="m150.49 248.76c-0.76322-0.6565-0.96465-1.1248-0.93493-2.1736 0.0332-1.1699 0.3244-1.605 2.3323-3.4848 1.6661-1.5597 2.3992-2.5344 2.6772-3.5591 0.45592-1.6808 0.55154-50.976 0.0989-50.976-0.5718 0-1.8716 2.85-2.3678 5.1917-0.39345 1.8568-0.50891 5.6735-0.51525 17.033-4e-3 8.0522-0.16395 15.593-0.35437 16.757-1.1963 7.3144-6.9732 11.67-16.447 12.4-3.6963 0.28478-5.2727-0.0164-6.0149-1.1492-0.5304-0.80948-0.53322-0.98837-0.0322-2.0389 0.41084-0.86154 1.1319-1.43 2.8626-2.2567 2.7345-1.3062 4.9433-3.3947 5.994-5.6675 0.7265-1.5716 0.76279-2.1985 0.86844-15.006 0.0606-7.3512-0.0204-13.496-0.17998-13.656-0.15964-0.15964-1.7968-0.0429-3.638 0.25944-4.1817 0.68662-12.524 0.46982-15.682-0.40757-5.0204-1.3945-9.575-4.1911-13.112-8.0508-1.1857-1.294-3.494-4.6586-5.3939-7.8622-3.9967-6.7394-7.0835-10.099-11.277-12.275-3.64-1.8885-5.3987-3.5327-5.2613-4.9189 0.16512-1.6656 1.7228-2.3858 5.1441-2.3783 6.6531 0.0146 12.81 4.0659 18.001 11.844 3.7592 5.633 7.2821 8.649 12.263 10.498 1.7509 0.65002 2.8418 0.779 6.6788 0.78963 4.8016 0.0133 6.8882-0.36736 11.037-2.0137 2.0043-0.79528 2.0185-0.81138 2.7627-3.1277 1.1811-3.6763 3.2957-7.34 5.7204-9.9111 2.5498-2.7038 2.7479-2.4271-2.2343-3.1205-8.9952-1.2518-18.617-4.11-25.598-7.6044-8.0261-4.0173-13.945-9.1256-18.453-15.925-1.7699-2.6697-2.3232-3.2624-3.0449-3.2616-0.48507 7.1e-4 -3.5013 0.16259-6.7028 0.36003-16.511 1.0182-31.758 3.2358-45.103 6.5598-3.8486 0.95858-5.1602 1.1624-5.4681 0.84993-0.68935-0.69975 0.52848-1.2487 5.4114-2.4393 13.656-3.3297 28.439-5.4809 44.102-6.4176 3.9776-0.23787 7.3508-0.5354 7.4961-0.66119 0.14531-0.12578-0.07753-1.0376-0.4952-2.0262-0.94822-2.2444-0.81167-2.2165-10.881-2.2193-13.209-4e-3 -26.633 0.94676-37.571 2.66-9.131 1.4301-8.6431 1.3892-8.6431 0.72495 0-0.84053 1.007-1.1268 7.4679-2.1231 12.541-1.9338 23.005-2.6786 37.635-2.6786h10.366l-0.18318-0.79375c-0.10075-0.43656-0.58024-2.3019-1.0656-4.1451-1.7021-6.4648-2.1594-10.734-2.1727-20.285-0.01108-7.9796 0.06609-9.1694 0.81055-12.495 1.5821-7.0674 4.3102-13.045 8.4599-18.537 1.2974-1.7171 2.5595-3.3886 2.8047-3.7144 0.36194-0.4811 0.34659-0.87326-0.0817-2.0871-1.1023-3.1242-1.7228-7.588-1.7208-12.379 2e-3 -5.5206 0.6523-9.6538 2.3444-14.907 1.4199-4.4085 1.6966-4.6218 5.6169-4.3303 7.2585 0.53983 17.098 4.5489 27.075 11.032l2.988 1.9415 1.7745-0.42046c11.086-2.6268 17.572-3.3592 29.644-3.3473 10.549 0.0104 14.127 0.3405 23.283 2.1482l4.5861 0.90542 3.3514-2.1001c9.868-6.1835 18.594-9.6274 25.753-10.163 3.8315-0.2869 4.1239-0.05811 5.5388 4.3348 1.749 5.4302 2.343 9.3553 2.3093 15.26-0.0208 3.6418-0.22628 6.0298-0.71346 8.2903l-0.6843 3.175 2.2705 2.6458c5.7675 6.7209 9.1314 13.57 11.088 22.578 0.72257 3.3257 0.8035 4.6232 0.79219 12.7-0.0133 9.4866-0.60321 16.345-1.8578 21.599-0.35797 1.4992-0.56776 2.8088-0.46618 2.9104s5.1219 0.18469 11.156 0.18469c15.251 0 25.546 0.72119 38.24 2.6786 6.4609 0.99629 7.4679 1.2826 7.4679 2.1231 0 0.66426 0.48794 0.70518-8.6431-0.72495-6.9595-1.09-14.506-1.837-23.283-2.3048-7.3885-0.39376-21.253-0.43162-23.938-0.0654-1.6627 0.22687-1.7317 0.28414-2.368 1.9644-0.36048 0.9519-0.57262 1.8647-0.47142 2.0285 0.10121 0.16375 1.2462 0.29838 2.5444 0.29917 5.4424 3e-3 19.398 1.2884 28.979 2.6683 7.4773 1.077 13.658 2.2582 20.565 3.9298 5.4699 1.3238 6.7394 1.8674 6.0339 2.5836-0.30788 0.31252-1.6194 0.10865-5.4681-0.84993-13.345-3.324-28.593-5.5415-45.103-6.5598-9.1214-0.56254-8.1882-0.75636-9.7215 2.019-7.9252 14.345-21.31 21.478-46.824 24.953l-1.6886 0.22996 2.4253 2.597c2.6415 2.8285 4.4985 6.0313 5.7282 9.8795 0.86277 2.6999 0.96082 5.4423 1.1422 31.946l0.0786 11.485 1.3357 2.7014c1.41 2.8518 2.9879 4.4468 5.8008 5.8637 3.8289 1.9286 2.7687 5.3341-1.6587 5.3281-6.5802-9e-3 -12.933-2.5281-15.755-6.2477-0.62092-0.81835-1.4927-2.4058-1.9373-3.5278-0.79026-1.9943-0.81315-2.4146-1.0239-18.797-0.23173-18.014-0.2897-18.584-2.1902-21.519l-0.79934-1.2347-0.0931 23.989c-0.0901 23.203-0.0698 24.066 0.61987 26.345 0.59782 1.9755 0.99382 2.6023 2.4516 3.8806 1.9863 1.7417 2.6319 3.0449 2.1439 4.3282-0.72697 1.9121-2.9724 2.5824-6.0572 1.8082-5.5558-1.3943-10.058-4.6146-12.019-8.5957l-1.1573-2.3503-0.18514-26.466c-0.10184-14.556-0.2209-26.516-0.26459-26.577-0.0437-0.0608-0.59537-0.0608-1.226 0l-1.1465 0.11055-0.18524 26.106c-0.12986 18.3-0.30622 26.445-0.58983 27.242-1.8785 5.2762-6.1009 8.8816-12.289 10.493-2.9957 0.78028-4.5258 0.70064-5.6843-0.29582zm-19.64-56.882c1.5808-0.42396 1.231-2.2535-0.43092-2.2535-1.8546 0-2.6673 1.297-1.3086 2.0884 0.73341 0.42717 0.75467 0.42919 1.7395 0.16506zm-7.1194-1.014c0-0.96691-1.6782-1.7574-2.6391-1.2431-1.4786 0.79133-0.50735 2.2094 1.4029 2.0482 0.96324-0.0813 1.2362-0.25908 1.2362-0.80513zm14.065-1.6804c0.32331-1.2065 0.2798-1.3229-0.49428-1.3229-0.79071 0-1.2347 0.76647-0.91969 1.5875 0.30599 0.79739 1.1728 0.63519 1.414-0.26458zm-21.423-0.0927c0.42296-1.1022-1.6277-2.4879-2.7846-1.8817-0.80117 0.41982-0.77937 0.84223 0.0882 1.7098 0.83191 0.83191 2.4046 0.93218 2.6964 0.1719zm-6.0095-4.9068c0.2578-0.67182-0.41128-1.8595-1.3222-2.347-0.57777-0.30922-0.85241-0.28153-1.2611 0.12714-0.85844 0.85845 0.33896 2.7038 1.7624 2.716 0.34564 3e-3 0.71505-0.22032 0.82092-0.4962zm-4.9273-6.0275c0.28301-0.7375-0.80704-2.2903-1.6078-2.2903-0.92449 0-1.2058 1.0022-0.55864 1.99 0.61329 0.93601 1.8563 1.1083 2.1664 0.30035zm-4.4596-5.6248c0-0.68951-1.329-1.7114-1.9271-1.4819-0.7313 0.28063-0.68234 0.79577 0.15525 1.6334 0.71656 0.71655 1.7719 0.62635 1.7719-0.15146zm-4.7625-3.7259c0-0.30976-0.39702-0.57002-0.97014-0.63596-1.0378-0.11941-1.2391 0.23076-0.53651 0.93331 0.56259 0.56259 1.5066 0.37627 1.5066-0.29735zm99.836-5.796c21.775-2.9054 31.149-12.217 32.146-31.935 0.42183-8.3379-2.1549-14.408-8.7929-20.713-3.0865-2.9318-6.3115-4.6382-10.653-5.637-3.6146-0.83139-13.564-0.81502-22.225 0.0366-9.4205 0.9263-20.638 1.0817-28.928 0.40076-15.018-1.2336-18.42-1.3764-22.63-0.94958-7.602 0.77071-11.682 2.6898-16.352 7.6907-5.9788 6.4035-7.9704 12.14-7.1307 20.538 1.9456 19.459 14.37 28.674 41.879 31.058 1.9403 0.16819 11.307 0.26437 20.814 0.21373 14.01-0.0746 18.155-0.20802 21.872-0.70398zm-29.348-5.2892c-2.8617-1.3324-5.0907-4.9926-3.4288-5.6304 0.74871-0.2873 1.0775-0.0448 2.0692 1.5262 2.0972 3.3222 7.2112 3.3123 9.117-0.0176 0.87689-1.5322 1.5248-1.9187 2.2322-1.3316 0.74796 0.62075 0.58262 1.4854-0.59491 3.1109-1.2728 1.757-4.042 3.1951-6.1526 3.1951-0.77611 0-2.2351-0.38364-3.2422-0.85253zm1.5334-9.4179c-1.0722-0.62325-1.6928-2.5264-1.2438-3.8144 0.37616-1.0791 1.8372-2.1361 2.9525-2.1361s2.5764 1.057 2.9525 2.1361c0.46134 1.3234-0.19255 3.2337-1.312 3.8328-0.90048 0.48193-2.5038 0.47314-3.3493-0.0183zm-32.158-7.3182c-1.6626-1.0361-2.8766-2.5136-3.9488-4.8059-0.90491-1.9346-0.99006-2.4657-0.98979-6.1736 2.6e-4 -3.6296 0.0965-4.2613 0.91375-5.9972 1.8766-3.9861 4.3833-5.8523 7.4632-5.5564 5.9106 0.56794 9.4396 9.7461 6.6323 17.249-0.86826 2.3206-2.7093 4.5784-4.3797 5.3711-1.6454 0.78079-4.3649 0.73908-5.691-0.0873zm1.1082-14.701c2.0459-2.046-0.85209-4.9359-3.2162-3.2072-0.9505 0.69503-0.86745 2.634 0.14805 3.4563 1.0987 0.88969 2.0027 0.81629 3.0682-0.24911zm62.016 14.471c-3.2214-2.1205-4.9123-6.3144-4.6744-11.593 0.54079-11.997 11.604-14.86 15.342-3.9705 0.84108 2.4499 0.82371 7.529-0.0339 9.9054-1.5481 4.2899-3.7091 6.2782-7.0372 6.4748-1.8745 0.11071-2.3535 2e-3 -3.5966-0.81629zm2.1145-14.478c0.88753-0.88753 0.70158-2.5079-0.36823-3.2089-0.82633-0.54143-1.0196-0.55032-1.8521-0.0852-0.59086 0.33012-0.97125 0.88006-1.0441 1.5095-0.21872 1.8892 1.9656 3.0834 3.2644 1.7846z" fill="#a19f9e"/>
<path d="m150.24 248.6c-0.65379-0.72243-0.77038-2.5805-0.22578-3.5981 0.19694-0.36798 1.0544-1.1481 1.9054-1.7336 0.98015-0.67437 1.8511-1.6814 2.376-2.7473l0.82864-1.6828 0.0993-25.312c0.0889-22.644 0.0418-25.312-0.44616-25.312-0.67903 0-1.7717 1.7391-2.5489 4.0569-0.50974 1.5201-0.61866 4.1784-0.78815 19.235l-0.19668 17.471-1.1573 2.3497c-2.6342 5.3482-8.5736 8.4467-16.355 8.532-2.8818 0.0316-3.5145-0.0653-4.1451-0.63476-1.5528-1.4021-0.79246-2.9942 2.1359-4.4725 3.0664-1.5479 5.4057-3.8562 6.2822-6.1989 0.65675-1.7553 0.73775-3.04 0.94843-15.043 0.19743-11.248 0.15703-13.185-0.28258-13.549-0.40173-0.33271-1.2359-0.30654-3.8476 0.12076-4.2179 0.69008-12.55 0.47678-15.682-0.40144-7.4593-2.0918-12.817-6.5008-17.361-14.288-5.002-8.5716-7.2689-11.162-11.988-13.701-3.9428-2.121-5.3999-3.3784-5.3999-4.6602 0-1.5082 1.5426-2.1897 4.9163-2.1719 6.4983 0.0342 12.435 3.9052 17.412 11.354 3.4115 5.1053 6.4676 8.0536 10.19 9.8311 1.6144 0.77078 3.7764 1.5745 4.8046 1.786 4.0712 0.83748 9.4711 0.32285 14.339-1.3666 3.1781-1.1029 3.5582-1.4624 4.3775-4.1399 1.0183-3.3283 3.5829-7.663 5.9536-10.063 1.0971-1.1106 1.9047-2.1092 1.7948-2.2191-0.10993-0.10994-2.1646-0.50162-4.5659-0.87041-6.6213-1.0169-10.909-2.0205-16.537-3.8711-12.985-4.2695-21.779-10.681-28.016-20.426l-1.6606-2.5948-3.9472 0.22981c-20.353 1.1849-38.182 3.7354-50.986 7.2935-2.4664 0.68538-3.3986 0.67883-2.679-0.0188 0.4186-0.40581 9.1587-2.5288 15.146-3.6789 10.582-2.0328 22.594-3.5002 34.17-4.1743 4.6382-0.27008 7.4141-0.5716 7.5077-0.81549 0.08168-0.21284-0.24545-1.2778-0.72693-2.3665l-0.87543-1.9795-2.399-0.25888c-2.9408-0.31735-22.281 0.0589-28.328 0.55114-6.8497 0.55756-13.42 1.3416-19.521 2.3293-5.0879 0.82376-6.3899 0.88655-5.7822 0.27882 0.36147-0.36147 9.6547-1.8305 16.335-2.5822 9.442-1.0624 16.803-1.433 28.499-1.4348l10.535-2e-3 -0.17764-0.97014c-0.0977-0.53358-0.58605-2.515-1.0852-4.4031-1.7045-6.4475-2.1499-10.614-2.1597-20.203-0.0096-9.4785 0.2694-11.751 2.1439-17.463 1.347-4.1042 4.4913-10.104 7.0258-13.406 3.6864-4.8026 3.429-4.2591 2.8263-5.9673-1.1597-3.2868-1.7313-7.5587-1.7036-12.73 0.0305-5.6712 0.51299-8.7144 2.285-14.411 1.3401-4.3079 1.5612-4.4732 5.521-4.1257 7.2397 0.63523 16.708 4.5327 26.86 11.056l2.9871 1.9194 4.0685-0.9197c10.222-2.3108 15.571-2.8682 27.352-2.8507 10.614 0.0158 14.483 0.37405 23.287 2.1564l4.5897 0.92922 2.4659-1.5751c9.7965-6.2578 19.221-10.091 26.347-10.716 3.9493-0.34649 4.1725-0.17963 5.52 4.1265 1.693 5.4105 2.2536 8.9988 2.2791 14.587 0.02 4.3732-0.59185 9.5621-1.365 11.577-0.0974 0.25374 0.76465 1.5281 1.9156 2.8318 5.87 6.6494 9.4312 13.781 11.39 22.809 0.72001 3.3185 0.80294 4.6407 0.79653 12.7-8e-3 9.5349-0.59417 16.294-1.8823 21.689-0.36968 1.5482-0.59655 2.9373-0.50416 3.0868 0.0924 0.1495 5.2934 0.27181 11.558 0.27181 12.233 0 18.948 0.33542 28.934 1.4452 6.6389 0.73781 15.969 2.2077 16.335 2.5734 0.60807 0.60807-0.69488 0.54458-5.7822-0.28175-6.3451-1.0306-12.596-1.7735-19.521-2.32-6.701-0.52883-23.793-0.86393-28.279-0.55441l-3.7612 0.25951-0.79207 2.118c-0.96136 2.5706-0.80577 2.7426 2.4937 2.7554 8.7384 0.0339 27.907 2.186 39.688 4.456 6.0107 1.1582 14.729 3.2774 15.146 3.6816 0.71964 0.69764-0.21256 0.70419-2.679 0.0188-13.191-3.6655-36.442-6.9072-51.592-7.1933l-4.2004-0.0793-1.7969 3.0251c-2.5493 4.2919-4.0284 6.1873-7.1623 9.178-8.2649 7.8874-20.855 12.7-39.173 14.973-1.0186 0.12644-1.8521 0.33452-1.8521 0.46239 0 0.12788 1.1012 1.3783 2.4472 2.7786 1.7106 1.7798 2.8819 3.4252 3.8917 5.467 2.603 5.2635 2.5287 4.5593 2.8416 26.91 0.30347 21.673 0.3098 21.742 2.2702 24.848 1.0245 1.623 3.3036 3.6775 5.0907 4.5892 2.6963 1.3756 3.2953 3.4139 1.3621 4.6353-1.0104 0.63841-1.5087 0.69942-4.1975 0.51401-7.6674-0.52872-13.045-3.5031-15.558-8.6053l-1.1465-2.3277-0.2029-17.118c-0.21485-18.125-0.23433-18.335-2.004-21.616-1.9056-3.5328-1.8823-3.8318-1.7682 22.754 0.12224 28.477-0.0521 26.959 3.4768 30.263 2.3066 2.1592 2.6714 3.4197 1.4327 4.9494-1.4587 1.8014-6.677 1.117-11.223-1.4722-2.5252-1.4381-5.5182-4.772-6.5263-7.2697l-0.82367-2.0407 0.12597-25.617c0.0922-18.746 0.0179-25.819-0.27699-26.37-0.4614-0.86212-2.1723-1.0374-2.7956-0.28641-0.27145 0.32708-0.41617 8.3146-0.48417 26.723l-0.097 26.256-0.95105 2.0294c-2.4386 5.2036-8.5871 9.0831-14.395 9.0831-1.8379 0-2.4886-0.14264-2.9434-0.64514zm-26.76-56.928c0.23284-0.23283 0.42334-0.7035 0.42334-1.0459 0-1.3705-2.9042-1.7957-3.6686-0.53712-0.76462 1.259 2.1483 2.68 3.2452 1.583zm8.1139 0c1.2449-1.2449-0.50312-2.8937-2.2324-2.1058-1.2032 0.54822-1.5052 1.4516-0.68555 2.051 0.80942 0.59186 2.3519 0.62084 2.918 0.0548zm6.3537-2.8671c0.12124-1.4347-0.49602-1.7407-1.4954-0.74128-0.72666 0.72665-0.7028 1.4409 0.063 1.8862 0.95278 0.55395 1.3132 0.26588 1.4324-1.1449zm-22.011 0.95967c1.4647-0.56207 0.0124-2.9609-1.7927-2.9609-2.0211 0-1.0892 2.9396 0.99896 3.1511 0.12966 0.0131 0.48684-0.0725 0.79375-0.19025zm-5.9972-4.9389c1.4224-0.54581-0.0818-3.473-1.6685-3.2472-1.2034 0.17129-1.2262 1.7805-0.0384 2.7148 1.0794 0.84909 0.97027 0.81504 1.7069 0.53236zm-4.4483-7.0872c0.0855-0.88101-0.0843-1.2486-0.79103-1.7116-0.49497-0.32431-1.1393-0.49782-1.4318-0.38556-0.76703 0.29433-0.65389 1.8681 0.19535 2.7174 1.0208 1.0208 1.8941 0.75366 2.0275-0.62022zm-4.4066-4.829c0.29298-0.76348-0.76377-1.9808-1.7195-1.9808-0.61612 0-0.86194 0.19404-0.86194 0.68035 0 1.3859 2.1358 2.4618 2.5815 1.3004zm-4.6981-4.0737c0-0.78201-1.2982-1.3362-1.8462-0.78808-0.58728 0.58728-0.01491 1.4699 0.95323 1.4699 0.64745 0 0.89302-0.18748 0.89302-0.68179zm94.209-4.9871c9.855-0.78345 16.177-2.2419 22.055-5.088 10.507-5.0873 15.693-14.519 15.809-28.754 0.0484-5.9241-0.40618-8.1058-2.5903-12.432-3.7634-7.4546-9.8652-12.695-16.947-14.554-3.6107-0.9478-12.733-1.0829-22.938-0.33961-10.941 0.79683-21.406 0.79551-32.624-4e-3 -10.89-0.77623-18.731-0.60874-22.931 0.48977-4.7222 1.2354-7.0194 2.5713-10.609 6.1692-6.9988 7.0159-9.6376 14.109-8.6771 23.323 0.51138 4.9059 1.7537 9.2999 3.6835 13.029 1.8543 3.5828 6.6503 8.5611 10.333 10.726 6.6417 3.904 16.308 6.449 28.2 7.4244 5.295 0.43431 31.812 0.44206 37.236 0.0109zm-23.477-6.11c-2.3904-1.0443-4.443-3.6397-3.9318-4.9718 0.33608-0.8758 0.86687-0.6206 1.8737 0.90089 2.4456 3.6955 7.3511 3.6409 9.833-0.10948 0.4995-0.75479 1.0976-1.31 1.3291-1.2338 1.5034 0.49482-0.51066 3.9418-3.0101 5.1517-1.7745 0.85903-4.4632 0.97481-6.0939 0.26242zm0.98837-9.9174c-1.4986-1.0496-1.2108-4.2628 0.43854-4.8957 1.6403-0.62945 3.1802-0.13179 3.9002 1.2605 1.0586 2.0471-0.21506 4.1648-2.5049 4.1648-0.59275 0-1.418-0.23832-1.8338-0.52961zm-30.974-6.6988c-2.1726-0.76162-4.2616-3.287-5.1567-6.2338-0.59936-1.9733-0.71787-3.1084-0.60172-5.7638 0.12789-2.9241 0.2857-3.5811 1.364-5.6792 1.6125-3.1375 3.234-4.4412 5.7868-4.6529 2.4968-0.20706 4.5735 0.9301 6.131 3.3573 4.2169 6.5714 1.8841 17.469-4.0949 19.13-1.6274 0.45198-1.7 0.44865-3.4286-0.15735zm0.26459-14.564c0.84689-0.74367 0.79854-2.721-0.0882-3.6078-0.84402-0.84403-2.3688-0.91316-3.4493-0.15639-0.57559 0.40317-0.78405 0.90449-0.78405 1.8856 0 2.4765 2.4351 3.535 4.3215 1.8785zm62.883 14.436c-2.9498-1.4033-4.8348-4.4013-5.4358-8.6449-1.0164-7.1772 2.635-13.632 7.7115-13.632 5.3004 0 9.1182 7.952 7.2827 15.169-1.4688 5.7759-5.7172 8.9349-9.5584 7.1075zm1.2347-14.516c1.0151-1.0151 0.91328-2.6076-0.22396-3.5022-0.51124-0.40214-1.1248-0.73116-1.3635-0.73116s-0.8523 0.32902-1.3635 0.73116c-1.7143 1.3485-0.78775 4.2077 1.3635 4.2077 0.48507 0 1.1994-0.3175 1.5875-0.70555z" fill="#a95f54"/>
<path d="m150.24 248.6c-0.65379-0.72243-0.77038-2.5805-0.22578-3.5981 0.19694-0.36798 1.0544-1.1481 1.9054-1.7336 0.98015-0.67437 1.8511-1.6814 2.376-2.7473l0.82864-1.6828 0.0993-25.312c0.0889-22.644 0.0418-25.312-0.44616-25.312-0.67903 0-1.7717 1.7391-2.5489 4.0569-0.50974 1.5201-0.61866 4.1784-0.78815 19.235l-0.19668 17.471-1.1573 2.3497c-2.6342 5.3482-8.5736 8.4467-16.355 8.532-2.8818 0.0316-3.5145-0.0653-4.1451-0.63476-1.5528-1.4021-0.79246-2.9942 2.1359-4.4725 3.0664-1.5479 5.4057-3.8562 6.2822-6.1989 0.65675-1.7553 0.73775-3.04 0.94843-15.043 0.19743-11.248 0.15703-13.185-0.28258-13.549-0.40173-0.33271-1.2359-0.30654-3.8476 0.12076-4.2179 0.69008-12.55 0.47678-15.682-0.40144-7.4593-2.0918-12.817-6.5008-17.361-14.288-5.002-8.5716-7.2689-11.162-11.988-13.701-3.9428-2.121-5.3999-3.3784-5.3999-4.6602 0-1.5082 1.5426-2.1897 4.9163-2.1719 6.4983 0.0342 12.435 3.9052 17.412 11.354 3.4115 5.1053 6.4676 8.0536 10.19 9.8311 1.6144 0.77078 3.7764 1.5745 4.8046 1.786 4.0712 0.83748 9.4711 0.32285 14.339-1.3666 3.1781-1.1029 3.5582-1.4624 4.3775-4.1399 1.0183-3.3283 3.5829-7.663 5.9536-10.063 1.0971-1.1106 1.9047-2.1092 1.7948-2.2191-0.10993-0.10994-2.1646-0.50162-4.5659-0.87041-6.6213-1.0169-10.909-2.0205-16.537-3.8711-12.985-4.2695-21.779-10.681-28.016-20.426l-1.6606-2.5948-3.9472 0.22981c-20.353 1.1849-38.182 3.7354-50.986 7.2935-2.4664 0.68538-3.3986 0.67883-2.679-0.0188 0.4186-0.40581 9.1587-2.5288 15.146-3.6789 10.582-2.0328 22.594-3.5002 34.17-4.1743 4.6382-0.27008 7.4141-0.5716 7.5077-0.81549 0.08168-0.21284-0.24545-1.2778-0.72693-2.3665l-0.87543-1.9795-2.399-0.25888c-2.9408-0.31735-22.281 0.0589-28.328 0.55114-6.8497 0.55756-13.42 1.3416-19.521 2.3293-5.0879 0.82376-6.3899 0.88655-5.7822 0.27882 0.36147-0.36147 9.6547-1.8305 16.335-2.5822 9.442-1.0624 16.803-1.433 28.499-1.4348l10.535-2e-3 -0.17764-0.97014c-0.0977-0.53358-0.58605-2.515-1.0852-4.4031-1.7045-6.4475-2.1499-10.614-2.1597-20.203-0.0096-9.4785 0.2694-11.751 2.1439-17.463 1.347-4.1042 4.4913-10.104 7.0258-13.406 3.6864-4.8026 3.429-4.2591 2.8263-5.9673-1.1597-3.2868-1.7313-7.5587-1.7036-12.73 0.0305-5.6712 0.51299-8.7144 2.285-14.411 1.3401-4.3079 1.5612-4.4732 5.521-4.1257 7.2397 0.63523 16.708 4.5327 26.86 11.056l2.9871 1.9194 4.0685-0.9197c10.222-2.3108 15.571-2.8682 27.352-2.8507 10.614 0.0158 14.483 0.37405 23.287 2.1564l4.5897 0.92922 2.4659-1.5751c9.7965-6.2578 19.221-10.091 26.347-10.716 3.9493-0.34649 4.1725-0.17963 5.52 4.1265 1.693 5.4105 2.2536 8.9988 2.2791 14.587 0.02 4.3732-0.59185 9.5621-1.365 11.577-0.0974 0.25374 0.76465 1.5281 1.9156 2.8318 5.87 6.6494 9.4312 13.781 11.39 22.809 0.72001 3.3185 0.80294 4.6407 0.79653 12.7-8e-3 9.5349-0.59417 16.294-1.8823 21.689-0.36968 1.5482-0.59655 2.9373-0.50416 3.0868 0.0924 0.1495 5.2934 0.27181 11.558 0.27181 12.233 0 18.948 0.33542 28.934 1.4452 6.6389 0.73781 15.969 2.2077 16.335 2.5734 0.60807 0.60807-0.69488 0.54458-5.7822-0.28175-6.3451-1.0306-12.596-1.7735-19.521-2.32-6.701-0.52883-23.793-0.86393-28.279-0.55441l-3.7612 0.25951-0.79207 2.118c-0.96136 2.5706-0.80577 2.7426 2.4937 2.7554 8.7384 0.0339 27.907 2.186 39.688 4.456 6.0107 1.1582 14.729 3.2774 15.146 3.6816 0.71964 0.69764-0.21256 0.70419-2.679 0.0188-13.191-3.6655-36.442-6.9072-51.592-7.1933l-4.2004-0.0793-1.7969 3.0251c-2.5493 4.2919-4.0284 6.1873-7.1623 9.178-8.2649 7.8874-20.855 12.7-39.173 14.973-1.0186 0.12644-1.8521 0.33452-1.8521 0.46239 0 0.12788 1.1012 1.3783 2.4472 2.7786 1.7106 1.7798 2.8819 3.4252 3.8917 5.467 2.603 5.2635 2.5287 4.5593 2.8416 26.91 0.30347 21.673 0.3098 21.742 2.2702 24.848 1.0245 1.623 3.3036 3.6775 5.0907 4.5892 2.6963 1.3756 3.2953 3.4139 1.3621 4.6353-1.0104 0.63841-1.5087 0.69942-4.1975 0.51401-7.6674-0.52872-13.045-3.5031-15.558-8.6053l-1.1465-2.3277-0.2029-17.118c-0.21485-18.125-0.23433-18.335-2.004-21.616-1.9056-3.5328-1.8823-3.8318-1.7682 22.754 0.12224 28.477-0.0521 26.959 3.4768 30.263 2.3066 2.1592 2.6714 3.4197 1.4327 4.9494-1.4587 1.8014-6.677 1.117-11.223-1.4722-2.5252-1.4381-5.5182-4.772-6.5263-7.2697l-0.82367-2.0407 0.12597-25.617c0.0922-18.746 0.0179-25.819-0.27699-26.37-0.4614-0.86212-2.1723-1.0374-2.7956-0.28641-0.27145 0.32708-0.41617 8.3146-0.48417 26.723l-0.097 26.256-0.95105 2.0294c-2.4386 5.2036-8.5871 9.0831-14.395 9.0831-1.8379 0-2.4886-0.14264-2.9434-0.64514zm-26.76-56.928c0.23284-0.23283 0.42334-0.7035 0.42334-1.0459 0-1.3705-2.9042-1.7957-3.6686-0.53712-0.76462 1.259 2.1483 2.68 3.2452 1.583zm8.1139 0c1.2449-1.2449-0.50312-2.8937-2.2324-2.1058-1.2032 0.54822-1.5052 1.4516-0.68555 2.051 0.80942 0.59186 2.3519 0.62084 2.918 0.0548zm6.3537-2.8671c0.12124-1.4347-0.49602-1.7407-1.4954-0.74128-0.72666 0.72665-0.7028 1.4409 0.063 1.8862 0.95278 0.55395 1.3132 0.26588 1.4324-1.1449zm-22.011 0.95967c1.4647-0.56207 0.0124-2.9609-1.7927-2.9609-2.0211 0-1.0892 2.9396 0.99896 3.1511 0.12966 0.0131 0.48684-0.0725 0.79375-0.19025zm-5.9972-4.9389c1.4224-0.54581-0.0818-3.473-1.6685-3.2472-1.2034 0.17129-1.2262 1.7805-0.0384 2.7148 1.0794 0.84909 0.97027 0.81504 1.7069 0.53236zm-4.4483-7.0872c0.0855-0.88101-0.0843-1.2486-0.79103-1.7116-0.49497-0.32431-1.1393-0.49782-1.4318-0.38556-0.76703 0.29433-0.65389 1.8681 0.19535 2.7174 1.0208 1.0208 1.8941 0.75366 2.0275-0.62022zm-4.4066-4.829c0.29298-0.76348-0.76377-1.9808-1.7195-1.9808-0.61612 0-0.86194 0.19404-0.86194 0.68035 0 1.3859 2.1358 2.4618 2.5815 1.3004zm-4.6981-4.0737c0-0.78201-1.2982-1.3362-1.8462-0.78808-0.58728 0.58728-0.01491 1.4699 0.95323 1.4699 0.64745 0 0.89302-0.18748 0.89302-0.68179zm89.573-4.6229c15.563-0.81619 24.466-3.0681 31.24-7.9017 7.4477-5.3146 11.47-14.854 11.477-27.218 4e-3 -8.1363-2.8347-14.352-9.4332-20.654-6.4792-6.1879-13.361-7.4852-32.369-6.1023-11.182 0.81357-23.248 0.81151-34.572-6e-3 -18.604-1.3429-25.596-3.4e-4 -32.059 6.1559-4.582 4.3647-7.6446 9.3877-8.8554 14.524-0.67227 2.8517-0.68 8.3933-0.0174 12.464 2.3118 14.203 11.303 22.663 28.069 26.412 10.616 2.3735 28.537 3.2698 46.52 2.3267z" fill="#5f5f5f"/>
<path d="m150.68 248.15c-1.0292-1.0292-0.68368-2.6836 0.80264-3.8438 2.174-1.697 3.1113-2.903 3.64-4.6834 0.45349-1.5271 0.53296-5.5164 0.53296-26.757 0-18.591-0.10471-25.027-0.41021-25.216-0.62308-0.38509-2.2247 1.6279-3.1549 3.965-0.81095 2.0377-0.82598 2.3187-1.0354 19.354-0.12937 10.524-0.35674 17.704-0.5812 18.354-1.7158 4.9717-5.7931 8.2366-11.848 9.4873-3.6054 0.74472-8.1305 0.74598-8.874 2e-3 -1.163-1.163-0.27468-2.5652 2.4012-3.7903 3.7595-1.7212 6.2124-4.748 6.895-8.5084 0.22395-1.2336 0.38-7.1194 0.38-14.332 0-14.145 0.18304-13.393-3.0922-12.695-3.6582 0.77932-11.554 0.89218-14.917 0.2132-5.8909-1.1894-10.513-3.6595-14.299-7.6409-2.3215-2.4416-3.4305-4.0524-6.8926-10.011-2.8941-4.981-6.392-8.6291-10.341-10.784-6.5728-3.5878-6.8232-5.9616-0.6303-5.9741 6.2321-0.0126 12.423 3.886 16.8 10.579 0.95117 1.4546 2.2151 3.2658 2.8088 4.0248l1.0794 1.3799-0.95137-0.23878c-1.2467-0.31291-2.5166 0.84576-2.1864 1.9949 0.31718 1.1036 1.8198 2.3632 2.819 2.3632 1.0074 0 1.7205-1.119 1.3856-2.1742-0.27753-0.87441-0.0465-0.76282 2.3977 1.1583 2.0879 1.6411 4.7023 2.8908 7.6747 3.6685 4.5469 1.1897 12.707 0.19708 17.233-2.0964 1.5871-0.80423 1.6833-0.944 2.6102-3.7902 1.2177-3.7391 4.0099-8.3004 6.2755-10.251 0.96293-0.82926 1.7509-1.6964 1.751-1.9271 9e-5 -0.23357-0.74217-0.51898-1.6755-0.64424-23.834-3.1986-38.745-10.722-47.36-23.895-1.2372-1.8918-2.3783-3.4396-2.536-3.4396-0.15764 0-0.28661-0.30704-0.28661-0.68231 0-0.90119-1.77-4.9621-2.1628-4.9621-0.16867 0-0.30709-0.35718-0.30762-0.79375-3.53e-4 -0.43656-0.46645-2.6351-1.0354-4.8857-1.5817-6.2569-2.1549-10.755-2.3781-18.662-0.16317-5.7802-0.08453-8.0411 0.39175-11.263 1.2791-8.6531 4.5878-16.198 10.067-22.956 1.4657-1.8078 2.0951-2.8693 1.9871-3.3514-0.0869-0.38806-0.48639-1.8962-0.88782-3.3514-1.715-6.217-1.6112-14.457 0.27585-21.912 1.457-5.7558 1.8509-6.5722 3.3023-6.8445 1.8776-0.35224 6.699 0.4631 10.984 1.8575 4.5619 1.4845 12.187 5.2361 17.567 8.6429 2.0681 1.3097 4.0001 2.3812 4.2933 2.3812 0.2932 0 2.173-0.39476 4.1773-0.87724 15.271-3.676 33.281-3.9142 50.069-0.66219l4.7966 0.92915 4.1992-2.5754c8.634-5.2953 17.229-8.7935 23.433-9.5377 4.8353-0.58001 5.001-0.48025 6.3135 3.8015 2.7147 8.8565 3.0201 17.322 0.92101 25.531-0.19653 0.76859 0.13702 1.3444 2.1457 3.7042 4.4988 5.285 7.4768 10.463 9.4843 16.492 2.0923 6.2832 2.464 9.1892 2.4216 18.934-0.0396 9.0945-0.58841 15.285-1.8797 21.202-0.38739 1.7749-0.61216 3.3763-0.49952 3.5586 0.11266 0.18227-0.0317 0.59921-0.32087 0.92654-0.28913 0.32732-0.79807 1.5476-1.131 2.7118-0.33291 1.1642-0.74011 2.3548-0.9049 2.6458-0.16478 0.29104-0.95334 1.7198-1.7523 3.175-7.526 13.707-21.755 21.111-46.467 24.178-1.0184 0.12641-1.938 0.3695-2.0435 0.54021-0.1055 0.17071 0.97147 1.4737 2.3933 2.8955 1.8022 1.8022 3.0259 3.4343 4.0407 5.3892 2.7252 5.2499 2.6568 4.6091 2.9173 27.322 0.14468 12.612 0.37258 20.686 0.6025 21.346 1.295 3.7176 3.3918 6.3042 6.6414 8.1929 0.97014 0.56385 2.002 1.4603 2.2931 1.9922 0.49716 0.90848 0.47879 1.0084-0.30366 1.6511-1.7104 1.4051-9.1076 0.57045-13.255-1.4955-3.4693-1.7282-5.7923-4.3333-7.0131-7.8644-0.22408-0.64813-0.45436-7.6596-0.58545-17.825-0.20566-15.948-0.25309-16.868-0.98241-19.05-0.87993-2.633-2.6208-4.9847-3.2428-4.3806-0.28373 0.27552-0.36454 7.2994-0.2902 25.224 0.11886 28.661-0.0946 26.811 3.5043 30.366 2.1982 2.1711 2.487 3.0448 1.3741 4.1577-1.0494 1.0494-2.9636 1.2579-5.3802 0.58607-4.9922-1.388-9.3263-4.6156-11.13-8.2889l-0.97183-1.9789-0.0969-26.351-0.0968-26.351-0.92872-0.73053c-0.91625-0.72073-1.9594-0.70392-2.7581 0.0444-0.22598 0.21173-0.41617 9.805-0.52916 26.691l-0.17639 26.361-1.1408 2.3166c-1.9868 4.0347-5.7898 6.9536-10.797 8.2868-2.722 0.72476-4.6753 0.63726-5.5617-0.24914zm-18.572-56.328c0.80508-0.70695 0.78013-1.3283-0.0882-2.1966-1.3718-1.3717-4.2333-0.51207-4.2333 1.2718 0 0.65484 0.29235 1.0053 1.1465 1.3744 1.2427 0.53698 2.2071 0.40045 3.175-0.44951zm-8.0486-0.0547c1.1768-1.3004-0.18749-2.984-2.3679-2.922-3.09 0.0879-2.4552 3.6023 0.65067 3.6023 0.63987 0 1.3596-0.28511 1.7172-0.68027zm13.887-1.507c0.23284-0.23283 0.42334-1.0266 0.42334-1.7639 0-1.1842-0.0999-1.3406-0.85675-1.3406-1.0898 0-1.9655 0.86783-1.9655 1.9479 0 1.2669 1.5441 2.0113 2.3989 1.1565zm-21.298-0.48381c0.77788-0.77787 0.6919-1.4568-0.31154-2.4603-1.1018-1.1018-3.1627-1.2021-3.7094-0.18052-1.0406 1.9444 2.4349 4.2269 4.021 2.6408zm-10.717-11.119c0.29511-0.55141 0.28603-0.99999-0.036-1.7774-1.1248-2.7154-4.454-1.9903-3.448 0.75105 0.65411 1.7826 2.749 2.3997 3.484 1.0263zm-4.4311-5.5991c0.26584-0.83761-0.2967-1.983-1.2154-2.4747-0.9187-0.49168-1.2814-0.45532-1.9302 0.1935-0.71864 0.71864-0.70048 0.92861 0.17679 2.0439 0.90678 1.1528 2.6344 1.2909 2.9688 0.23729zm-4.6327-3.6086c0.2858-0.45602 0.21902-0.76793-0.28323-1.3229-1.2475-1.3785-3.5142-0.54998-2.693 0.98438 0.65624 1.2262 2.3026 1.4135 2.9763 0.33853zm96.937-5.3633c13.832-1.5433 21.441-4.5926 27.41-10.984 5.2306-5.6009 7.8276-13.608 7.8143-24.092-6e-3 -4.943-0.58909-7.6868-2.4487-11.528-2.7745-5.7306-7.5398-10.794-12.44-13.218-5.8339-2.8859-12.989-3.4494-29.027-2.2859-9.7674 0.70859-20.978 0.69749-31.397-0.0311-10.812-0.75605-19.593-0.5732-23.566 0.49077-4.2601 1.1408-7.4093 2.9739-10.685 6.2195-4.5394 4.4972-7.1639 8.914-8.4426 14.208-0.89014 3.6853-0.57912 11.287 0.65599 16.034 2.2289 8.5657 7.7874 15.338 15.951 19.434 6.646 3.3346 17.741 5.6289 30.849 6.3793 5.765 0.33 30.72-0.11262 35.326-0.62657z" fill="#1f1e1e"/>
</g>
</g>
</svg>
