<?xml version="1.0" encoding="UTF-8" standalone="no"?>
<svg
   xmlns:dc="http://purl.org/dc/elements/1.1/"
   xmlns:cc="http://creativecommons.org/ns#"
   xmlns:rdf="http://www.w3.org/1999/02/22-rdf-syntax-ns#"
   xmlns:svg="http://www.w3.org/2000/svg"
   xmlns="http://www.w3.org/2000/svg"
   xmlns:sodipodi="http://sodipodi.sourceforge.net/DTD/sodipodi-0.dtd"
   xmlns:inkscape="http://www.inkscape.org/namespaces/inkscape"
   height="287.99969pt"
   viewBox="-80 0 287.99967 288.08664"
   width="287.99966pt"
   version="1.1"
   id="svg16"
   sodipodi:docname="Help.svg"
   inkscape:version="0.92.4 (5da689c313, 2019-01-14)">
  <metadata
     id="metadata22">
    <rdf:RDF>
      <cc:Work
         rdf:about="">
        <dc:format>image/svg+xml</dc:format>
        <dc:type
           rdf:resource="http://purl.org/dc/dcmitype/StillImage" />
        <dc:title />
      </cc:Work>
    </rdf:RDF>
  </metadata>
  <defs
     id="defs20" />
  <sodipodi:namedview
     pagecolor="#ffffff"
     bordercolor="#666666"
     borderopacity="1"
     objecttolerance="10"
     gridtolerance="10"
     guidetolerance="10"
     inkscape:pageopacity="0"
     inkscape:pageshadow="2"
     inkscape:window-width="1503"
     inkscape:window-height="861"
     id="namedview18"
     showgrid="false"
     inkscape:zoom="1.24"
     inkscape:cx="102.08951"
     inkscape:cy="148.73062"
     inkscape:window-x="0"
     inkscape:window-y="0"
     inkscape:window-maximized="0"
     inkscape:current-layer="svg16" />
  <g
     id="g837"
     transform="matrix(0.44879471,0,0,0.44879471,20.940445,29.116706)"
     style="stroke-width:2.22819018">
    <g
       id="g827"
       style="stroke-width:2.22819018">
      <path
         d="M 191.91653,384.15672 H -0.08346503 v -16 c -0.304687,-25.83203 -10.83984297,-50.48438 -29.29296797,-68.5625 -68.171875,-69.10938 -67.511719,-180.36328 1.46875,-248.664065 68.984376,-68.296876 180.238273,-67.847657 248.667963,1.003906 68.42578,68.855469 68.1875,180.113279 -0.53906,248.667969 -18.10156,17.81641 -28.29688,42.15235 -28.30469,67.55469 z m 0,0"
         id="path2"
         inkscape:connector-curvature="0"
         style="fill:#ffcb5a;stroke-width:2.22819018" />
      <path
         d="M 15.916535,416.15672 H 175.91653 c 8.83985,0 16,7.16016 16,16 0,8.83594 -7.16015,16 -16,16 H 15.916535 c -8.835937,0 -16.00000003,-7.16406 -16.00000003,-16 0,-8.83984 7.16406303,-16 16.00000003,-16 z m 0,0"
         id="path4"
         inkscape:connector-curvature="0"
         style="fill:#62808c;stroke-width:2.22819018" />
      <path
         d="m 47.916533,480.15672 h 95.999997 c 8.83985,0 16,7.16016 16,16 0,8.83594 -7.16015,16 -16,16 H 47.916533 c -8.83593,0 -16,-7.16406 -16,-16 0,-8.83984 7.16407,-16 16,-16 z m 0,0"
         id="path6"
         inkscape:connector-curvature="0"
         style="fill:#62808c;stroke-width:2.22819018" />
    </g>
    <g
       transform="translate(-80.153777,4.6701747e-4)"
       style="fill:#ffffff;stroke-width:2.22819018"
       id="g14">
      <path
         inkscape:connector-curvature="0"
         id="path8"
         d="m 64.070312,160.15625 h 32 v 32 h -32 z m 0,0"
         style="stroke-width:2.22819018" />
      <path
         inkscape:connector-curvature="0"
         id="path10"
         d="m 128.07031,192.15625 h 32 v 192 h 32 v -192 h 32 v -32 h -96 z m 0,0"
         style="stroke-width:2.22819018" />
      <path
         inkscape:connector-curvature="0"
         id="path12"
         d="m 256.07031,160.15625 h 32 v 32 h -32 z m 0,0"
         style="stroke-width:2.22819018" />
    </g>
  </g>
  <rect
     style="fill:none;fill-opacity:1;stroke:#000000;stroke-width:14.25430298;stroke-linecap:round;stroke-linejoin:round;stroke-miterlimit:3.5999999;stroke-dasharray:none;stroke-opacity:1"
     id="rect40"
     width="273.83231"
     height="273.83234"
     x="-72.925972"
     y="7.1271515"
     ry="22.506794"
     rx="22.506805" />
</svg>
