<?xml version="1.0" encoding="UTF-8"?>
<svg width="288pt" height="288pt" version="1.1" viewBox="-80 0 288 288.09" xmlns="http://www.w3.org/2000/svg" xmlns:cc="http://creativecommons.org/ns#" xmlns:dc="http://purl.org/dc/elements/1.1/" xmlns:rdf="http://www.w3.org/1999/02/22-rdf-syntax-ns#">
<metadata>
<rdf:RDF>
<cc:Work rdf:about="">
<dc:format>image/svg+xml</dc:format>
<dc:type rdf:resource="http://purl.org/dc/dcmitype/StillImage"/>
<dc:title/>
</cc:Work>
</rdf:RDF>
</metadata>
<g transform="matrix(.44879 0 0 .44879 20.94 29.117)" stroke-width="2.2282">
<path d="m191.92 384.16h-192v-16c-0.30469-25.832-10.84-50.484-29.293-68.562-68.172-69.109-67.512-180.36 1.4688-248.66 68.984-68.297 180.24-67.848 248.67 1.0039 68.426 68.855 68.188 180.11-0.53906 248.67-18.102 17.816-28.297 42.152-28.305 67.555z" fill="#ffcb5a"/>
<path d="m15.917 416.16h160c8.8398 0 16 7.1602 16 16 0 8.8359-7.1602 16-16 16h-160c-8.8359 0-16-7.1641-16-16 0-8.8398 7.1641-16 16-16z" fill="#62808c"/>
<path d="m47.917 480.16h96c8.8398 0 16 7.1602 16 16 0 8.8359-7.1602 16-16 16h-96c-8.8359 0-16-7.1641-16-16 0-8.8398 7.1641-16 16-16z" fill="#62808c"/>
<g transform="translate(-80.154 .00046702)" fill="#fff">
<path d="m64.07 160.16h32v32h-32z"/>
<path d="m128.07 192.16h32v192h32v-192h32v-32h-96z"/>
<path d="m256.07 160.16h32v32h-32z"/>
</g>
</g>
<rect x="-72.926" y="7.1272" width="273.83" height="273.83" rx="22.507" ry="22.507" fill="none" stroke="#000" stroke-linecap="round" stroke-linejoin="round" stroke-miterlimit="3.6" stroke-width="14.254"/>
</svg>
