<?xml version="1.0" encoding="UTF-8"?>
<svg width="162.24mm" height="111.34mm" version="1.1" viewBox="0 0 162.24 111.34" xmlns="http://www.w3.org/2000/svg" xmlns:cc="http://creativecommons.org/ns#" xmlns:dc="http://purl.org/dc/elements/1.1/" xmlns:rdf="http://www.w3.org/1999/02/22-rdf-syntax-ns#">
<metadata>
<rdf:RDF>
<cc:Work rdf:about="">
<dc:format>image/svg+xml</dc:format>
<dc:type rdf:resource="http://purl.org/dc/dcmitype/StillImage"/>
<dc:title/>
</cc:Work>
</rdf:RDF>
</metadata>
<g transform="translate(-18.665 -43.27)">
<g transform="matrix(.35278 0 0 .35278 -273.22 -121.67)">
<g transform="matrix(.51721 0 0 .51721 614.85 511.34)" stroke-width="1.9335">
<path d="m565.88 483.92c-5.5628-0.97799-9.2685-3.7529-12.1-9.0606-1.3403-2.5127-1.4163-6.7522-1.7752-99.109-0.3636-93.546-0.4185-96.532-1.8038-98.063-3.4202-3.7786-7.34-0.74985-9.1999 7.1086-1.0597 4.4773-1.2936 13.355-1.7078 64.813-0.4681 58.149-0.519 59.729-2.0567 63.83-4.1276 11.007-11.434 17.508-21.786 19.385-14.847 2.6923-29.812-6.9039-34.447-22.09-1.2885-4.2216-1.3735-8.7453-1.3735-73.125 0-63.426 0.1051-69.222 1.3872-76.5 4.9324-28.001 18.414-47.891 38.858-57.326 11.114-5.1292 6.2788-4.9242 116.13-4.9242 87.595 0 99.732 0.13796 104.84 1.1917 25.589 5.2751 44.339 28.106 50.144 61.058 1.2825 7.2804 1.3872 13.084 1.3872 76.875 0 65.661-0.069 69.2-1.415 73.125-4.1309 12.042-13.182 19.871-25.214 21.809-13.72 2.2096-25.646-5.2881-30.983-19.479-1.5439-4.1054-1.5924-5.6118-2.0547-63.83-0.4091-51.52-0.6406-60.33-1.7033-64.813-1.863-7.8589-5.7824-10.887-9.202-7.1086-1.3852 1.5304-1.4401 4.5169-1.8037 98.063l-0.375 96.484-1.6145 3c-1.871 3.4765-4.0726 5.6326-7.7605 7.5998-2.504 1.3357-5.8239 1.4051-72 1.5068-38.156 0.0586-70.725-0.13081-72.375-0.42089z" stroke-width="1.9335"/>
<circle cx="636.01" cy="104.95" r="77.757"/>
</g>
<text x="1008.6973" y="594.22076" fill="#d40000" font-family="sans-serif" font-size="55.344px" font-weight="bold" letter-spacing="0px" stroke-width=".75" word-spacing="0px" style="font-feature-settings:normal;font-variant-caps:normal;font-variant-ligatures:normal;font-variant-numeric:normal;line-height:1.25" xml:space="preserve"><tspan x="1008.6973" y="594.22076" fill="#d40000" font-family="sans-serif" font-size="55.344px" font-weight="bold" stroke-width=".75" style="font-feature-settings:normal;font-variant-caps:normal;font-variant-ligatures:normal;font-variant-numeric:normal">VS</tspan></text>
<g transform="matrix(.51721 0 0 .51721 841.94 474.78)" stroke-width="1.9335">
<path d="m565.88 483.92c-5.5628-0.97799-9.2685-3.7529-12.1-9.0606-1.3403-2.5127-1.4163-6.7522-1.7752-99.109-0.3636-93.546-0.4185-96.532-1.8038-98.063-3.4202-3.7786-7.34-0.74985-9.1999 7.1086-1.0597 4.4773-1.2936 13.355-1.7078 64.813-0.4681 58.149-0.519 59.729-2.0567 63.83-4.1276 11.007-11.434 17.508-21.786 19.385-14.847 2.6923-29.812-6.9039-34.447-22.09-1.2885-4.2216-1.3735-8.7453-1.3735-73.125 0-63.426 0.1051-69.222 1.3872-76.5 4.9324-28.001 18.414-47.891 38.858-57.326 11.114-5.1292 6.2788-4.9242 116.13-4.9242 87.595 0 99.732 0.13796 104.84 1.1917 25.589 5.2751 44.339 28.106 50.144 61.058 1.2825 7.2804 1.3872 13.084 1.3872 76.875 0 65.661-0.069 69.2-1.415 73.125-4.1309 12.042-13.182 19.871-25.214 21.809-13.72 2.2096-25.646-5.2881-30.983-19.479-1.5439-4.1054-1.5924-5.6118-2.0547-63.83-0.4091-51.52-0.6406-60.33-1.7033-64.813-1.863-7.8589-5.7824-10.887-9.202-7.1086-1.3852 1.5304-1.4401 4.5169-1.8037 98.063l-0.375 96.484-1.6145 3c-1.871 3.4765-4.0726 5.6326-7.7605 7.5998-2.504 1.3357-5.8239 1.4051-72 1.5068-38.156 0.0586-70.725-0.13081-72.375-0.42089z" stroke-width="1.9335"/>
<circle cx="636.01" cy="104.95" r="77.757"/>
</g>
</g>
<rect x="19.86" y="44.465" width="159.85" height="108.95" fill="none" opacity=".9" stroke="#000" stroke-dasharray="2.38998123, 4.77996245" stroke-dashoffset="41.326" stroke-linecap="round" stroke-linejoin="round" stroke-width="2.39" style="paint-order:normal"/>
</g>
</svg>
