<?xml version="1.0" encoding="UTF-8" standalone="no"?>
<!-- Created with Inkscape (http://www.inkscape.org/) -->

<svg
   xmlns:dc="http://purl.org/dc/elements/1.1/"
   xmlns:cc="http://creativecommons.org/ns#"
   xmlns:rdf="http://www.w3.org/1999/02/22-rdf-syntax-ns#"
   xmlns:svg="http://www.w3.org/2000/svg"
   xmlns="http://www.w3.org/2000/svg"
   xmlns:sodipodi="http://sodipodi.sourceforge.net/DTD/sodipodi-0.dtd"
   xmlns:inkscape="http://www.inkscape.org/namespaces/inkscape"
   width="162.24074mm"
   height="111.34162mm"
   viewBox="0 0 162.24074 111.34162"
   version="1.1"
   id="svg919"
   inkscape:version="0.92.4 (5da689c313, 2019-01-14)"
   sodipodi:docname="HumanVsBot2.svg">
  <defs
     id="defs913" />
  <sodipodi:namedview
     id="base"
     pagecolor="#ffffff"
     bordercolor="#666666"
     borderopacity="1.0"
     inkscape:pageopacity="0.0"
     inkscape:pageshadow="2"
     inkscape:zoom="1"
     inkscape:cx="238.69927"
     inkscape:cy="118.98078"
     inkscape:document-units="mm"
     inkscape:current-layer="layer1"
     showgrid="false"
     inkscape:window-width="1920"
     inkscape:window-height="1017"
     inkscape:window-x="-8"
     inkscape:window-y="-8"
     inkscape:window-maximized="1" />
  <metadata
     id="metadata916">
    <rdf:RDF>
      <cc:Work
         rdf:about="">
        <dc:format>image/svg+xml</dc:format>
        <dc:type
           rdf:resource="http://purl.org/dc/dcmitype/StillImage" />
        <dc:title></dc:title>
      </cc:Work>
    </rdf:RDF>
  </metadata>
  <g
     inkscape:label="Calque 1"
     inkscape:groupmode="layer"
     id="layer1"
     transform="translate(-19.421293,-68.972047)">
    <g
       id="g1489">
      <path
         inkscape:connector-curvature="0"
         id="path863"
         d="m 116.00063,158.17767 c -0.30926,-0.24446 -0.72367,-0.70675 -0.92092,-1.02732 l -0.35863,-0.58284 -0.0576,-12.4035 c -0.0711,-15.29689 -0.12411,-17.90341 -0.36627,-17.99634 -0.25674,-0.0985 -1.08654,0.15149 -2.13758,0.64402 -3.50831,1.64405 -5.83062,4.76726 -5.83758,7.85079 -0.002,0.75467 0.11444,1.01654 0.45084,1.01654 0.21658,0 1.08077,0.88096 2.00552,2.04444 1.90655,2.39873 4.01601,5.24414 4.01601,5.41714 0,0.37216 -2.51745,9.17843 -2.66843,9.33441 -0.0833,0.0861 -0.34275,0.16276 -0.57645,0.17037 l -0.42491,0.0138 -0.58653,-3.12344 c -0.97032,-5.16731 -1.23427,-5.96432 -2.19912,-6.64018 -0.45681,-0.31998 -0.56381,-0.34494 -1.47654,-0.3444 -0.7389,5.3e-4 -1.09315,0.0546 -1.42207,0.21745 -0.62146,0.30768 -1.50422,1.24562 -1.73085,1.83906 -0.26127,0.68412 -0.18984,1.4739 0.51692,5.71521 0.31513,1.89106 0.57296,3.58006 0.57296,3.75334 0,0.26199 -0.0598,0.327 -0.35494,0.38604 -0.19522,0.0391 -0.42293,0.071 -0.50603,0.071 -0.24899,0 -5.447617,-6.85247 -5.570717,-7.34293 -0.0803,-0.31993 0.36058,-2.11693 1.5093,-6.15182 0.76889,-2.70075 0.93684,-3.12817 1.36004,-3.46106 0.24517,-0.19285 0.26868,-0.29697 0.27029,-1.1968 0.003,-1.48355 0.20948,-4.23301 0.38905,-5.1715 0.565587,-2.95609 2.028097,-5.57535 4.484887,-8.03213 2.58622,-2.58623 4.68052,-3.71942 9.63383,-5.21273 0.78144,-0.23559 1.28872,-0.46048 1.54374,-0.68439 0.2089,-0.18342 0.52848,-0.39137 0.71016,-0.46212 0.38325,-0.14924 5.26837,-0.32133 9.33153,-0.32873 l 2.75431,-0.005 v -0.95599 -0.95598 l -2.52715,-0.0379 c -2.8732,-0.043 -3.12592,-0.10802 -3.79052,-0.97482 -0.44516,-0.58061 -0.47703,-0.80174 -0.60548,-4.20139 -0.0572,-1.51426 -0.13129,-2.79733 -0.16462,-2.85127 -0.0333,-0.0539 -0.48388,-0.1323 -1.00122,-0.17415 -1.02259,-0.0827 -1.44679,-0.28747 -1.57966,-0.76246 -0.0421,-0.15055 -0.0817,-2.0419 -0.0879,-4.20301 -0.0105,-3.637001 0.004,-3.942952 0.1916,-4.112941 0.33659,-0.304599 0.94531,-0.503661 1.79517,-0.587039 l 0.8055,-0.079 0.0783,-3.866469 0.0783,-3.86647 0.39247,-0.59129 c 0.21586,-0.3252 0.52508,-0.6517 0.68716,-0.72555 0.59159,-0.26954 1.90238,-0.35754 6.43795,-0.4322 l 4.62837,-0.0762 -0.001,-0.40747 c -5.3e-4,-0.22411 -0.032,-0.66577 -0.07,-0.981471 -0.067,-0.557199 -0.0869,-0.58337 -0.68007,-0.893949 -0.9275,-0.4856 -1.55266,-1.09779 -1.9442,-1.903861 -1.03477,-2.130199 -0.72475,-4.416089 0.80519,-5.937219 0.85701,-0.85203 1.28491,-1.02673 2.51475,-1.02673 0.86504,0 1.10729,0.0435 1.57548,0.28255 1.08489,0.55407 2.05751,1.99923 2.34675,3.48689 0.3708,1.907209 -0.82216,4.20588 -2.68176,5.16741 l -0.72851,0.37669 -5.3e-4,0.86861 -5.3e-4,0.86861 1.50493,0.066 c 0.82772,0.0363 3.21368,0.0971 5.30216,0.13522 l 3.79722,0.0692 0.36389,0.27755 c 0.20013,0.15265 0.50529,0.4816 0.67813,0.73101 0.55597,0.80226 0.62029,1.32237 0.62029,5.01591 0,2.629931 0.0316,3.382829 0.14197,3.383499 0.0781,5.29e-4 0.57172,0.0503 1.09697,0.110662 1.1422,0.13131 1.41683,0.330668 1.59408,1.157168 0.0696,0.324562 0.12005,2.027211 0.12005,4.0521 v 3.49233 l -0.42592,0.4158 c -0.419,0.40904 -0.44255,0.41634 -1.44814,0.44897 l -1.02222,0.0332 -0.0639,3.06665 c -0.0689,3.30728 -0.10242,3.50179 -0.74966,4.35036 -0.46615,0.61117 -0.88261,0.72189 -3.10496,0.82552 -1.0932,0.051 -2.23042,0.0956 -2.52715,0.0991 l -0.53943,0.006 v 0.90864 0.90864 l 3.77653,0.004 c 4.11149,0.004 7.82021,0.14648 8.26534,0.3174 0.15485,0.0594 0.51371,0.31319 0.79749,0.56388 0.44442,0.3926 0.75406,0.52781 2.23352,0.97531 4.16825,1.26078 6.29976,2.46077 8.7871,4.94692 2.45636,2.45518 3.9192,5.07481 4.4849,8.03146 0.17957,0.93849 0.38641,3.68795 0.38905,5.17149 0.002,0.89984 0.0251,1.00396 0.27029,1.19681 0.42319,0.33289 0.59115,0.7603 1.36004,3.46105 1.14871,4.03489 1.58959,5.8319 1.5093,6.15183 -0.1231,0.49046 -5.32173,7.34293 -5.57072,7.34293 -0.0831,0 -0.31082,-0.0319 -0.50603,-0.071 -0.29516,-0.059 -0.35494,-0.12404 -0.35494,-0.38604 0,-0.17328 0.25783,-1.86228 0.57295,-3.75334 0.70677,-4.2413 0.7782,-5.03108 0.51693,-5.71521 -0.22663,-0.59343 -1.1094,-1.53137 -1.73086,-1.83905 -0.32891,-0.16284 -0.68316,-0.21701 -1.42207,-0.21745 -0.91272,-5.3e-4 -1.01973,0.0244 -1.47653,0.3444 -0.96485,0.67586 -1.22881,1.47287 -2.19912,6.64017 l -0.58653,3.12344 -0.42491,-0.0138 c -0.2337,-0.008 -0.49311,-0.0843 -0.57645,-0.17036 -0.15098,-0.15599 -2.66843,-8.96226 -2.66843,-9.33441 0,-0.173 2.10946,-3.01842 4.01601,-5.41715 0.92475,-1.16346 1.78894,-2.04443 2.00552,-2.04443 0.3364,0 0.45254,-0.26188 0.45084,-1.01654 -0.008,-3.38527 -2.76659,-6.74261 -6.78328,-8.25448 -0.7983,-0.30047 -1.22018,-0.34016 -1.35769,-0.12771 -0.0505,0.0781 -0.11744,6.86305 -0.14868,15.07772 -0.0642,16.89186 0.0397,15.23748 -1.0353,16.4735 l -0.58888,0.67704 h -17.80463 -17.8048 z m 19.6349,-75.003932 c 0.46036,-0.30844 1.07267,-1.18453 1.23409,-1.76572 0.34781,-1.25227 -0.0112,-2.63731 -0.89874,-3.46753 -0.64153,-0.60007 -0.91814,-0.69333 -1.8152,-0.61199 -1.02472,0.0929 -1.7035,0.556 -2.20215,1.50235 -0.19451,0.36915 -0.24092,0.66093 -0.24413,1.53481 -0.004,0.98764 0.0246,1.13052 0.33295,1.68729 0.33291,0.60103 1.00254,1.26579 1.27508,1.26579 0.0773,0 0.19307,-0.0982 0.25733,-0.21831 0.37751,-0.70537 0.80193,-0.74878 1.19733,-0.12243 0.15774,0.24987 0.32971,0.45432 0.38215,0.45432 0.0524,0 0.26903,-0.11636 0.48129,-0.25858 z"
         style="fill:#000000;stroke-width:1" />
      <rect
         y="70.167038"
         x="20.616283"
         height="108.95164"
         width="159.85075"
         id="rect4760-8"
         style="opacity:0.9;fill:none;fill-opacity:1;stroke:#000000;stroke-width:2.38998127;stroke-linecap:round;stroke-linejoin:round;stroke-miterlimit:4;stroke-dasharray:2.38998129, 4.77996257;stroke-dashoffset:41.32597733;stroke-opacity:1;paint-order:normal" />
      <g
         style="stroke-width:1.93346345"
         transform="matrix(0.18245896,0,0,0.18245896,-59.649107,84.905955)"
         id="g4653-6-7">
        <path
           style="fill:#000000;stroke-width:1.93346334"
           d="m 565.88124,483.91659 c -5.5628,-0.97799 -9.2685,-3.75294 -12.0998,-9.06064 -1.3403,-2.51271 -1.4163,-6.75225 -1.7752,-99.10905 -0.3636,-93.54562 -0.4185,-96.53211 -1.8038,-98.06252 -3.4202,-3.77865 -7.34,-0.74985 -9.1999,7.10864 -1.0597,4.47728 -1.2936,13.355 -1.7078,64.8129 -0.4681,58.14894 -0.519,59.72911 -2.0567,63.82963 -4.1276,11.00668 -11.4341,17.50772 -21.7865,19.38499 -14.8474,2.69234 -29.81188,-6.90388 -34.44684,-22.0896 -1.28851,-4.22162 -1.37348,-8.74532 -1.37348,-73.12502 0,-63.42578 0.1051,-69.22164 1.38717,-76.50001 4.93237,-28.00133 18.41405,-47.89064 38.85765,-57.32584 11.1135,-5.12917 6.2788,-4.92417 116.1302,-4.92417 87.5947,0 99.7325,0.13796 104.8441,1.19169 25.5894,5.27509 44.3393,28.10619 50.1437,61.05832 1.2825,7.28045 1.3872,13.08439 1.3872,76.87501 0,65.66104 -0.069,69.19963 -1.415,73.12502 -4.1309,12.04232 -13.1819,19.87099 -25.2137,21.80865 -13.7202,2.20958 -25.6457,-5.28808 -30.9826,-19.47904 -1.5439,-4.10538 -1.5924,-5.61179 -2.0547,-63.82963 -0.4091,-51.52001 -0.6406,-60.33021 -1.7033,-64.8129 -1.863,-7.85889 -5.7824,-10.88663 -9.202,-7.10864 -1.3852,1.53041 -1.4401,4.5169 -1.8037,98.06252 l -0.375,96.48405 -1.6145,3 c -1.871,3.47654 -4.0726,5.63257 -7.7605,7.59977 -2.504,1.33566 -5.8239,1.40514 -72,1.50676 -38.1563,0.0586 -70.725,-0.13081 -72.375,-0.42089 z"
           id="path4588-6-0"
           inkscape:connector-curvature="0" />
        <circle
           style="opacity:1;fill:#000000;fill-opacity:1;stroke:none;stroke-width:18.60910416;stroke-linecap:round;stroke-linejoin:round;stroke-miterlimit:4;stroke-dasharray:none;stroke-opacity:1"
           id="path4612-1-1-3"
           cx="636.00623"
           cy="104.95154"
           r="77.757355" />
      </g>
      <text
         id="text4679-1-3"
         y="114.14472"
         x="79.291801"
         style="font-style:normal;font-variant:normal;font-weight:bold;font-stretch:normal;font-size:19.52416801px;line-height:1.25;font-family:sans-serif;-inkscape-font-specification:'sans-serif, Bold';font-variant-ligatures:normal;font-variant-caps:normal;font-variant-numeric:normal;font-feature-settings:normal;text-align:start;letter-spacing:0px;word-spacing:0px;writing-mode:lr-tb;text-anchor:start;fill:#d40000;fill-opacity:1;stroke:none;stroke-width:0.26458332"
         xml:space="preserve"><tspan
           style="font-style:normal;font-variant:normal;font-weight:bold;font-stretch:normal;font-size:19.52416801px;font-family:sans-serif;-inkscape-font-specification:'sans-serif, Bold';font-variant-ligatures:normal;font-variant-caps:normal;font-variant-numeric:normal;font-feature-settings:normal;text-align:start;writing-mode:lr-tb;text-anchor:start;fill:#d40000;stroke-width:0.26458332"
           y="114.14472"
           x="79.291801"
           id="tspan4677-3-9"
           sodipodi:role="line">VS</tspan></text>
    </g>
  </g>
</svg>
