<?xml version="1.0" encoding="UTF-8" standalone="no"?>
<!-- Created with Inkscape (http://www.inkscape.org/) -->

<svg
   xmlns:dc="http://purl.org/dc/elements/1.1/"
   xmlns:cc="http://creativecommons.org/ns#"
   xmlns:rdf="http://www.w3.org/1999/02/22-rdf-syntax-ns#"
   xmlns:svg="http://www.w3.org/2000/svg"
   xmlns="http://www.w3.org/2000/svg"
   xmlns:sodipodi="http://sodipodi.sourceforge.net/DTD/sodipodi-0.dtd"
   xmlns:inkscape="http://www.inkscape.org/namespaces/inkscape"
   width="162.24074mm"
   height="111.34162mm"
   viewBox="0 0 162.24074 111.34162"
   version="1.1"
   id="svg6085"
   inkscape:version="0.92.4 (5da689c313, 2019-01-14)"
   sodipodi:docname="HumanSingle.svg">
  <defs
     id="defs6079" />
  <sodipodi:namedview
     id="base"
     pagecolor="#ffffff"
     bordercolor="#666666"
     borderopacity="1.0"
     inkscape:pageopacity="0.0"
     inkscape:pageshadow="2"
     inkscape:zoom="0.35"
     inkscape:cx="-154.83191"
     inkscape:cy="144.69508"
     inkscape:document-units="mm"
     inkscape:current-layer="layer1"
     showgrid="false"
     inkscape:window-width="1920"
     inkscape:window-height="1017"
     inkscape:window-x="-8"
     inkscape:window-y="-8"
     inkscape:window-maximized="1" />
  <metadata
     id="metadata6082">
    <rdf:RDF>
      <cc:Work
         rdf:about="">
        <dc:format>image/svg+xml</dc:format>
        <dc:type
           rdf:resource="http://purl.org/dc/dcmitype/StillImage" />
        <dc:title></dc:title>
      </cc:Work>
    </rdf:RDF>
  </metadata>
  <g
     inkscape:label="Calque 1"
     inkscape:groupmode="layer"
     id="layer1"
     transform="translate(-23.957014,-75.775621)">
    <g
       id="g4653-0-1"
       transform="matrix(0.18245896,0,0,0.18245896,-10.967656,84.778695)"
       style="stroke-width:1.93346345">
      <path
         inkscape:connector-curvature="0"
         id="path4588-8-6"
         d="m 565.88124,483.91659 c -5.5628,-0.97799 -9.2685,-3.75294 -12.0998,-9.06064 -1.3403,-2.51271 -1.4163,-6.75225 -1.7752,-99.10905 -0.3636,-93.54562 -0.4185,-96.53211 -1.8038,-98.06252 -3.4202,-3.77865 -7.34,-0.74985 -9.1999,7.10864 -1.0597,4.47728 -1.2936,13.355 -1.7078,64.8129 -0.4681,58.14894 -0.519,59.72911 -2.0567,63.82963 -4.1276,11.00668 -11.4341,17.50772 -21.7865,19.38499 -14.8474,2.69234 -29.81188,-6.90388 -34.44684,-22.0896 -1.28851,-4.22162 -1.37348,-8.74532 -1.37348,-73.12502 0,-63.42578 0.1051,-69.22164 1.38717,-76.50001 4.93237,-28.00133 18.41405,-47.89064 38.85765,-57.32584 11.1135,-5.12917 6.2788,-4.92417 116.1302,-4.92417 87.5947,0 99.7325,0.13796 104.8441,1.19169 25.5894,5.27509 44.3393,28.10619 50.1437,61.05832 1.2825,7.28045 1.3872,13.08439 1.3872,76.87501 0,65.66104 -0.069,69.19963 -1.415,73.12502 -4.1309,12.04232 -13.1819,19.87099 -25.2137,21.80865 -13.7202,2.20958 -25.6457,-5.28808 -30.9826,-19.47904 -1.5439,-4.10538 -1.5924,-5.61179 -2.0547,-63.82963 -0.4091,-51.52001 -0.6406,-60.33021 -1.7033,-64.8129 -1.863,-7.85889 -5.7824,-10.88663 -9.202,-7.10864 -1.3852,1.53041 -1.4401,4.5169 -1.8037,98.06252 l -0.375,96.48405 -1.6145,3 c -1.871,3.47654 -4.0726,5.63257 -7.7605,7.59977 -2.504,1.33566 -5.8239,1.40514 -72,1.50676 -38.1563,0.0586 -70.725,-0.13081 -72.375,-0.42089 z"
         style="fill:#000000;stroke-width:1.93346334" />
      <circle
         r="77.757355"
         cy="104.95154"
         cx="636.00623"
         id="path4612-1-2-2"
         style="opacity:1;fill:#000000;fill-opacity:1;stroke:none;stroke-width:18.60910416;stroke-linecap:round;stroke-linejoin:round;stroke-miterlimit:4;stroke-dasharray:none;stroke-opacity:1" />
    </g>
    <rect
       style="opacity:0.9;fill:none;fill-opacity:1;stroke:#000000;stroke-width:2.38998127;stroke-linecap:round;stroke-linejoin:round;stroke-miterlimit:4;stroke-dasharray:2.38998122, 4.77996243;stroke-dashoffset:41.32597733;stroke-opacity:1;paint-order:normal"
       id="rect4760-9-6"
       width="159.85075"
       height="108.95164"
       x="25.152004"
       y="76.970612" />
  </g>
</svg>
