<?xml version="1.0" encoding="UTF-8"?>
<svg width="162.24mm" height="111.34mm" version="1.1" viewBox="0 0 162.24 111.34" xmlns="http://www.w3.org/2000/svg" xmlns:cc="http://creativecommons.org/ns#" xmlns:dc="http://purl.org/dc/elements/1.1/" xmlns:rdf="http://www.w3.org/1999/02/22-rdf-syntax-ns#">
<metadata>
<rdf:RDF>
<cc:Work rdf:about="">
<dc:format>image/svg+xml</dc:format>
<dc:type rdf:resource="http://purl.org/dc/dcmitype/StillImage"/>
<dc:title/>
</cc:Work>
</rdf:RDF>
</metadata>
<g transform="translate(-19.421 -68.972)">
<path d="m116 158.18c-0.30926-0.24446-0.72367-0.70675-0.92092-1.0273l-0.35863-0.58284-0.0576-12.404c-0.0711-15.297-0.12411-17.903-0.36627-17.996-0.25674-0.0985-1.0865 0.15149-2.1376 0.64402-3.5083 1.644-5.8306 4.7673-5.8376 7.8508-2e-3 0.75467 0.11444 1.0165 0.45084 1.0165 0.21658 0 1.0808 0.88096 2.0055 2.0444 1.9066 2.3987 4.016 5.2441 4.016 5.4171 0 0.37216-2.5174 9.1784-2.6684 9.3344-0.0833 0.0861-0.34275 0.16276-0.57645 0.17037l-0.42491 0.0138-0.58653-3.1234c-0.97032-5.1673-1.2343-5.9643-2.1991-6.6402-0.45681-0.31998-0.56381-0.34494-1.4765-0.3444-0.7389 5.3e-4 -1.0932 0.0546-1.4221 0.21745-0.62146 0.30768-1.5042 1.2456-1.7308 1.8391-0.26127 0.68412-0.18984 1.4739 0.51692 5.7152 0.31513 1.8911 0.57296 3.5801 0.57296 3.7533 0 0.26199-0.0598 0.327-0.35494 0.38604-0.19522 0.0391-0.42293 0.071-0.50603 0.071-0.24899 0-5.4476-6.8525-5.5707-7.3429-0.0803-0.31993 0.36058-2.1169 1.5093-6.1518 0.76889-2.7008 0.93684-3.1282 1.36-3.4611 0.24517-0.19285 0.26868-0.29697 0.27029-1.1968 3e-3 -1.4836 0.20948-4.233 0.38905-5.1715 0.56559-2.9561 2.0281-5.5754 4.4849-8.0321 2.5862-2.5862 4.6805-3.7194 9.6338-5.2127 0.78144-0.23559 1.2887-0.46048 1.5437-0.68439 0.2089-0.18342 0.52848-0.39137 0.71016-0.46212 0.38325-0.14924 5.2684-0.32133 9.3315-0.32873l2.7543-5e-3v-1.912l-2.5272-0.0379c-2.8732-0.043-3.1259-0.10802-3.7905-0.97482-0.44516-0.58061-0.47703-0.80174-0.60548-4.2014-0.0572-1.5143-0.13129-2.7973-0.16462-2.8513-0.0333-0.0539-0.48388-0.1323-1.0012-0.17415-1.0226-0.0827-1.4468-0.28747-1.5797-0.76246-0.0421-0.15055-0.0817-2.0419-0.0879-4.203-0.0105-3.637 4e-3 -3.943 0.1916-4.1129 0.33659-0.3046 0.94531-0.50366 1.7952-0.58704l0.8055-0.079 0.1566-7.7329 0.39247-0.59129c0.21586-0.3252 0.52508-0.6517 0.68716-0.72555 0.59159-0.26954 1.9024-0.35754 6.438-0.4322l4.6284-0.0762-1e-3 -0.40747c-5.3e-4 -0.22411-0.032-0.66577-0.07-0.98147-0.067-0.5572-0.0869-0.58337-0.68007-0.89395-0.9275-0.4856-1.5527-1.0978-1.9442-1.9039-1.0348-2.1302-0.72475-4.4161 0.80519-5.9372 0.85701-0.85203 1.2849-1.0267 2.5148-1.0267 0.86504 0 1.1073 0.0435 1.5755 0.28255 1.0849 0.55407 2.0575 1.9992 2.3468 3.4869 0.3708 1.9072-0.82216 4.2059-2.6818 5.1674l-0.72851 0.37669-0.00106 1.7372 1.5049 0.066c0.82772 0.0363 3.2137 0.0971 5.3022 0.13522l3.7972 0.0692 0.36389 0.27755c0.20013 0.15265 0.50529 0.4816 0.67813 0.73101 0.55597 0.80226 0.62029 1.3224 0.62029 5.0159 0 2.6299 0.0316 3.3828 0.14197 3.3835 0.0781 5.29e-4 0.57172 0.0503 1.097 0.11066 1.1422 0.13131 1.4168 0.33067 1.5941 1.1572 0.0696 0.32456 0.12005 2.0272 0.12005 4.0521v3.4923l-0.42592 0.4158c-0.419 0.40904-0.44255 0.41634-1.4481 0.44897l-1.0222 0.0332-0.0639 3.0666c-0.0689 3.3073-0.10242 3.5018-0.74966 4.3504-0.46615 0.61117-0.88261 0.72189-3.105 0.82552-1.0932 0.051-2.2304 0.0956-2.5272 0.0991l-0.53943 6e-3v1.8173l3.7765 4e-3c4.1115 4e-3 7.8202 0.14648 8.2653 0.3174 0.15485 0.0594 0.51371 0.31319 0.79749 0.56388 0.44442 0.3926 0.75406 0.52781 2.2335 0.97531 4.1682 1.2608 6.2998 2.4608 8.7871 4.9469 2.4564 2.4552 3.9192 5.0748 4.4849 8.0315 0.17957 0.93849 0.38641 3.688 0.38905 5.1715 2e-3 0.89984 0.0251 1.004 0.27029 1.1968 0.42319 0.33289 0.59115 0.7603 1.36 3.461 1.1487 4.0349 1.5896 5.8319 1.5093 6.1518-0.1231 0.49046-5.3217 7.3429-5.5707 7.3429-0.0831 0-0.31082-0.0319-0.50603-0.071-0.29516-0.059-0.35494-0.12404-0.35494-0.38604 0-0.17328 0.25783-1.8623 0.57295-3.7533 0.70677-4.2413 0.7782-5.0311 0.51693-5.7152-0.22663-0.59343-1.1094-1.5314-1.7309-1.839-0.32891-0.16284-0.68316-0.21701-1.4221-0.21745-0.91272-5.3e-4 -1.0197 0.0244-1.4765 0.3444-0.96485 0.67586-1.2288 1.4729-2.1991 6.6402l-0.58653 3.1234-0.42491-0.0138c-0.2337-8e-3 -0.49311-0.0843-0.57645-0.17036-0.15098-0.15599-2.6684-8.9623-2.6684-9.3344 0-0.173 2.1095-3.0184 4.016-5.4172 0.92475-1.1635 1.7889-2.0444 2.0055-2.0444 0.3364 0 0.45254-0.26188 0.45084-1.0165-8e-3 -3.3853-2.7666-6.7426-6.7833-8.2545-0.7983-0.30047-1.2202-0.34016-1.3577-0.12771-0.0505 0.0781-0.11744 6.863-0.14868 15.078-0.0642 16.892 0.0397 15.237-1.0353 16.474l-0.58888 0.67704h-35.609zm19.635-75.004c0.46036-0.30844 1.0727-1.1845 1.2341-1.7657 0.34781-1.2523-0.0112-2.6373-0.89874-3.4675-0.64153-0.60007-0.91814-0.69333-1.8152-0.61199-1.0247 0.0929-1.7035 0.556-2.2022 1.5024-0.19451 0.36915-0.24092 0.66093-0.24413 1.5348-4e-3 0.98764 0.0246 1.1305 0.33295 1.6873 0.33291 0.60103 1.0025 1.2658 1.2751 1.2658 0.0773 0 0.19307-0.0982 0.25733-0.21831 0.37751-0.70537 0.80193-0.74878 1.1973-0.12243 0.15774 0.24987 0.32971 0.45432 0.38215 0.45432 0.0524 0 0.26903-0.11636 0.48129-0.25858z"/>
<rect x="20.616" y="70.167" width="159.85" height="108.95" fill="none" opacity=".9" stroke="#000" stroke-dasharray="2.38998129, 4.77996257" stroke-dashoffset="41.326" stroke-linecap="round" stroke-linejoin="round" stroke-width="2.39" style="paint-order:normal"/>
<g transform="matrix(.18246 0 0 .18246 -59.649 84.906)" stroke-width="1.9335">
<path d="m565.88 483.92c-5.5628-0.97799-9.2685-3.7529-12.1-9.0606-1.3403-2.5127-1.4163-6.7522-1.7752-99.109-0.3636-93.546-0.4185-96.532-1.8038-98.063-3.4202-3.7786-7.34-0.74985-9.1999 7.1086-1.0597 4.4773-1.2936 13.355-1.7078 64.813-0.4681 58.149-0.519 59.729-2.0567 63.83-4.1276 11.007-11.434 17.508-21.786 19.385-14.847 2.6923-29.812-6.9039-34.447-22.09-1.2885-4.2216-1.3735-8.7453-1.3735-73.125 0-63.426 0.1051-69.222 1.3872-76.5 4.9324-28.001 18.414-47.891 38.858-57.326 11.114-5.1292 6.2788-4.9242 116.13-4.9242 87.595 0 99.732 0.13796 104.84 1.1917 25.589 5.2751 44.339 28.106 50.144 61.058 1.2825 7.2804 1.3872 13.084 1.3872 76.875 0 65.661-0.069 69.2-1.415 73.125-4.1309 12.042-13.182 19.871-25.214 21.809-13.72 2.2096-25.646-5.2881-30.983-19.479-1.5439-4.1054-1.5924-5.6118-2.0547-63.83-0.4091-51.52-0.6406-60.33-1.7033-64.813-1.863-7.8589-5.7824-10.887-9.202-7.1086-1.3852 1.5304-1.4401 4.5169-1.8037 98.063l-0.375 96.484-1.6145 3c-1.871 3.4765-4.0726 5.6326-7.7605 7.5998-2.504 1.3357-5.8239 1.4051-72 1.5068-38.156 0.0586-70.725-0.13081-72.375-0.42089z" stroke-width="1.9335"/>
<circle cx="636.01" cy="104.95" r="77.757"/>
</g>
<text x="79.291801" y="114.14472" fill="#d40000" font-family="sans-serif" font-size="19.524px" font-weight="bold" letter-spacing="0px" stroke-width=".26458" word-spacing="0px" style="font-feature-settings:normal;font-variant-caps:normal;font-variant-ligatures:normal;font-variant-numeric:normal;line-height:1.25" xml:space="preserve"><tspan x="79.291801" y="114.14472" fill="#d40000" font-family="sans-serif" font-size="19.524px" font-weight="bold" stroke-width=".26458" style="font-feature-settings:normal;font-variant-caps:normal;font-variant-ligatures:normal;font-variant-numeric:normal">VS</tspan></text>
</g>
</svg>
