<?xml version="1.0" encoding="UTF-8" standalone="no"?>
<svg
   xmlns:dc="http://purl.org/dc/elements/1.1/"
   xmlns:cc="http://creativecommons.org/ns#"
   xmlns:rdf="http://www.w3.org/1999/02/22-rdf-syntax-ns#"
   xmlns:svg="http://www.w3.org/2000/svg"
   xmlns="http://www.w3.org/2000/svg"
   xmlns:sodipodi="http://sodipodi.sourceforge.net/DTD/sodipodi-0.dtd"
   xmlns:inkscape="http://www.inkscape.org/namespaces/inkscape"
   width="162.24mm"
   height="111.34mm"
   version="1.1"
   viewBox="0 0 162.24 111.34"
   id="svg26"
   sodipodi:docname="HumanVsHumanMessages.svg"
   inkscape:version="0.92.4 (5da689c313, 2019-01-14)">
  <defs
     id="defs30" />
  <sodipodi:namedview
     pagecolor="#ffffff"
     bordercolor="#666666"
     borderopacity="1"
     objecttolerance="10"
     gridtolerance="10"
     guidetolerance="10"
     inkscape:pageopacity="0"
     inkscape:pageshadow="2"
     inkscape:window-width="1920"
     inkscape:window-height="1017"
     id="namedview28"
     showgrid="false"
     inkscape:zoom="1.2003863"
     inkscape:cx="192.20246"
     inkscape:cy="292.08699"
     inkscape:window-x="-8"
     inkscape:window-y="-8"
     inkscape:window-maximized="1"
     inkscape:current-layer="g955" />
  <metadata
     id="metadata2">
    <rdf:RDF>
      <cc:Work
         rdf:about="">
        <dc:format>image/svg+xml</dc:format>
        <dc:type
           rdf:resource="http://purl.org/dc/dcmitype/StillImage" />
        <dc:title></dc:title>
      </cc:Work>
    </rdf:RDF>
  </metadata>
  <g
     transform="matrix(0.18246134,0,0,0.18246134,-74.978217,15.450525)"
     id="g8"
     style="stroke-width:1.93350005">
    <path
       d="m 565.88,483.92 c -5.5628,-0.97799 -9.2685,-3.7529 -12.1,-9.0606 -1.3403,-2.5127 -1.4163,-6.7522 -1.7752,-99.109 -0.3636,-93.546 -0.4185,-96.532 -1.8038,-98.063 -3.4202,-3.7786 -7.34,-0.74985 -9.1999,7.1086 -1.0597,4.4773 -1.2936,13.355 -1.7078,64.813 -0.4681,58.149 -0.519,59.729 -2.0567,63.83 -4.1276,11.007 -11.434,17.508 -21.786,19.385 -14.847,2.6923 -29.812,-6.9039 -34.447,-22.09 -1.2885,-4.2216 -1.3735,-8.7453 -1.3735,-73.125 0,-63.426 0.1051,-69.222 1.3872,-76.5 4.9324,-28.001 18.414,-47.891 38.858,-57.326 11.114,-5.1292 6.2788,-4.9242 116.13,-4.9242 87.595,0 99.732,0.13796 104.84,1.1917 25.589,5.2751 44.339,28.106 50.144,61.058 1.2825,7.2804 1.3872,13.084 1.3872,76.875 0,65.661 -0.069,69.2 -1.415,73.125 -4.1309,12.042 -13.182,19.871 -25.214,21.809 -13.72,2.2096 -25.646,-5.2881 -30.983,-19.479 -1.5439,-4.1054 -1.5924,-5.6118 -2.0547,-63.83 -0.4091,-51.52 -0.6406,-60.33 -1.7033,-64.813 -1.863,-7.8589 -5.7824,-10.887 -9.202,-7.1086 -1.3852,1.5304 -1.4401,4.5169 -1.8037,98.063 l -0.375,96.484 -1.6145,3 c -1.871,3.4765 -4.0726,5.6326 -7.7605,7.5998 -2.504,1.3357 -5.8239,1.4051 -72,1.5068 -38.156,0.0586 -70.725,-0.13081 -72.375,-0.42089 z"
       id="path4"
       inkscape:connector-curvature="0"
       style="stroke-width:1.93350005" />
    <circle
       cx="636.01001"
       cy="104.95"
       r="77.757004"
       id="circle6" />
  </g>
  <g
     transform="matrix(0.18246134,0,0,0.18246134,5.1345932,2.5528884)"
     id="g18"
     style="stroke-width:1.93350005">
    <path
       d="m 565.88,483.92 c -5.5628,-0.97799 -9.2685,-3.7529 -12.1,-9.0606 -1.3403,-2.5127 -1.4163,-6.7522 -1.7752,-99.109 -0.3636,-93.546 -0.4185,-96.532 -1.8038,-98.063 -3.4202,-3.7786 -7.34,-0.74985 -9.1999,7.1086 -1.0597,4.4773 -1.2936,13.355 -1.7078,64.813 -0.4681,58.149 -0.519,59.729 -2.0567,63.83 -4.1276,11.007 -11.434,17.508 -21.786,19.385 -14.847,2.6923 -29.812,-6.9039 -34.447,-22.09 -1.2885,-4.2216 -1.3735,-8.7453 -1.3735,-73.125 0,-63.426 0.1051,-69.222 1.3872,-76.5 4.9324,-28.001 18.414,-47.891 38.858,-57.326 11.114,-5.1292 6.2788,-4.9242 116.13,-4.9242 87.595,0 99.732,0.13796 104.84,1.1917 25.589,5.2751 44.339,28.106 50.144,61.058 1.2825,7.2804 1.3872,13.084 1.3872,76.875 0,65.661 -0.069,69.2 -1.415,73.125 -4.1309,12.042 -13.182,19.871 -25.214,21.809 -13.72,2.2096 -25.646,-5.2881 -30.983,-19.479 -1.5439,-4.1054 -1.5924,-5.6118 -2.0547,-63.83 -0.4091,-51.52 -0.6406,-60.33 -1.7033,-64.813 -1.863,-7.8589 -5.7824,-10.887 -9.202,-7.1086 -1.3852,1.5304 -1.4401,4.5169 -1.8037,98.063 l -0.375,96.484 -1.6145,3 c -1.871,3.4765 -4.0726,5.6326 -7.7605,7.5998 -2.504,1.3357 -5.8239,1.4051 -72,1.5068 -38.156,0.0586 -70.725,-0.13081 -72.375,-0.42089 z"
       id="path14"
       inkscape:connector-curvature="0"
       style="stroke-width:1.93350005" />
    <circle
       cx="636.01001"
       cy="104.95"
       r="77.757004"
       id="circle16" />
  </g>
  <rect
     id="rect22"
     style="opacity:0.9;fill:none;stroke:#000000;stroke-width:2.3900001;stroke-linecap:round;stroke-linejoin:round;stroke-dasharray:2.38998123, 4.77996245;stroke-dashoffset:41.32600021;paint-order:normal"
     height="108.95"
     width="159.85001"
     y="1.1950002"
     x="1.1950006" />
  <g
     id="g948">
    <g
       id="g955"
       transform="translate(-7.2737003,-1.1020758)">
      <g
         id="g962"
         transform="matrix(1.1190308,0,0,1.1190308,-4.3000174,-0.15862245)"
         style="stroke-width:0.8936305">
        <path
           style="stroke-width:0.23643975"
           id="path4-4"
           d="m 83.15095,5.037393 c -6.19809,0.02588 -12.39753,-0.01187 -18.59562,0.01943 -1.4734,0.128644 -2.6541,1.762398 -2.49038,3.382361 0.0173,4.5761 -0.0371,9.154227 0.0284,13.729313 0.17776,1.552529 1.56503,2.749174 2.93782,2.636739 0.33441,0.06811 0.87914,-0.237403 1.07449,0.214045 0.0813,1.261645 -0.0862,2.553629 0.0746,3.809396 0.22789,0.585957 0.95677,0.609187 1.32117,0.17901 1.56523,-1.164076 3.13053,-2.328017 4.69577,-3.49216 0.0485,1.973888 -0.0835,3.960277 0.069,5.92349 0.2895,1.536177 1.73084,2.599914 3.11147,2.398965 h 9.63802 c 2.05275,1.488 4.04927,3.087692 6.13728,4.50603 0.56969,0.159611 1.04435,-0.521314 0.91259,-1.116912 v -3.392632 c 1.09002,0.05012 2.34957,0.110617 3.18127,-0.829678 0.74218,-0.755892 0.97063,-1.933822 0.87245,-3.012693 -0.0175,-4.425826 0.0381,-8.854221 -0.0291,-13.278628 -0.18489,-1.610031 -1.65435,-2.817824 -3.08033,-2.623158 H 85.9854 C 85.9506,11.900878 86.0521,9.70435 85.9321,7.519511 85.69231,6.094281 84.44863,4.99149 83.15164,5.037505 Z m -6.71796,1.663815 c 2.34916,0.01041 4.70117,-0.0139 7.04878,0.03239 0.7465,0.152787 1.14901,1.079683 1.01576,1.865036 -0.0169,4.467246 0.0351,8.938006 -0.0265,13.402955 -0.13646,0.833327 -0.96779,1.281376 -1.67178,1.133806 -3.34324,0.01916 -6.69189,-0.04039 -10.03195,0.03035 -0.72846,0.342182 -1.29928,0.988599 -1.98909,1.412053 -1.05516,0.784677 -2.11038,1.569354 -3.16554,2.354031 -0.0741,-1.116305 0.10945,-2.259502 -0.0907,-3.359253 -0.34763,-0.648248 -1.10482,-0.394993 -1.65848,-0.45415 -0.70852,0.05476 -1.66685,0.163794 -2.10706,-0.634633 -0.41287,-0.840692 -0.118,-1.842468 -0.20388,-2.746404 0.0111,-3.962507 -0.0322,-7.927852 0.024,-11.888738 0.12758,-0.803123 0.90123,-1.278132 1.59462,-1.144548 3.75392,0.0053 7.50758,-0.0031 11.2617,-0.003 z m 14.36716,9.04409 c 0.96009,0.02149 1.92788,-0.03452 2.88344,0.04932 0.71075,0.194692 1.07441,1.087588 0.94893,1.848278 -0.0168,4.467246 0.0351,8.938006 -0.0265,13.402954 -0.13543,0.830897 -0.95725,1.268607 -1.65712,1.141779 -0.69691,0.05963 -1.45429,-0.191631 -2.09491,0.17224 -0.47283,0.496241 -0.21215,1.301037 -0.27542,1.937874 v 1.681722 c -1.71483,-1.233942 -3.37412,-2.579509 -5.11794,-3.752843 -0.96495,-0.134987 -1.95179,0.0167 -2.92897,-0.04894 -2.60931,-0.01287 -5.22165,0.03753 -7.8292,-0.02806 -0.74684,-0.152476 -1.14901,-1.079614 -1.01617,-1.865035 v -5.491455 c 3.31452,-0.02115 6.6312,0.04152 9.94411,-0.03239 1.43982,-0.208734 2.52667,-1.832535 2.35315,-3.437092 v -5.575511 c 1.60543,0.0054 3.2108,-0.002 4.81624,-0.0028 z"
           inkscape:connector-curvature="0" />
        <path
           id="path6"
           d="m 74.83053,19.242352 h -8.10827 c -0.55974,0 -1.01353,0.302526 -1.01353,0.675689 0,0.373162 0.45379,0.675688 1.01353,0.675688 h 8.10827 c 0.55974,0 1.01353,-0.302526 1.01353,-0.675688 0,-0.373163 -0.45379,-0.675689 -1.01353,-0.675689 z"
           style="fill:#000080;stroke-width:0.19305304"
           inkscape:connector-curvature="0" />
        <path
           id="path8"
           d="m 81.04686,15.728772 h -14.3246 c -0.55974,0 -1.01353,0.302526 -1.01353,0.675689 0,0.373162 0.45379,0.675688 1.01353,0.675688 h 14.3246 c 0.55974,0 1.01353,-0.302526 1.01353,-0.675688 0,-0.373163 -0.45379,-0.675689 -1.01353,-0.675689 z"
           style="fill:#000080;stroke-width:0.19305304"
           inkscape:connector-curvature="0" />
        <path
           id="path10"
           d="m 76.65488,12.230734 h -9.72991 c -0.67169,0 -1.21624,0.302526 -1.21624,0.675688 0,0.373162 0.54455,0.675688 1.21624,0.675688 h 9.72991 c 0.67169,0 1.21624,-0.302526 1.21624,-0.675688 0,-0.373162 -0.54455,-0.675688 -1.21624,-0.675688 z"
           style="fill:#000080;stroke-width:0.21147878"
           inkscape:connector-curvature="0" />
        <path
           id="path12"
           d="m 81.04686,8.692897 h -14.3246 c -0.55974,0 -1.01353,0.302526 -1.01353,0.675688 0,0.373162 0.45379,0.675688 1.01353,0.675688 h 14.3246 c 0.55974,0 1.01353,-0.302526 1.01353,-0.675688 0,-0.373162 -0.45379,-0.675688 -1.01353,-0.675688 z"
           style="fill:#000080;stroke-width:0.19305304"
           inkscape:connector-curvature="0" />
      </g>
    </g>
  </g>
</svg>
