<?xml version="1.0" encoding="UTF-8" standalone="no"?>
<!-- Created with Inkscape (http://www.inkscape.org/) -->

<svg
   xmlns:dc="http://purl.org/dc/elements/1.1/"
   xmlns:cc="http://creativecommons.org/ns#"
   xmlns:rdf="http://www.w3.org/1999/02/22-rdf-syntax-ns#"
   xmlns:svg="http://www.w3.org/2000/svg"
   xmlns="http://www.w3.org/2000/svg"
   xmlns:sodipodi="http://sodipodi.sourceforge.net/DTD/sodipodi-0.dtd"
   xmlns:inkscape="http://www.inkscape.org/namespaces/inkscape"
   width="162.24074mm"
   height="111.34162mm"
   viewBox="0 0 162.24074 111.34162"
   version="1.1"
   id="svg4909"
   inkscape:version="0.92.4 (5da689c313, 2019-01-14)"
   sodipodi:docname="HumanVsBot.svg">
  <defs
     id="defs4903" />
  <sodipodi:namedview
     id="base"
     pagecolor="#ffffff"
     bordercolor="#666666"
     borderopacity="1.0"
     inkscape:pageopacity="0.0"
     inkscape:pageshadow="2"
     inkscape:zoom="0.35"
     inkscape:cx="-169.11762"
     inkscape:cy="138.9808"
     inkscape:document-units="mm"
     inkscape:current-layer="layer1"
     showgrid="false"
     inkscape:window-width="1920"
     inkscape:window-height="1017"
     inkscape:window-x="-8"
     inkscape:window-y="-8"
     inkscape:window-maximized="1" />
  <metadata
     id="metadata4906">
    <rdf:RDF>
      <cc:Work
         rdf:about="">
        <dc:format>image/svg+xml</dc:format>
        <dc:type
           rdf:resource="http://purl.org/dc/dcmitype/StillImage" />
        <dc:title></dc:title>
      </cc:Work>
    </rdf:RDF>
  </metadata>
  <g
     inkscape:label="Calque 1"
     inkscape:groupmode="layer"
     id="layer1"
     transform="translate(-27.736774,-74.263719)">
    <g
       id="g4768"
       transform="matrix(0.35277774,0,0,0.35277774,-112.43462,47.019753)">
      <g
         style="stroke-width:1.93346345"
         transform="matrix(0.51720656,0,0,0.51720656,173.79319,121.77407)"
         id="g4653">
        <path
           style="fill:#000000;stroke-width:1.93346334"
           d="m 565.88124,483.91659 c -5.5628,-0.97799 -9.2685,-3.75294 -12.0998,-9.06064 -1.3403,-2.51271 -1.4163,-6.75225 -1.7752,-99.10905 -0.3636,-93.54562 -0.4185,-96.53211 -1.8038,-98.06252 -3.4202,-3.77865 -7.34,-0.74985 -9.1999,7.10864 -1.0597,4.47728 -1.2936,13.355 -1.7078,64.8129 -0.4681,58.14894 -0.519,59.72911 -2.0567,63.82963 -4.1276,11.00668 -11.4341,17.50772 -21.7865,19.38499 -14.8474,2.69234 -29.81188,-6.90388 -34.44684,-22.0896 -1.28851,-4.22162 -1.37348,-8.74532 -1.37348,-73.12502 0,-63.42578 0.1051,-69.22164 1.38717,-76.50001 4.93237,-28.00133 18.41405,-47.89064 38.85765,-57.32584 11.1135,-5.12917 6.2788,-4.92417 116.1302,-4.92417 87.5947,0 99.7325,0.13796 104.8441,1.19169 25.5894,5.27509 44.3393,28.10619 50.1437,61.05832 1.2825,7.28045 1.3872,13.08439 1.3872,76.87501 0,65.66104 -0.069,69.19963 -1.415,73.12502 -4.1309,12.04232 -13.1819,19.87099 -25.2137,21.80865 -13.7202,2.20958 -25.6457,-5.28808 -30.9826,-19.47904 -1.5439,-4.10538 -1.5924,-5.61179 -2.0547,-63.82963 -0.4091,-51.52001 -0.6406,-60.33021 -1.7033,-64.8129 -1.863,-7.85889 -5.7824,-10.88663 -9.202,-7.10864 -1.3852,1.53041 -1.4401,4.5169 -1.8037,98.06252 l -0.375,96.48405 -1.6145,3 c -1.871,3.47654 -4.0726,5.63257 -7.7605,7.59977 -2.504,1.33566 -5.8239,1.40514 -72,1.50676 -38.1563,0.0586 -70.725,-0.13081 -72.375,-0.42089 z"
           id="path4588"
           inkscape:connector-curvature="0" />
        <circle
           style="opacity:1;fill:#000000;fill-opacity:1;stroke:none;stroke-width:18.60910416;stroke-linecap:round;stroke-linejoin:round;stroke-miterlimit:4;stroke-dasharray:none;stroke-opacity:1"
           id="path4612-1"
           cx="636.00623"
           cy="104.95154"
           r="77.757355" />
      </g>
      <path
         inkscape:connector-curvature="0"
         id="path4675"
         d="m 672.6576,328.63128 c -1.09049,-0.63351 -2.34985,-1.93389 -3.02157,-3.11999 l -1.15177,-2.03376 -0.11743,-42.53836 c -0.0984,-35.65482 -0.21328,-42.53834 -0.70991,-42.53834 -0.32588,0 -1.92412,0.47667 -3.55164,1.05928 -10.00986,3.58327 -17.67439,12.0335 -18.71447,20.63292 -0.47846,3.95605 -0.20688,5.04448 1.25872,5.04448 1.15893,0 1.58098,0.51057 15.07594,18.23779 l 1.87427,2.46208 -3.7069,13.30339 -3.70691,13.30342 -1.55678,0.34131 c -0.85623,0.18772 -1.60458,0.26993 -1.66298,0.18268 -0.0585,-0.0873 -1.01986,-5.26636 -2.13653,-11.50914 -2.21857,-12.40282 -2.94057,-14.39961 -5.86373,-16.21682 -3.10526,-1.93042 -8.18197,-0.96559 -10.75758,2.0445 -2.91132,3.4024 -2.94113,4.59421 -0.45519,18.20012 1.18262,6.47264 2.09965,11.82619 2.03786,11.89678 -0.0618,0.0706 -0.80431,0.27938 -1.65004,0.46396 l -1.5377,0.33561 -6.71419,-8.74042 c -9.98342,-12.99621 -9.20153,-11.70357 -8.58556,-14.1941 0.28747,-1.16233 1.91719,-7.0918 3.6216,-13.17662 2.74016,-9.78258 3.22465,-11.11882 4.18498,-11.54267 l 1.08607,-0.47932 0.0127,-6.87035 c 0.0134,-7.25436 0.50969,-10.45609 2.52342,-16.28256 1.67854,-4.85663 3.70902,-8.38927 7.54848,-13.13291 7.11571,-8.79143 17.25721,-14.93138 29.09049,-17.6122 2.80332,-0.63509 4.70352,-1.34233 5.26609,-1.95999 2.20359,-2.41937 3.06506,-2.52792 20.06307,-2.52792 h 15.98502 v -2.52233 -2.52233 l -6.79853,-0.0111 c -7.72929,-0.0127 -9.54057,-0.58391 -11.37359,-3.5875 -0.97476,-1.59725 -1.04927,-2.22355 -1.25226,-10.52644 l -0.21582,-8.82815 -3.16842,-0.25223 c -4.88646,-0.389 -4.81716,-0.1935 -4.81716,-13.58852 v -10.95446 l 1.10016,-1.20788 c 0.88895,-0.976 1.67169,-1.24563 4.07729,-1.40448 l 2.97715,-0.1966 0.13132,-10.66451 c 0.12602,-10.23431 0.17187,-10.73097 1.13656,-12.31165 2.04918,-3.35762 2.17102,-3.38123 18.31121,-3.54858 l 14.5683,-0.15105 v -2.6568 -2.6568 l -2.36078,-1.14353 c -4.17021,-2.02003 -6.67797,-6.53334 -6.69447,-12.04832 -0.0115,-3.82762 0.7986,-6.27962 2.92526,-8.85469 3.1885,-3.860827 7.16753,-5.116987 11.52213,-3.637547 4.42081,1.50198 7.98908,7.162477 7.98908,12.673547 0,0.92883 -0.39936,2.93625 -0.88746,4.46093 -1.06528,3.32748 -4.22522,6.91516 -6.99194,7.93836 l -1.83278,0.67782 v 2.52233 2.52233 l 14.74486,0.25223 14.74485,0.25224 1.65795,1.54926 c 2.96449,2.77011 3.16729,3.72525 3.16809,14.91507 v 9.90627 l 3.0736,0.20297 c 2.713,0.17916 3.1942,0.36672 4.1007,1.59845 1.0107,1.37326 1.0271,1.56322 1.0271,11.92244 v 10.52694 l -1.1175,1.5521 c -1.0494,1.45746 -1.2994,1.55211 -4.1007,1.55211 h -2.9834 v 8.08765 c 0,8.84671 -0.2877,10.34983 -2.42889,12.68947 -1.94823,2.12885 -3.22249,2.4283 -10.33302,2.4283 h -6.66249 v 2.52232 2.52233 h 15.98511 c 17.34859,0 17.77429,0.0599 20.14549,2.83111 1.173,1.3709 1.1802,1.3722 4.2128,0.76503 11.57473,-2.31738 20.97333,-10.31702 23.31593,-19.84515 0.3895,-1.58438 0.6481,-3.85447 0.5746,-5.04466 -0.1199,-1.94278 -0.2461,-2.16397 -1.2349,-2.16397 -0.8832,0 -2.6358,-1.9814 -8.8487,-10.00376 -4.2613,-5.50205 -7.8115,-10.33296 -7.8896,-10.73535 -0.1209,-0.62201 5.6941,-22.57829 6.8157,-25.73481 0.2456,-0.69132 0.8911,-1.16271 1.8176,-1.32748 0.7901,-0.14054 1.5063,-0.18203 1.5915,-0.0923 0.085,0.0898 1.0775,5.26204 2.205,11.49388 2.2186,12.26172 2.86,14.12246 5.5395,16.06956 1.2607,0.91612 2.1877,1.15253 4.4027,1.12272 3.492,-0.047 6.0225,-1.45528 7.5904,-4.22409 1.8181,-3.2107 1.7714,-4.83995 -0.497,-17.35359 -1.138,-6.27744 -1.9854,-11.50356 -1.8834,-11.6136 0.1022,-0.11004 0.7931,-0.352 1.5354,-0.53768 1.3105,-0.32779 1.5675,-0.0547 8.8459,9.39981 4.1228,5.35557 7.7403,10.03738 8.0387,10.40402 0.2984,0.36664 0.5329,0.82066 0.521,1.00893 -0.012,0.18828 -1.7114,6.24185 -3.777,13.45242 -3.3893,11.8322 -3.8573,13.13658 -4.8009,13.38181 -1.042,0.2708 -1.0451,0.29202 -0.948,6.31183 0.1454,9.00962 -1.2527,15.49975 -4.8748,22.62998 -2.028,3.99208 -6.4816,9.77963 -9.8912,12.85382 -6.8015,6.13248 -17.1355,11.16177 -26.40563,12.85083 l -3.4532,0.62921 -0.2158,42.35306 c -0.21,41.20772 -0.2392,42.39937 -1.0792,44.06522 -0.4748,0.94167 -1.6097,2.41723 -2.5219,3.27902 l -1.6587,1.56689 -49.27641,0.13032 -49.27638,0.13031 z m 40.76868,-70.93465 c 1.39049,-5.13884 4.01486,-8.31663 7.55638,-9.14982 1.51884,-0.35733 2.91696,-0.38326 4.04381,-0.075 2.0822,0.56962 1.96279,0.68265 8.13097,-7.69678 3.67716,-4.9954 4.55348,-5.92573 5.46449,-5.80136 0.81073,0.11067 1.11837,0.48453 1.2169,1.47867 0.10696,1.07861 -0.81259,2.5878 -4.85609,7.97015 -2.74336,3.65178 -4.98795,6.78081 -4.98795,6.95341 0,0.1726 0.30193,0.70376 0.67101,1.18034 0.36901,0.47659 1.02923,1.97002 1.46712,3.31875 l 0.79611,2.45224 8.13173,0.13767 c 5.45754,0.0925 8.53064,-0.0554 9.34459,-0.44939 2.30374,-1.11521 2.46701,-2.19576 2.46701,-16.32681 0,-14.94634 -0.17646,-15.98197 -2.88018,-16.90266 -1.15775,-0.39425 -9.51102,-0.51704 -27.91265,-0.41032 l -26.26042,0.15229 -1.04158,1.41542 -1.04159,1.41541 v 13.98466 c 0,15.03847 0.0897,15.68746 2.31237,16.73573 0.50877,0.23994 4.5732,0.45066 9.03207,0.46825 7.35632,0.029 8.12915,-0.0498 8.3459,-0.85085 z m 29.98888,-59.99013 c 2.14166,-0.50058 5.35838,-4.45465 5.70906,-7.01766 0.5952,-4.35 -1.96552,-9.08294 -5.54215,-10.24338 -1.13236,-0.36741 -8.19043,-0.55799 -20.73275,-0.55985 l -19.01585,-0.002 -2.13511,1.25254 c -6.19943,3.63688 -5.7943,13.32557 0.68354,16.34696 1.20367,0.56142 38.71372,0.76636 41.03326,0.2242 z m -35.30207,-26.42919 c 2.66369,-0.78596 5.50898,-3.43499 6.90025,-6.42433 4.08209,-8.7709 -0.64524,-18.94664 -9.13174,-19.65627 -3.62627,-0.30322 -6.47408,0.98486 -8.99628,4.0691 -7.91709,9.68132 0.0541,25.30847 11.22777,22.0115 z m 36.80325,-0.20818 c 4.30332,-1.50042 7.4266,-6.023 7.84013,-11.35263 0.31637,-4.07738 -0.47622,-7.07721 -2.62277,-9.92723 -4.35596,-5.78337 -11.37663,-6.34199 -16.29367,-1.29649 -5.16496,5.29982 -4.79105,15.86094 0.72372,20.44336 3.40265,2.82739 6.51936,3.46952 10.35259,2.13299 z m -23.12295,-53.77769 c 0,-0.60433 1.57265,-0.8599 2.31278,-0.37585 0.38983,0.25496 0.70879,0.79993 0.70879,1.21103 0,2.3102 3.12395,0.73066 4.90546,-2.48034 2.16673,-3.90526 1.27326,-9.20699 -2.0217,-11.99646 -1.39477,-1.18083 -2.16246,-1.45477 -4.07682,-1.45477 -4.24813,0 -7.24568,3.06528 -7.69851,7.87255 -0.29094,3.08854 1.05243,6.44415 3.26941,8.16648 1.40952,1.09509 1.53332,1.11234 2.05036,0.286 0.30261,-0.48368 0.55023,-1.03656 0.55023,-1.22864 z"
         style="fill:#000000;stroke-width:1" />
      <text
         id="text4679"
         y="204.65558"
         x="567.64142"
         style="font-style:normal;font-variant:normal;font-weight:bold;font-stretch:normal;font-size:55.34410477px;line-height:1.25;font-family:sans-serif;-inkscape-font-specification:'sans-serif, Bold';font-variant-ligatures:normal;font-variant-caps:normal;font-variant-numeric:normal;font-feature-settings:normal;text-align:start;letter-spacing:0px;word-spacing:0px;writing-mode:lr-tb;text-anchor:start;fill:#d40000;fill-opacity:1;stroke:none;stroke-width:0.75"
         xml:space="preserve"><tspan
           style="font-style:normal;font-variant:normal;font-weight:bold;font-stretch:normal;font-size:55.34410477px;font-family:sans-serif;-inkscape-font-specification:'sans-serif, Bold';font-variant-ligatures:normal;font-variant-caps:normal;font-variant-numeric:normal;font-feature-settings:normal;text-align:start;writing-mode:lr-tb;text-anchor:start;fill:#d40000;stroke-width:0.75"
           y="204.65558"
           x="567.64142"
           id="tspan4677"
           sodipodi:role="line">VS</tspan></text>
    </g>
    <rect
       style="opacity:0.9;fill:none;fill-opacity:1;stroke:#000000;stroke-width:2.38998127;stroke-linecap:round;stroke-linejoin:round;stroke-miterlimit:4;stroke-dasharray:2.38998124, 4.77996247;stroke-dashoffset:41.32597733;stroke-opacity:1;paint-order:normal"
       id="rect4760"
       width="159.85075"
       height="108.95164"
       x="28.931765"
       y="75.45871" />
  </g>
</svg>
