<?xml version="1.0" encoding="UTF-8" standalone="no"?>
<svg
   xmlns:dc="http://purl.org/dc/elements/1.1/"
   xmlns:cc="http://creativecommons.org/ns#"
   xmlns:rdf="http://www.w3.org/1999/02/22-rdf-syntax-ns#"
   xmlns:svg="http://www.w3.org/2000/svg"
   xmlns="http://www.w3.org/2000/svg"
   xmlns:sodipodi="http://sodipodi.sourceforge.net/DTD/sodipodi-0.dtd"
   xmlns:inkscape="http://www.inkscape.org/namespaces/inkscape"
   version="1.1"
   viewBox="0 0 383.99954 383.99957"
   xml:space="preserve"
   id="svg34"
   sodipodi:docname="Info.svg"
   inkscape:version="0.92.4 (5da689c313, 2019-01-14)"
   width="383.99954"
   height="383.99957"><sodipodi:namedview
   pagecolor="#ffffff"
   bordercolor="#666666"
   borderopacity="1"
   objecttolerance="10"
   gridtolerance="10"
   guidetolerance="10"
   inkscape:pageopacity="0"
   inkscape:pageshadow="2"
   inkscape:window-width="1920"
   inkscape:window-height="1017"
   id="namedview36"
   showgrid="true"
   inkscape:zoom="1.18"
   inkscape:cx="9.8554456"
   inkscape:cy="105.81133"
   inkscape:window-x="-8"
   inkscape:window-y="-8"
   inkscape:window-maximized="1"
   inkscape:current-layer="text1795"><inkscape:grid
     type="xygrid"
     id="grid4690"
     originx="369.49999"
     originy="14.499585" /></sodipodi:namedview><metadata
   id="metadata2"><rdf:RDF><cc:Work
       rdf:about=""><dc:format>image/svg+xml</dc:format><dc:type
         rdf:resource="http://purl.org/dc/dcmitype/StillImage" /><dc:title /></cc:Work></rdf:RDF></metadata><defs
   id="defs7"><marker
   inkscape:stockid="Arrow1Lstart"
   orient="auto"
   refY="0"
   refX="0"
   id="Arrow1Lstart"
   style="overflow:visible"
   inkscape:isstock="true"><path
     id="path1517"
     d="M 0,0 5,-5 -12.5,0 5,5 Z"
     style="fill-rule:evenodd;stroke:#000000;stroke-width:1.00000003pt"
     transform="matrix(0.8,0,0,0.8,10,0)"
     inkscape:connector-curvature="0" /></marker>
	
	
	
	
	
	
	
	
	
	
	
<clipPath
   id="b"><g
     id="use4"><path
       d="m 376,153.34 c -4.418,0 -8,3.582 -8,8 v 256 c 0,13.234 -10.766,24 -24,24 H 40 c -13.234,0 -24,-10.766 -24,-24 v -304 c 0,-13.234 10.766,-24 24,-24 h 256 c 4.418,0 8,-3.582 8,-8 0,-4.418 -3.582,-8 -8,-8 H 40 c -22.056,0 -40,17.944 -40,40 v 304 c 0,22.056 17.944,40 40,40 h 304 c 22.056,0 40,-17.944 40,-40 v -256 c 0,-4.418 -3.582,-8 -8,-8 z"
       id="path855"
       inkscape:connector-curvature="0" /><path
       d="M 466.31,12.823 C 460.6764,6.3939 453.472,2.035 446.024,0.548 438.576,-0.9387 431.78,0.62587 426.889,4.9525 l -208.11,183.88 c -0.61503,0.54275 -1.0812,1.243 -1.3704,2.0581 l -16.574,46.667 c -0.86565,2.4387 -0.0533,5.5905 2.0631,8.0043 1.4265,1.6269 3.2586,2.7058 5.0722,3.0678 0.87895,0.17546 1.7532,0.1833 2.575,0.003 l 48.216,-10.579 c 0.84213,-0.18455 1.5929,-0.56015 2.2076,-1.1033 l 208.11,-183.88 c 4.8958,-4.3247 7.3046,-10.892 6.7811,-18.496 -0.52345,-7.6031 -3.9163,-15.329 -9.5494,-21.752 z m -210.53,207.35 -21.093,-24.057 191.69,-169.37 21.093,24.057 z m -27.947,-13.327 16.475,18.789 -25.105,5.5086 z m 230.69,-165.81 -1.8976,1.6766 -21.093,-24.057 1.8999,-1.6788 c 2.444,-2.1622 5.8414,-2.9438 9.5645,-2.2007 3.7231,0.74317 7.3243,2.9217 10.142,6.1378 2.8175,3.2125 4.514,7.0759 4.7756,10.876 0.26162,3.7997 -0.94275,7.0841 -3.3911,9.2463 z"
       id="path857"
       inkscape:connector-curvature="0"
       style="stroke-width:0.87417001" /><path
       d="m 240,145.34 c 0,-4.418 -3.582,-8 -8,-8 H 72 c -4.418,0 -8,3.582 -8,8 0,4.418 3.582,8 8,8 h 160 c 4.418,0 8,-3.582 8,-8 z"
       id="path859"
       inkscape:connector-curvature="0" /><path
       d="m 200,185.34 c 0,-4.418 -3.582,-8 -8,-8 H 72 c -4.418,0 -8,3.582 -8,8 0,4.418 3.582,8 8,8 h 120 c 4.418,0 8,-3.582 8,-8 z"
       id="path861"
       inkscape:connector-curvature="0" /><path
       d="M 168,217.34 H 72 c -4.418,0 -8,3.582 -8,8 0,4.418 3.582,8 8,8 h 96 c 4.418,0 8,-3.582 8,-8 0,-4.418 -3.582,-8 -8,-8 z"
       id="path863"
       inkscape:connector-curvature="0" /><path
       d="m 72,273.34 h 80 c 4.418,0 8,-3.582 8,-8 0,-4.418 -3.582,-8 -8,-8 H 72 c -4.418,0 -8,3.582 -8,8 0,4.418 3.582,8 8,8 z"
       id="path865"
       inkscape:connector-curvature="0" /><path
       d="m 264,265.34 c 0,4.418 3.582,8 8,8 h 40 c 4.418,0 8,-3.582 8,-8 0,-4.418 -3.582,-8 -8,-8 h -40 c -4.418,0 -8,3.582 -8,8 z"
       id="path867"
       inkscape:connector-curvature="0" /><path
       d="m 317.66,231 c 1.49,-1.49 2.34,-3.55 2.34,-5.66 0,-2.11 -0.85,-4.17 -2.34,-5.66 -1.49,-1.49 -3.55,-2.34 -5.66,-2.34 -2.1,0 -4.17,0.85 -5.66,2.34 -1.49,1.49 -2.34,3.56 -2.34,5.66 0,2.11 0.85,4.17 2.34,5.66 1.49,1.49 3.56,2.34 5.66,2.34 2.1,0 4.17,-0.85 5.66,-2.34 z"
       id="path869"
       inkscape:connector-curvature="0" /><path
       d="m 64,305.34 c 0,4.418 3.582,8 8,8 h 240 c 4.418,0 8,-3.582 8,-8 0,-4.418 -3.582,-8 -8,-8 H 72 c -4.418,0 -8,3.582 -8,8 z"
       id="path871"
       inkscape:connector-curvature="0" /><path
       d="M 312,337.34 H 72 c -4.418,0 -8,3.582 -8,8 0,4.418 3.582,8 8,8 h 240 c 4.418,0 8,-3.582 8,-8 0,-4.418 -3.582,-8 -8,-8 z"
       id="path873"
       inkscape:connector-curvature="0" /><path
       d="M 312,377.34 H 72 c -4.418,0 -8,3.582 -8,8 0,4.418 3.582,8 8,8 h 240 c 4.418,0 8,-3.582 8,-8 0,-4.418 -3.582,-8 -8,-8 z"
       id="path875"
       inkscape:connector-curvature="0" /></g></clipPath><clipPath
   clipPathUnits="userSpaceOnUse"
   id="clipPath901"><g
     inkscape:label="Clip"
     id="use903"><circle
       r="40.134823"
       cy="244.72099"
       cx="148.59441"
       id="circle907"
       style="fill:#800000;fill-opacity:1;stroke:none;stroke-width:15;stroke-miterlimit:4;stroke-dasharray:none;stroke-opacity:1" /></g></clipPath></defs>
















<rect
   style="fill:none;fill-opacity:1;stroke:#000000;stroke-width:19;stroke-linecap:round;stroke-linejoin:round;stroke-miterlimit:3.5999999;stroke-dasharray:none;stroke-opacity:1"
   id="rect40"
   width="364.99954"
   height="364.99957"
   x="9.5"
   y="9.5"
   ry="30.000002"
   rx="30.000015" /><g
   aria-label="i"
   style="font-style:normal;font-variant:normal;font-weight:normal;font-stretch:normal;font-size:477.42572021px;line-height:1.25;font-family:'Liberation Serif';-inkscape-font-specification:'Liberation Serif, Normal';font-variant-ligatures:normal;font-variant-caps:normal;font-variant-numeric:normal;font-feature-settings:normal;text-align:start;letter-spacing:0px;word-spacing:0px;writing-mode:lr-tb;text-anchor:start;fill:#000080;fill-opacity:1;stroke:none;stroke-width:2.48659229"
   id="text1795"><g
     id="g860"
     transform="translate(0,3.6904779)"><path
       inkscape:connector-curvature="0"
       id="path856"
       d="m 213.56318,73.355622 q 0,10.257193 -7.45978,17.71697 -7.45977,7.459777 -17.95008,7.459777 -10.2572,0 -17.71697,-7.459777 -7.45978,-7.459777 -7.45978,-17.71697 0,-10.490311 7.45978,-17.950088 7.45977,-7.459777 17.71697,-7.459777 10.49031,0 17.95008,7.459777 7.45978,7.459777 7.45978,17.950088 z"
       style="fill:#000080;stroke-width:2.48659229" /><path
       inkscape:connector-curvature="0"
       id="path845"
       d="m 211.232,313.49999 37.532,5.41888 v 9.75399 H 135.23552 v -9.75399 l 37.29889,-5.41888 V 140.09573 l -31.0047,-5.41888 v -9.75399 H 211.232 Z"
       style="fill:#000080;stroke-width:2.48659229" /></g></g>
</svg>