<?xml version="1.0" encoding="UTF-8"?>
<svg version="1.1" viewBox="0 0 613.19 420.82" xmlns="http://www.w3.org/2000/svg" xmlns:cc="http://creativecommons.org/ns#" xmlns:dc="http://purl.org/dc/elements/1.1/" xmlns:rdf="http://www.w3.org/1999/02/22-rdf-syntax-ns#">
<metadata>
<rdf:RDF>
<cc:Work rdf:about="">
<dc:format>image/svg+xml</dc:format>
<dc:type rdf:resource="http://purl.org/dc/dcmitype/StillImage"/>
</cc:Work>
</rdf:RDF>
</metadata>
<g transform="translate(1262.8 907.79)">
<rect x="-1258.3" y="-903.27" width="604.16" height="411.79" fill="none" opacity=".9" stroke="#000" stroke-dasharray="9.03300006, 18.06600008" stroke-dashoffset="41.326" stroke-linecap="round" stroke-linejoin="round" stroke-width="9.033" style="paint-order:normal"/>
<g transform="translate(-484.81 -464.23)">
<g transform="matrix(.68961 0 0 .68961 -1031.2 -384.49)" stroke-width="1.9335">
<path d="m565.88 483.92c-5.5628-0.97799-9.2685-3.7529-12.1-9.0606-1.3403-2.5127-1.4163-6.7522-1.7752-99.109-0.3636-93.546-0.4185-96.532-1.8038-98.063-3.4202-3.7786-7.34-0.74985-9.1999 7.1086-1.0597 4.4773-1.2936 13.355-1.7078 64.813-0.4681 58.149-0.519 59.729-2.0567 63.83-4.1276 11.007-11.434 17.508-21.786 19.385-14.847 2.6923-29.812-6.9039-34.447-22.09-1.2885-4.2216-1.3735-8.7453-1.3735-73.125 0-63.426 0.1051-69.222 1.3872-76.5 4.9324-28.001 18.414-47.891 38.858-57.326 11.114-5.1292 6.2788-4.9242 116.13-4.9242 87.595 0 99.732 0.13796 104.84 1.1917 25.589 5.2751 44.339 28.106 50.144 61.058 1.2825 7.2804 1.3872 13.084 1.3872 76.875 0 65.661-0.069 69.2-1.415 73.125-4.1309 12.042-13.182 19.871-25.214 21.809-13.72 2.2096-25.646-5.2881-30.983-19.479-1.5439-4.1054-1.5924-5.6118-2.0547-63.83-0.4091-51.52-0.6406-60.33-1.7033-64.813-1.863-7.8589-5.7824-10.887-9.202-7.1086-1.3852 1.5304-1.4401 4.5169-1.8037 98.063l-0.375 96.484-1.6145 3c-1.871 3.4765-4.0726 5.6326-7.7605 7.5998-2.504 1.3357-5.8239 1.4051-72 1.5068-38.156 0.0586-70.725-0.13081-72.375-0.42089z" stroke-width="1.9335"/>
<circle cx="636.01" cy="104.95" r="77.757"/>
</g>
<g transform="translate(-250.77)">
<g transform="translate(269.69 -6.5142)">
<path d="m-290.46-380.23a99.018 99.018 0 0 0-160.82 30.556 9.8892 9.8892 0 0 0-5.4975 16.504 99.26 99.26 0 0 0 11.615 74.199 66.568 66.568 0 0 0-7.6309 28.485 9.8995 9.8995 0 0 0 3.2404 19.252h52.797a9.8908 9.8908 0 0 0 8.0182-4.1042 99.007 99.007 0 0 0 98.28-164.89zm-159.1 37.002h52.797a3.2998 3.2998 0 0 1 0 6.5997h-52.797a3.2998 3.2998 0 0 1 0-6.5997zm31.797 52.632a14.207 14.207 0 0 0-2.2014 2.8412 3.8596 3.8596 0 0 1-3.193 1.6594 3.8711 3.8711 0 0 1-3.2021-1.6623 14.224 14.224 0 0 0-2.1998-2.8383q-1.5229-1.5229-2.9208-3.1348h16.639q-1.4008 1.6087-2.9216 3.1348zm7.9142-9.7345h-26.626a59.892 59.892 0 0 1-9.6932-29.698h46.014a59.892 59.892 0 0 1-9.6953 29.698zm-23.377 14.4a7.6197 7.6197 0 0 1 1.0848 9.4206 78.044 78.044 0 0 1-4.9621-13.644q1.8401 2.1787 3.8773 4.2234zm4.666 15.463a14.172 14.172 0 0 0 4.1248-9.108 10.549 10.549 0 0 0 1.275 0.0775h3e-3a10.477 10.477 0 0 0 1.2655-0.0771 14.173 14.173 0 0 0 4.1248 9.1075 59.974 59.974 0 0 1 17.099 34.164l-20.164-20.164a3.2998 3.2998 0 0 0-4.6668 0l-20.16 20.165a59.974 59.974 0 0 1 17.099-34.165zm5.3985 21.001 18.432 18.432h-36.864zm26.876 2.3825 2.3804 1.374 3.2998-5.7153-5.7153-3.2998-1.6194 2.8049a66.865 66.865 0 0 0-15.157-23.213 7.6338 7.6338 0 0 1 0-10.797 66.55 66.55 0 0 0 19.573-44.646 9.8995 9.8995 0 0 0-3.2392-19.252h-32.303a79.183 79.183 0 0 1 68.601-39.598c43.669 0 79.196 35.527 79.196 79.196s-35.527 79.196-79.196 79.196a78.366 78.366 0 0 1-33.879-7.5974 66.634 66.634 0 0 0-1.942-8.4525zm-56.574-63.146a93.289 93.289 0 0 1 0.84105-12.45 66.301 66.301 0 0 0 6.0073 18.933 84.764 84.764 0 0 0 9.1339 32.567 67.197 67.197 0 0 0-4.404 5.7615 92.159 92.159 0 0 1-11.578-44.811zm56.097 92.395h-52.797a3.2998 3.2998 0 0 1 0-6.5997h52.797a3.2998 3.2998 0 0 1 0 6.5997zm101.63-27.062a92.524 92.524 0 0 1-91.747 23.226 9.9181 9.9181 0 0 0-6.6446-8.8176c-7e-3 -0.18726-0.0115-0.37494-0.0206-0.5618a84.943 84.943 0 0 0 33.079 6.6158c47.308 0 85.796-38.488 85.796-85.796s-38.488-85.796-85.796-85.796a85.754 85.754 0 0 0-76.118 46.198h-7.3875a92.406 92.406 0 1 1 148.84 104.93z"/>
<path d="m-363.76-382.82h6.5997v13.199h-6.5997z"/>
<path d="m-301.07-313.53h13.199v6.5997h-13.199z"/>
<path d="m-363.76-250.83h6.5997v13.199h-6.5997z"/>
<path d="m-399.62-371.45 5.715-3.2996 3.2998 5.7153-5.715 3.2996z" stroke-width=".99998"/>
<path d="m-330.33-251.43 5.715-3.2996 3.2998 5.7153-5.715 3.2996z" stroke-width=".99998"/>
<path d="m-304.96-274.37 3.2998-5.7153 5.7153 3.2998-3.2998 5.7153z" stroke-width=".99998"/>
<path d="m-304.96-346.08 5.7153-3.2998 3.2998 5.7153-5.7153 3.2998z" stroke-width=".99998"/>
<path d="m-330.33-369.03 3.2998-5.7153 5.715 3.2996-3.2998 5.7153z" stroke-width=".99998"/>
<path d="m-354.95-302.01 19.84 10.559-5.4373 1.4569 1.7081 6.3749 13.523-3.6232a3.2998 3.2998 0 0 0 2.3334-4.0423l-3.6236-13.523-6.3749 1.7081 1.6582 6.1872-19.661-10.466a9.8945 9.8945 0 0 0-6.181-12.181v-35.499l4.2663 4.2663 4.6668-4.6668-9.8995-9.8995a3.2998 3.2998 0 0 0-4.6668 0l-9.8995 9.8995 4.6668 4.6668 4.2663-4.2663v35.499a9.8995 9.8995 0 1 0 8.8143 17.549zm-8.8143-8.217a3.2998 3.2998 0 1 1 3.2998 3.2998 3.3035 3.3035 0 0 1-3.2998-3.2998z"/>
</g>
<path d="m-173.64-277.53c-6.3463-13.659-9.7682-31.094-8.6573-44.11l0.44335-5.1946 1.3181 4.7125c0.72498 2.5919 1.9988 6.4356 2.8307 8.5415s1.9162 6.4797 2.4096 9.7196c1.0938 7.1827 3.2713 14.883 6.0324 21.332l2.0713 4.8381-4.0554 5.3111z" fill="none" stroke="#000" stroke-dashoffset="55.101" stroke-linecap="round" stroke-linejoin="round" stroke-width="9.433" style="paint-order:normal"/>
<path d="m-101.44-225.19c-2.253-0.28389-6.6704-1.0998-9.8166-1.8131-5.6735-1.2864-5.7234-1.3131-6.0885-3.2596-0.20251-1.0794-1.0866-2.8184-1.9647-3.8645-1.3501-1.6084-1.4147-1.8293-0.41836-1.4314 3.7355 1.4918 15.195 3.8925 21.468 4.4975 8.7373 0.84269 18.576 0.10322 27.555-2.071 33.27-8.0558 58.668-35.112 64.708-68.932 1.378-7.7156 1.4212-21.56 0.0902-28.864-2.0093-11.026-6.3899-22.65-11.766-31.22-8.1888-13.055-20.954-24.651-34.804-31.614-6.2953-3.1652-17.076-6.665-24.17-7.8468-7.3714-1.2279-21.252-1.2528-28.067-0.0503-22.699 4.0049-41.888 15.731-55.205 33.736-1.9639 2.6553-4.4132 6.3002-5.4427 8.0997v0l-4.2352 0.14682c-1.7571 0.0609 22.637-24.809 22.637-25.084 0-0.27531-4.7545 7.4243-23.343 21.67 10.694-17.818 26.685-31.656 45.12-39.047 11.853-4.7518 21.3-6.5 34.91-6.46 8.5103 0.025 11.153 0.26679 17.601 1.6099 37.384 7.7878 65.582 36.642 72.606 74.293 1.6332 8.755 1.511 24.253-0.26099 33.122-2.5508 12.766-8.2554 26.093-15.618 36.486-4.6114 6.5095-13.302 15.321-20.1 20.378-10.109 7.5209-24.341 13.769-37.35 16.398-6.5329 1.3201-21.663 1.925-28.043 1.1211z" fill="none" stroke="#000" stroke-dashoffset="55.101" stroke-linecap="round" stroke-linejoin="round" stroke-width="14.433" style="paint-order:normal"/>
</g>
</g>
</g>
</svg>
