<?xml version="1.0" encoding="UTF-8" standalone="no"?>
<svg
   xmlns:dc="http://purl.org/dc/elements/1.1/"
   xmlns:cc="http://creativecommons.org/ns#"
   xmlns:rdf="http://www.w3.org/1999/02/22-rdf-syntax-ns#"
   xmlns:svg="http://www.w3.org/2000/svg"
   xmlns="http://www.w3.org/2000/svg"
   xmlns:sodipodi="http://sodipodi.sourceforge.net/DTD/sodipodi-0.dtd"
   xmlns:inkscape="http://www.inkscape.org/namespaces/inkscape"
   version="1.1"
   viewBox="0 0 446.19633 461.09567"
   xml:space="preserve"
   id="svg34"
   sodipodi:docname="Memo.svg"
   inkscape:version="0.92.4 (5da689c313, 2019-01-14)"
   width="446.19632"
   height="461.09567"><sodipodi:namedview
   pagecolor="#ffffff"
   bordercolor="#666666"
   borderopacity="1"
   objecttolerance="10"
   gridtolerance="10"
   guidetolerance="10"
   inkscape:pageopacity="0"
   inkscape:pageshadow="2"
   inkscape:window-width="1920"
   inkscape:window-height="1017"
   id="namedview36"
   showgrid="true"
   inkscape:zoom="0.59"
   inkscape:cx="306.23893"
   inkscape:cy="139.86001"
   inkscape:window-x="-8"
   inkscape:window-y="-8"
   inkscape:window-maximized="1"
   inkscape:current-layer="svg34"><inkscape:grid
     type="xygrid"
     id="grid4690"
     originx="405.10063"
     originy="48.548265" /></sodipodi:namedview><metadata
   id="metadata2"><rdf:RDF><cc:Work
       rdf:about=""><dc:format>image/svg+xml</dc:format><dc:type
         rdf:resource="http://purl.org/dc/dcmitype/StillImage" /><dc:title /></cc:Work></rdf:RDF></metadata><defs
   id="defs7">
	
	
	
	
	
	
	
	
	
	
	
<clipPath
   id="b"><g
     id="use4"><path
       d="m 376,153.34 c -4.418,0 -8,3.582 -8,8 v 256 c 0,13.234 -10.766,24 -24,24 H 40 c -13.234,0 -24,-10.766 -24,-24 v -304 c 0,-13.234 10.766,-24 24,-24 h 256 c 4.418,0 8,-3.582 8,-8 0,-4.418 -3.582,-8 -8,-8 H 40 c -22.056,0 -40,17.944 -40,40 v 304 c 0,22.056 17.944,40 40,40 h 304 c 22.056,0 40,-17.944 40,-40 v -256 c 0,-4.418 -3.582,-8 -8,-8 z"
       id="path855"
       inkscape:connector-curvature="0" /><path
       d="M 466.31,12.823 C 460.6764,6.3939 453.472,2.035 446.024,0.548 438.576,-0.9387 431.78,0.62587 426.889,4.9525 l -208.11,183.88 c -0.61503,0.54275 -1.0812,1.243 -1.3704,2.0581 l -16.574,46.667 c -0.86565,2.4387 -0.0533,5.5905 2.0631,8.0043 1.4265,1.6269 3.2586,2.7058 5.0722,3.0678 0.87895,0.17546 1.7532,0.1833 2.575,0.003 l 48.216,-10.579 c 0.84213,-0.18455 1.5929,-0.56015 2.2076,-1.1033 l 208.11,-183.88 c 4.8958,-4.3247 7.3046,-10.892 6.7811,-18.496 -0.52345,-7.6031 -3.9163,-15.329 -9.5494,-21.752 z m -210.53,207.35 -21.093,-24.057 191.69,-169.37 21.093,24.057 z m -27.947,-13.327 16.475,18.789 -25.105,5.5086 z m 230.69,-165.81 -1.8976,1.6766 -21.093,-24.057 1.8999,-1.6788 c 2.444,-2.1622 5.8414,-2.9438 9.5645,-2.2007 3.7231,0.74317 7.3243,2.9217 10.142,6.1378 2.8175,3.2125 4.514,7.0759 4.7756,10.876 0.26162,3.7997 -0.94275,7.0841 -3.3911,9.2463 z"
       id="path857"
       inkscape:connector-curvature="0"
       style="stroke-width:0.87417001" /><path
       d="m 240,145.34 c 0,-4.418 -3.582,-8 -8,-8 H 72 c -4.418,0 -8,3.582 -8,8 0,4.418 3.582,8 8,8 h 160 c 4.418,0 8,-3.582 8,-8 z"
       id="path859"
       inkscape:connector-curvature="0" /><path
       d="m 200,185.34 c 0,-4.418 -3.582,-8 -8,-8 H 72 c -4.418,0 -8,3.582 -8,8 0,4.418 3.582,8 8,8 h 120 c 4.418,0 8,-3.582 8,-8 z"
       id="path861"
       inkscape:connector-curvature="0" /><path
       d="M 168,217.34 H 72 c -4.418,0 -8,3.582 -8,8 0,4.418 3.582,8 8,8 h 96 c 4.418,0 8,-3.582 8,-8 0,-4.418 -3.582,-8 -8,-8 z"
       id="path863"
       inkscape:connector-curvature="0" /><path
       d="m 72,273.34 h 80 c 4.418,0 8,-3.582 8,-8 0,-4.418 -3.582,-8 -8,-8 H 72 c -4.418,0 -8,3.582 -8,8 0,4.418 3.582,8 8,8 z"
       id="path865"
       inkscape:connector-curvature="0" /><path
       d="m 264,265.34 c 0,4.418 3.582,8 8,8 h 40 c 4.418,0 8,-3.582 8,-8 0,-4.418 -3.582,-8 -8,-8 h -40 c -4.418,0 -8,3.582 -8,8 z"
       id="path867"
       inkscape:connector-curvature="0" /><path
       d="m 317.66,231 c 1.49,-1.49 2.34,-3.55 2.34,-5.66 0,-2.11 -0.85,-4.17 -2.34,-5.66 -1.49,-1.49 -3.55,-2.34 -5.66,-2.34 -2.1,0 -4.17,0.85 -5.66,2.34 -1.49,1.49 -2.34,3.56 -2.34,5.66 0,2.11 0.85,4.17 2.34,5.66 1.49,1.49 3.56,2.34 5.66,2.34 2.1,0 4.17,-0.85 5.66,-2.34 z"
       id="path869"
       inkscape:connector-curvature="0" /><path
       d="m 64,305.34 c 0,4.418 3.582,8 8,8 h 240 c 4.418,0 8,-3.582 8,-8 0,-4.418 -3.582,-8 -8,-8 H 72 c -4.418,0 -8,3.582 -8,8 z"
       id="path871"
       inkscape:connector-curvature="0" /><path
       d="M 312,337.34 H 72 c -4.418,0 -8,3.582 -8,8 0,4.418 3.582,8 8,8 h 240 c 4.418,0 8,-3.582 8,-8 0,-4.418 -3.582,-8 -8,-8 z"
       id="path873"
       inkscape:connector-curvature="0" /><path
       d="M 312,377.34 H 72 c -4.418,0 -8,3.582 -8,8 0,4.418 3.582,8 8,8 h 240 c 4.418,0 8,-3.582 8,-8 0,-4.418 -3.582,-8 -8,-8 z"
       id="path875"
       inkscape:connector-curvature="0" /></g></clipPath><clipPath
   clipPathUnits="userSpaceOnUse"
   id="clipPath901"><g
     inkscape:label="Clip"
     id="use903"><circle
       r="40.134823"
       cy="244.72099"
       cx="148.59441"
       id="circle907"
       style="fill:#800000;fill-opacity:1;stroke:none;stroke-width:15;stroke-miterlimit:4;stroke-dasharray:none;stroke-opacity:1" /></g></clipPath></defs>
















<g
   id="g1449"><path
     inkscape:connector-curvature="0"
     id="path9"
     d="m 40.962695,73.070313 c -22.046362,0.01357 -41.48546982,19.944842 -40.94140592,41.986327 0.084268,102.41558 -0.1679189,204.83972 0.125,307.25 1.16831632,21.591 21.28589392,39.74452 42.87499992,38.75 102.082251,-0.0843 204.173051,0.16793 306.250001,-0.125 21.59102,-1.16882 39.74487,-21.28575 38.75,-42.875 -0.13715,-85.66653 0.27315,-171.36999 -0.20312,-257.01367 -1.24759,-8.23025 -13.25012,-10.87522 -17.83985,-3.92969 -4.2989,6.75817 -0.84193,15.47815 -1.95703,22.94336 -0.11684,80.59066 0.23306,161.2006 -0.17383,241.7793 -1.23014,12.36604 -13.86565,20.9397 -25.85156,19.2207 C 241.08035,440.94012 140.14558,441.28926 39.241992,440.88281 26.860714,439.65667 18.298746,427.01784 20.021289,415.03125 20.137808,314.1157 19.78867,213.18093 20.195117,112.27734 21.451634,99.436388 34.787554,91.103307 47.04668,93.056642 c 84.34067,-0.143885 168.72091,0.286474 253.03711,-0.212891 8.20093,-1.287029 10.80679,-13.251769 3.88086,-17.830078 -6.75817,-4.298901 -15.47815,-0.841933 -22.94336,-1.957031 -80.0195,0.0091 -160.03925,-0.01826 -240.058595,0.01367 z"
     style="fill:#000000;stroke-width:0.1;stroke-miterlimit:4;stroke-dasharray:none" /><path
     style="fill:#000080"
     inkscape:connector-curvature="0"
     id="path13"
     d="m 242.02129,147.05655 c 0,-4.418 -3.582,-8 -8,-8 H 74.021289 c -4.418,0 -8,3.582 -8,8 0,4.418 3.582,8 8,8 H 234.02129 c 4.418,0 8,-3.582 8,-8 z" /><path
     style="fill:#000080"
     inkscape:connector-curvature="0"
     id="path15"
     d="m 202.02129,187.05655 c 0,-4.418 -3.582,-8 -8,-8 H 74.021289 c -4.418,0 -8,3.582 -8,8 0,4.418 3.582,8 8,8 H 194.02129 c 4.418,0 8,-3.582 8,-8 z" /><path
     style="fill:#000080"
     inkscape:connector-curvature="0"
     id="path17"
     d="M 170.02129,219.05655 H 74.021289 c -4.418,0 -8,3.582 -8,8 0,4.418 3.582,8 8,8 h 96.000001 c 4.418,0 8,-3.582 8,-8 0,-4.418 -3.582,-8 -8,-8 z" /><path
     style="fill:#000080"
     inkscape:connector-curvature="0"
     id="path19"
     d="m 74.021289,275.05655 h 80.000001 c 4.418,0 8,-3.582 8,-8 0,-4.418 -3.582,-8 -8,-8 H 74.021289 c -4.418,0 -8,3.582 -8,8 0,4.418 3.582,8 8,8 z" /><path
     style="fill:#000080"
     inkscape:connector-curvature="0"
     id="path25"
     d="m 66.021289,307.05655 c 0,4.418 3.582,8 8,8 H 314.02129 c 4.418,0 8,-3.582 8,-8 0,-4.418 -3.582,-8 -8,-8 H 74.021289 c -4.418,0 -8,3.582 -8,8 z" /><path
     style="fill:#000080"
     inkscape:connector-curvature="0"
     id="path27"
     d="M 314.02129,339.05655 H 74.021289 c -4.418,0 -8,3.582 -8,8 0,4.418 3.582,8 8,8 H 314.02129 c 4.418,0 8,-3.582 8,-8 0,-4.418 -3.582,-8 -8,-8 z" /><path
     style="fill:#000080"
     inkscape:connector-curvature="0"
     id="path29"
     d="M 314.02129,379.05655 H 74.021289 c -4.418,0 -8,3.582 -8,8 0,4.418 3.582,8 8,8 H 314.02129 c 4.418,0 8,-3.582 8,-8 0,-4.418 -3.582,-8 -8,-8 z" /><g
     transform="rotate(-49.876858,3.4666908,143.25511)"
     id="g4812"><path
       sodipodi:type="star"
       style="fill:#000080;fill-opacity:1;stroke:#000000;stroke-width:18.04338837;stroke-linejoin:round;stroke-miterlimit:4;stroke-dasharray:none;stroke-opacity:1"
       id="path4698"
       sodipodi:sides="3"
       sodipodi:cx="-22.366158"
       sodipodi:cy="357.34"
       sodipodi:r1="52.633842"
       sodipodi:r2="26.316921"
       sodipodi:arg1="1.0471976"
       sodipodi:arg2="2.0943951"
       inkscape:flatsided="false"
       inkscape:rounded="0"
       inkscape:randomized="0"
       d="M 3.9507615,402.92224 -35.524618,380.13112 -75,357.33999 -35.524618,334.54887 3.9507659,311.75775 3.9507637,357.34 Z"
       inkscape:transform-center-x="7.861912"
       transform="matrix(0.59747945,0,0,0.61730725,78.039697,164.88968)"
       inkscape:transform-center-y="5.8256483e-06" /><g
       id="g4792"
       transform="translate(6.4617004,6.3002319)"><g
         id="g4763"><path
           style="fill:#aa0000;fill-opacity:1;stroke:#000000;stroke-width:11.10000038;stroke-miterlimit:4;stroke-dasharray:none;stroke-opacity:1"
           id="path985"
           sodipodi:type="arc"
           sodipodi:cx="-379.21661"
           sodipodi:cy="343.42639"
           sodipodi:rx="28.123482"
           sodipodi:ry="29.538126"
           sodipodi:start="0"
           sodipodi:end="3.1390385"
           d="m -351.09313,343.42639 a 28.123482,29.538126 0 0 1 -28.08757,29.5381 28.123482,29.538126 0 0 1 -28.1593,-29.46265 l 28.12339,-0.0754 z"
           transform="rotate(-90)" /><rect
           style="fill:#552200;fill-opacity:1;stroke:#000000;stroke-width:11.10000038;stroke-linecap:butt;stroke-linejoin:round;stroke-miterlimit:4;stroke-dasharray:none;stroke-opacity:1"
           id="rect965"
           width="264.96454"
           height="56.298229"
           x="78.5373"
           y="351.04178" /></g><rect
         transform="scale(1,-1)"
         y="-407.34"
         x="78.5373"
         height="0.001"
         width="0.0010000005"
         id="rect4714"
         style="fill:#000000;fill-opacity:1;stroke:#000000;stroke-width:11.10000038;stroke-linecap:butt;stroke-linejoin:miter;stroke-miterlimit:4;stroke-dasharray:none;stroke-opacity:1" /><rect
         transform="scale(1,-1)"
         y="-351.04178"
         x="78.536301"
         height="0.001"
         width="0.0010000005"
         id="rect4714-1"
         style="fill:#000000;fill-opacity:1;stroke:#000000;stroke-width:11.10000038;stroke-linecap:butt;stroke-linejoin:miter;stroke-miterlimit:4;stroke-dasharray:none;stroke-opacity:1" /><rect
         transform="scale(1,-1)"
         y="-351.04077"
         x="78.5373"
         height="0.001"
         width="0.0010000005"
         id="rect4714-7"
         style="fill:#000000;fill-opacity:1;stroke:#000000;stroke-width:11.10000038;stroke-linecap:butt;stroke-linejoin:miter;stroke-miterlimit:4;stroke-dasharray:none;stroke-opacity:1" /></g></g></g></svg>