<?xml version="1.0" encoding="UTF-8" standalone="no"?>
<svg
   xmlns:dc="http://purl.org/dc/elements/1.1/"
   xmlns:cc="http://creativecommons.org/ns#"
   xmlns:rdf="http://www.w3.org/1999/02/22-rdf-syntax-ns#"
   xmlns:svg="http://www.w3.org/2000/svg"
   xmlns="http://www.w3.org/2000/svg"
   xmlns:sodipodi="http://sodipodi.sourceforge.net/DTD/sodipodi-0.dtd"
   xmlns:inkscape="http://www.inkscape.org/namespaces/inkscape"
   version="1.1"
   viewBox="0 0 444.17503 459.05655"
   xml:space="preserve"
   id="svg34"
   sodipodi:docname="Memo.svg"
   inkscape:version="0.92.4 (5da689c313, 2019-01-14)"
   width="444.17502"
   height="459.05655"><sodipodi:namedview
   pagecolor="#ffffff"
   bordercolor="#666666"
   borderopacity="1"
   objecttolerance="10"
   gridtolerance="10"
   guidetolerance="10"
   inkscape:pageopacity="0"
   inkscape:pageshadow="2"
   inkscape:window-width="1920"
   inkscape:window-height="1017"
   id="namedview36"
   showgrid="true"
   inkscape:zoom="0.59"
   inkscape:cx="579.64137"
   inkscape:cy="137.8209"
   inkscape:window-x="-8"
   inkscape:window-y="-8"
   inkscape:window-maximized="1"
   inkscape:current-layer="svg34"><inkscape:grid
     type="xygrid"
     id="grid4690"
     originx="403.07933"
     originy="46.509154" /></sodipodi:namedview><metadata
   id="metadata2"><rdf:RDF><cc:Work
       rdf:about=""><dc:format>image/svg+xml</dc:format><dc:type
         rdf:resource="http://purl.org/dc/dcmitype/StillImage" /><dc:title /></cc:Work></rdf:RDF></metadata><defs
   id="defs7">
	
	
	
	
	
	
	
	
	
	
	
<clipPath
   id="b"><g
     id="use4"><path
       d="m 376,153.34 c -4.418,0 -8,3.582 -8,8 v 256 c 0,13.234 -10.766,24 -24,24 H 40 c -13.234,0 -24,-10.766 -24,-24 v -304 c 0,-13.234 10.766,-24 24,-24 h 256 c 4.418,0 8,-3.582 8,-8 0,-4.418 -3.582,-8 -8,-8 H 40 c -22.056,0 -40,17.944 -40,40 v 304 c 0,22.056 17.944,40 40,40 h 304 c 22.056,0 40,-17.944 40,-40 v -256 c 0,-4.418 -3.582,-8 -8,-8 z"
       id="path855"
       inkscape:connector-curvature="0" /><path
       d="M 466.31,12.823 C 460.6764,6.3939 453.472,2.035 446.024,0.548 438.576,-0.9387 431.78,0.62587 426.889,4.9525 l -208.11,183.88 c -0.61503,0.54275 -1.0812,1.243 -1.3704,2.0581 l -16.574,46.667 c -0.86565,2.4387 -0.0533,5.5905 2.0631,8.0043 1.4265,1.6269 3.2586,2.7058 5.0722,3.0678 0.87895,0.17546 1.7532,0.1833 2.575,0.003 l 48.216,-10.579 c 0.84213,-0.18455 1.5929,-0.56015 2.2076,-1.1033 l 208.11,-183.88 c 4.8958,-4.3247 7.3046,-10.892 6.7811,-18.496 -0.52345,-7.6031 -3.9163,-15.329 -9.5494,-21.752 z m -210.53,207.35 -21.093,-24.057 191.69,-169.37 21.093,24.057 z m -27.947,-13.327 16.475,18.789 -25.105,5.5086 z m 230.69,-165.81 -1.8976,1.6766 -21.093,-24.057 1.8999,-1.6788 c 2.444,-2.1622 5.8414,-2.9438 9.5645,-2.2007 3.7231,0.74317 7.3243,2.9217 10.142,6.1378 2.8175,3.2125 4.514,7.0759 4.7756,10.876 0.26162,3.7997 -0.94275,7.0841 -3.3911,9.2463 z"
       id="path857"
       inkscape:connector-curvature="0"
       style="stroke-width:0.87417001" /><path
       d="m 240,145.34 c 0,-4.418 -3.582,-8 -8,-8 H 72 c -4.418,0 -8,3.582 -8,8 0,4.418 3.582,8 8,8 h 160 c 4.418,0 8,-3.582 8,-8 z"
       id="path859"
       inkscape:connector-curvature="0" /><path
       d="m 200,185.34 c 0,-4.418 -3.582,-8 -8,-8 H 72 c -4.418,0 -8,3.582 -8,8 0,4.418 3.582,8 8,8 h 120 c 4.418,0 8,-3.582 8,-8 z"
       id="path861"
       inkscape:connector-curvature="0" /><path
       d="M 168,217.34 H 72 c -4.418,0 -8,3.582 -8,8 0,4.418 3.582,8 8,8 h 96 c 4.418,0 8,-3.582 8,-8 0,-4.418 -3.582,-8 -8,-8 z"
       id="path863"
       inkscape:connector-curvature="0" /><path
       d="m 72,273.34 h 80 c 4.418,0 8,-3.582 8,-8 0,-4.418 -3.582,-8 -8,-8 H 72 c -4.418,0 -8,3.582 -8,8 0,4.418 3.582,8 8,8 z"
       id="path865"
       inkscape:connector-curvature="0" /><path
       d="m 264,265.34 c 0,4.418 3.582,8 8,8 h 40 c 4.418,0 8,-3.582 8,-8 0,-4.418 -3.582,-8 -8,-8 h -40 c -4.418,0 -8,3.582 -8,8 z"
       id="path867"
       inkscape:connector-curvature="0" /><path
       d="m 317.66,231 c 1.49,-1.49 2.34,-3.55 2.34,-5.66 0,-2.11 -0.85,-4.17 -2.34,-5.66 -1.49,-1.49 -3.55,-2.34 -5.66,-2.34 -2.1,0 -4.17,0.85 -5.66,2.34 -1.49,1.49 -2.34,3.56 -2.34,5.66 0,2.11 0.85,4.17 2.34,5.66 1.49,1.49 3.56,2.34 5.66,2.34 2.1,0 4.17,-0.85 5.66,-2.34 z"
       id="path869"
       inkscape:connector-curvature="0" /><path
       d="m 64,305.34 c 0,4.418 3.582,8 8,8 h 240 c 4.418,0 8,-3.582 8,-8 0,-4.418 -3.582,-8 -8,-8 H 72 c -4.418,0 -8,3.582 -8,8 z"
       id="path871"
       inkscape:connector-curvature="0" /><path
       d="M 312,337.34 H 72 c -4.418,0 -8,3.582 -8,8 0,4.418 3.582,8 8,8 h 240 c 4.418,0 8,-3.582 8,-8 0,-4.418 -3.582,-8 -8,-8 z"
       id="path873"
       inkscape:connector-curvature="0" /><path
       d="M 312,377.34 H 72 c -4.418,0 -8,3.582 -8,8 0,4.418 3.582,8 8,8 h 240 c 4.418,0 8,-3.582 8,-8 0,-4.418 -3.582,-8 -8,-8 z"
       id="path875"
       inkscape:connector-curvature="0" /></g></clipPath><clipPath
   clipPathUnits="userSpaceOnUse"
   id="clipPath901"><g
     inkscape:label="Clip"
     id="use903"><circle
       r="40.134823"
       cy="244.72099"
       cx="148.59441"
       id="circle907"
       style="fill:#800000;fill-opacity:1;stroke:none;stroke-width:15;stroke-miterlimit:4;stroke-dasharray:none;stroke-opacity:1" /></g></clipPath></defs>















<path
   d="m 376,155.05655 c -4.418,0 -8,3.582 -8,8 v 256 c 0,13.234 -10.766,24 -24,24 H 40 c -13.234,0 -24,-10.766 -24,-24 v -304 c 0,-13.234 10.766,-24.000001 24,-24.000001 h 256 c 4.418,0 8,-3.582 8,-8 0,-4.418 -3.582,-8 -8,-8 H 40 c -22.056,0 -40,17.944 -40,40.000001 v 304 c 0,22.056 17.944,40 40,40 h 304 c 22.056,0 40,-17.944 40,-40 v -256 c 0,-4.418 -3.582,-8 -8,-8 z"
   id="path9"
   inkscape:connector-curvature="0"
   style="fill:#000080" /><path
   d="m 240,147.05655 c 0,-4.418 -3.582,-8 -8,-8 H 72 c -4.418,0 -8,3.582 -8,8 0,4.418 3.582,8 8,8 h 160 c 4.418,0 8,-3.582 8,-8 z"
   id="path13"
   inkscape:connector-curvature="0" /><path
   d="m 200,187.05655 c 0,-4.418 -3.582,-8 -8,-8 H 72 c -4.418,0 -8,3.582 -8,8 0,4.418 3.582,8 8,8 h 120 c 4.418,0 8,-3.582 8,-8 z"
   id="path15"
   inkscape:connector-curvature="0" /><path
   d="M 168,219.05655 H 72 c -4.418,0 -8,3.582 -8,8 0,4.418 3.582,8 8,8 h 96 c 4.418,0 8,-3.582 8,-8 0,-4.418 -3.582,-8 -8,-8 z"
   id="path17"
   inkscape:connector-curvature="0" /><path
   d="m 72,275.05655 h 80 c 4.418,0 8,-3.582 8,-8 0,-4.418 -3.582,-8 -8,-8 H 72 c -4.418,0 -8,3.582 -8,8 0,4.418 3.582,8 8,8 z"
   id="path19"
   inkscape:connector-curvature="0" /><path
   d="m 64,307.05655 c 0,4.418 3.582,8 8,8 h 240 c 4.418,0 8,-3.582 8,-8 0,-4.418 -3.582,-8 -8,-8 H 72 c -4.418,0 -8,3.582 -8,8 z"
   id="path25"
   inkscape:connector-curvature="0" /><path
   d="M 312,339.05655 H 72 c -4.418,0 -8,3.582 -8,8 0,4.418 3.582,8 8,8 h 240 c 4.418,0 8,-3.582 8,-8 0,-4.418 -3.582,-8 -8,-8 z"
   id="path27"
   inkscape:connector-curvature="0" /><path
   d="M 312,379.05655 H 72 c -4.418,0 -8,3.582 -8,8 0,4.418 3.582,8 8,8 h 240 c 4.418,0 8,-3.582 8,-8 0,-4.418 -3.582,-8 -8,-8 z"
   id="path29"
   inkscape:connector-curvature="0" />
<g
   id="g4812"
   transform="rotate(-49.876858,2.4560454,145.42854)"><path
     inkscape:transform-center-y="5.8256483e-06"
     transform="matrix(0.59747945,0,0,0.61730725,78.039697,164.88968)"
     inkscape:transform-center-x="7.861912"
     d="M 3.9507615,402.92224 -35.524618,380.13112 -75,357.33999 -35.524618,334.54887 3.9507659,311.75775 3.9507637,357.34 Z"
     inkscape:randomized="0"
     inkscape:rounded="0"
     inkscape:flatsided="false"
     sodipodi:arg2="2.0943951"
     sodipodi:arg1="1.0471976"
     sodipodi:r2="26.316921"
     sodipodi:r1="52.633842"
     sodipodi:cy="357.34"
     sodipodi:cx="-22.366158"
     sodipodi:sides="3"
     id="path4698"
     style="fill:#000080;fill-opacity:1;stroke:#000000;stroke-width:18.04338837;stroke-linejoin:round;stroke-miterlimit:4;stroke-dasharray:none;stroke-opacity:1"
     sodipodi:type="star" /><g
     transform="translate(6.4617004,6.3002319)"
     id="g4792"><g
       id="g4763"><path
         transform="rotate(-90)"
         d="m -351.09313,343.42639 a 28.123482,29.538126 0 0 1 -28.08757,29.5381 28.123482,29.538126 0 0 1 -28.1593,-29.46265 l 28.12339,-0.0754 z"
         sodipodi:end="3.1390385"
         sodipodi:start="0"
         sodipodi:ry="29.538126"
         sodipodi:rx="28.123482"
         sodipodi:cy="343.42639"
         sodipodi:cx="-379.21661"
         sodipodi:type="arc"
         id="path985"
         style="fill:#aa0000;fill-opacity:1;stroke:#000000;stroke-width:11.10000038;stroke-miterlimit:4;stroke-dasharray:none;stroke-opacity:1" /><rect
         y="351.04178"
         x="78.5373"
         height="56.298229"
         width="264.96454"
         id="rect965"
         style="fill:#552200;fill-opacity:1;stroke:#000000;stroke-width:11.10000038;stroke-linecap:butt;stroke-linejoin:round;stroke-miterlimit:4;stroke-dasharray:none;stroke-opacity:1" /></g><rect
       style="fill:#000000;fill-opacity:1;stroke:#000000;stroke-width:11.10000038;stroke-linecap:butt;stroke-linejoin:miter;stroke-miterlimit:4;stroke-dasharray:none;stroke-opacity:1"
       id="rect4714"
       width="0.0010000005"
       height="0.001"
       x="78.5373"
       y="-407.34"
       transform="scale(1,-1)" /><rect
       style="fill:#000000;fill-opacity:1;stroke:#000000;stroke-width:11.10000038;stroke-linecap:butt;stroke-linejoin:miter;stroke-miterlimit:4;stroke-dasharray:none;stroke-opacity:1"
       id="rect4714-1"
       width="0.0010000005"
       height="0.001"
       x="78.536301"
       y="-351.04178"
       transform="scale(1,-1)" /><rect
       style="fill:#000000;fill-opacity:1;stroke:#000000;stroke-width:11.10000038;stroke-linecap:butt;stroke-linejoin:miter;stroke-miterlimit:4;stroke-dasharray:none;stroke-opacity:1"
       id="rect4714-7"
       width="0.0010000005"
       height="0.001"
       x="78.5373"
       y="-351.04077"
       transform="scale(1,-1)" /></g></g></svg>