<?xml version="1.0" encoding="UTF-8"?>
<svg version="1.1" viewBox="0 0 446.2 461.1" xml:space="preserve" xmlns="http://www.w3.org/2000/svg" xmlns:cc="http://creativecommons.org/ns#" xmlns:dc="http://purl.org/dc/elements/1.1/" xmlns:rdf="http://www.w3.org/1999/02/22-rdf-syntax-ns#"><metadata><rdf:RDF><cc:Work rdf:about=""><dc:format>image/svg+xml</dc:format><dc:type rdf:resource="http://purl.org/dc/dcmitype/StillImage"/><dc:title/></cc:Work></rdf:RDF></metadata>
















<path d="m42.122 62.084c-22.671 0.013954-42.66 20.51-42.101 43.175 0.086654 105.32-0.17267 210.64 0.12854 315.95 1.2014 22.202 21.889 40.87 44.089 39.847 104.97-0.0867 209.95 0.17268 314.92-0.12854 22.202-1.2019 40.87-21.888 39.847-44.089-0.14103-88.092 0.28088-176.22-0.20887-264.29-1.2829-8.4633-13.625-11.183-18.345-4.041-4.4206 6.9495-0.86577 15.916-2.0124 23.593-0.12015 82.872 0.23966 165.76-0.17875 248.62-1.265 12.716-14.258 21.533-26.584 19.765-103.77-0.11982-207.57 0.2392-311.33-0.17875-12.732-1.2609-21.536-14.258-19.765-26.584 0.11982-103.77-0.23921-207.57 0.17875-311.33 1.2921-13.205 15.006-21.774 27.612-19.765 86.729-0.14796 173.5 0.29458 260.2-0.21892 8.4331-1.3235 11.113-13.627 3.9907-18.335-6.9495-4.4206-15.916-0.86577-23.593-2.0124-82.285 0.0094-164.57-0.01878-246.86 0.01406z"/><g transform="translate(5.5026)" fill="#000080"><path d="m242.02 147.06c0-4.418-3.582-8-8-8h-160c-4.418 0-8 3.582-8 8s3.582 8 8 8h160c4.418 0 8-3.582 8-8z"/><path d="m202.02 187.06c0-4.418-3.582-8-8-8h-120c-4.418 0-8 3.582-8 8s3.582 8 8 8h120c4.418 0 8-3.582 8-8z"/><path d="m170.02 219.06h-96c-4.418 0-8 3.582-8 8s3.582 8 8 8h96c4.418 0 8-3.582 8-8s-3.582-8-8-8z"/><path d="m74.021 275.06h80c4.418 0 8-3.582 8-8s-3.582-8-8-8h-80c-4.418 0-8 3.582-8 8s3.582 8 8 8z"/><path d="m66.021 307.06c0 4.418 3.582 8 8 8h240c4.418 0 8-3.582 8-8s-3.582-8-8-8h-240c-4.418 0-8 3.582-8 8z"/><path d="m314.02 339.06h-240c-4.418 0-8 3.582-8 8s3.582 8 8 8h240c4.418 0 8-3.582 8-8s-3.582-8-8-8z"/><path d="m314.02 379.06h-240c-4.418 0-8 3.582-8 8s3.582 8 8 8h240c4.418 0 8-3.582 8-8s-3.582-8-8-8z"/></g><path transform="matrix(.38504 -.45687 .47203 .39781 68.067 100.17)" d="m3.9508 402.92-78.951-45.582 78.951-45.582-2.2e-6 45.582z" fill="#000080" stroke="#000" stroke-linejoin="round" stroke-width="18.043"/><path transform="rotate(220.12)" d="m-309.11 239.11a28.123 29.538 0 0 1-28.088 29.538 28.123 29.538 0 0 1-28.159-29.463l28.123-0.0754z" fill="#a00" stroke="#000" stroke-width="11.1"/><rect transform="rotate(-49.877)" x="-25.775" y="309.06" width="264.96" height="56.298" fill="#704a18" fill-opacity=".81961" stroke="#000" stroke-linejoin="round" stroke-width="11.1"/><rect transform="matrix(.64443 -.76466 -.76466 -.64443 0 0)" x="-25.775" y="-365.35" width=".001" height=".001" stroke="#000" stroke-width="11.1"/><rect transform="matrix(.64443 -.76466 -.76466 -.64443 0 0)" x="-25.776" y="-309.06" width=".001" height=".001" stroke="#000" stroke-width="11.1"/><rect transform="matrix(.64443 -.76466 -.76466 -.64443 0 0)" x="-25.775" y="-309.05" width=".001" height=".001" stroke="#000" stroke-width="11.1"/></svg>
