<?xml version="1.0" encoding="UTF-8"?>
<svg width="162.24mm" height="111.34mm" version="1.1" viewBox="0 0 162.24 111.34" xmlns="http://www.w3.org/2000/svg" xmlns:cc="http://creativecommons.org/ns#" xmlns:dc="http://purl.org/dc/elements/1.1/" xmlns:rdf="http://www.w3.org/1999/02/22-rdf-syntax-ns#">
<metadata>
<rdf:RDF>
<cc:Work rdf:about="">
<dc:format>image/svg+xml</dc:format>
<dc:type rdf:resource="http://purl.org/dc/dcmitype/StillImage"/>
<dc:title/>
</cc:Work>
</rdf:RDF>
</metadata>
<g transform="translate(-111.79 -240.12)">
<g transform="translate(-25.556 .30066)">
<g transform="translate(-1.1101 -2.4347)">
<path d="m191.06 343.96c-0.11934-0.13697-0.67942-1.6433-1.2446-3.3475-1.181-3.5609-0.96571-3.3043-3.1763-3.7857-2.2952-0.49978-1.9699-0.64537-4.7281 2.1164-1.5301 1.5321-2.5213 2.4192-2.7025 2.4188-0.15742-3.6e-4 -1.423-0.64358-2.8124-1.4294-2.398-1.3563-2.5262-1.4505-2.5262-1.8574 0-0.23578 0.35507-1.801 0.78906-3.4782 0.65607-2.5354 0.76138-3.1038 0.62479-3.3721-0.0903-0.17747-0.74839-0.91506-1.4623-1.6391-0.9055-0.91838-1.3991-1.3164-1.6323-1.3164-0.27181 0-3.0738 0.60179-5.888 1.2646-0.34428 0.0811-0.63162 0.0684-0.8379-0.0369-0.38836-0.1983-2.831-4.8325-2.8343-5.3772-2e-3 -0.30416 0.4075-0.76341 2.093-2.3483 1.1524-1.0836 2.2731-2.1413 2.4906-2.3506 0.48499-0.46669 0.50009-0.84808 0.11274-2.8463-0.17599-0.90789-0.37732-1.5486-0.5337-1.6985-0.1381-0.13236-1.66-0.75528-3.3821-1.3843l-3.131-1.1436 0.03-1.2546c0.0506-2.1117 0.45321-4.9152 0.74975-5.2208 0.19426-0.20019 1.0665-0.41221 3.529-0.85789 1.7991-0.32557 3.3676-0.67217 3.4858-0.77017 0.26309-0.21836 1.385-2.8848 1.385-3.2918 0-0.16156-0.89661-1.4785-1.9925-2.9264-1.211-1.6001-1.9925-2.7601-1.9925-2.9576 0-0.38199 3.6948-5.0174 4.1024-5.1468 0.14473-0.0459 0.54575 0.0387 0.89116 0.18789 2.6859 1.1608 5.5815 2.2948 5.8594 2.2948 0.38602 0 2.2925-1.2957 2.6024-1.7686 0.18359-0.28021 0.17781-0.70265-0.0489-3.5555-0.18453-2.3232-0.21484-3.3207-0.10733-3.532 0.11222-0.22053 0.86399-0.53842 2.9962-1.2669 1.5655-0.5349 3.0333-0.95771 3.2618-0.9396 0.36637 0.029 0.63111 0.34258 2.2416 2.6547 1.0044 1.442 1.9321 2.7388 2.0616 2.882 0.34107 0.37687 2.8845 0.38572 3.2102 0.0112 0.11912-0.13698 0.87005-1.4659 1.6687-2.9531s1.5729-2.8275 1.7204-2.9784c0.26487-0.27082 0.29-0.26935 1.9469 0.11251 4.0145 0.92527 4.8025 1.1615 4.9659 1.4889 0.0893 0.17881 0.19969 1.6964 0.25743 3.5385 0.0556 1.774 0.16228 3.3397 0.23704 3.4794 0.1538 0.28737 1.6669 1.2127 2.2031 1.3473 0.27694 0.0695 0.99805-0.26935 3.3536-1.5759 2.2338-1.239 3.0845-1.6435 3.328-1.5823 0.44813 0.11247 4.7675 4.6241 4.7675 4.9797 0 0.15332-0.74632 1.5321-1.6585 3.064-1.1217 1.8837-1.659 2.9234-1.6601 3.2122-3e-3 0.55321 0.98965 2.3356 1.3827 2.485 0.16681 0.0634 1.7434 0.21252 3.5034 0.33133 1.7601 0.1188 3.3124 0.26115 3.4497 0.31633 0.30163 0.12124 0.48757 0.76065 1.1874 4.0831 0.44895 2.1314 0.50133 2.5546 0.34024 2.7487-0.10473 0.12618-1.5178 0.89772-3.1402 1.7145-2.6397 1.329-2.9662 1.5322-3.1061 1.9335-0.1885 0.54073-0.20425 2.6715-0.0218 2.9598 0.0716 0.11309 1.3354 1.1058 2.8086 2.2059 1.9433 1.4513 2.6913 2.0908 2.7252 2.3298 0.0686 0.48391-1.9607 5.9898-2.2683 6.1544-0.16647 0.0891-1.3397 0.0166-3.4723-0.21428-2.0669-0.22385-3.3387-0.30401-3.5499-0.22373-0.48254 0.18346-2.0709 2.4418-2.0694 2.9423 5.2e-4 0.22263 0.513 1.7488 1.1386 3.3914 0.62553 1.6426 1.1373 3.0876 1.1373 3.2111s-0.17613 0.38729-0.39139 0.58622c-0.57223 0.52884-4.3366 3.3295-4.6068 3.4274-0.31919 0.1157-0.72884-0.16437-3.2563-2.2262-1.2133-0.98977-2.3546-1.8385-2.5362-1.886-0.4595-0.12028-3.5516 1.0475-3.8008 1.4354-0.10356 0.16118-0.45088 1.5739-0.77185 3.1394-0.77121 3.7617-0.76174 3.7354-1.4048 3.8996-0.68158 0.17406-3.553 0.4411-4.743 0.4411-0.70919 0-0.98278-0.0593-1.148-0.24905zm4.2674-13.215c3.7254-0.65945 7.2056-2.5349 9.9438-5.3586 2.6562-2.7391 4.1834-5.616 4.9924-9.4046 0.3521-1.6489 0.34315-5.5435-0.0166-7.2098-1.5528-7.1931-6.8528-12.697-13.92-14.455-1.9673-0.48949-5.0864-0.61526-7.2052-0.29056-7.7855 1.1932-14.007 7.2909-15.459 15.153-0.28691 1.5527-0.28711 4.8248-4.2e-4 6.4638 0.44524 2.5453 1.5649 5.2544 3.0944 7.4872 1.5105 2.205 4.442 4.74 6.923 5.9866 3.4366 1.7267 7.7135 2.3246 11.647 1.6282z"/>
<path d="m246.32 314.83c-0.11934-0.13699-0.67941-1.6434-1.2446-3.3475-1.181-3.5609-0.96572-3.3043-3.1763-3.7857-2.2952-0.49978-1.9699-0.64538-4.7281 2.1164-1.5301 1.5321-2.5213 2.4192-2.7025 2.4188-0.1574-4.3e-4 -1.423-0.64359-2.8124-1.4294-2.398-1.3563-2.5262-1.4505-2.5262-1.8574 0-0.2358 0.35508-1.801 0.78906-3.4782 0.65607-2.5355 0.76137-3.1039 0.62478-3.3721-0.0903-0.17745-0.74838-0.91506-1.4623-1.6391-0.9055-0.91838-1.3991-1.3164-1.6323-1.3164-0.27183 0-3.0738 0.60178-5.8881 1.2646-0.34426 0.0811-0.63163 0.0684-0.83789-0.0368-0.38834-0.19831-2.831-4.8325-2.8343-5.3773-2e-3 -0.30416 0.4075-0.76341 2.093-2.3483 1.1524-1.0836 2.2732-2.1413 2.4906-2.3506 0.485-0.46669 0.50009-0.84807 0.11274-2.8463-0.17599-0.90789-0.37732-1.5486-0.5337-1.6985-0.1381-0.13236-1.66-0.75528-3.3821-1.3843l-3.131-1.1436 0.03-1.2546c0.0506-2.1117 0.4532-4.9152 0.74975-5.2208 0.19425-0.20019 1.0665-0.41221 3.529-0.85789 1.7991-0.32557 3.3676-0.67217 3.4858-0.77017 0.26309-0.21836 1.385-2.8848 1.385-3.2918 0-0.16156-0.8966-1.4785-1.9925-2.9264-1.211-1.6001-1.9925-2.7601-1.9925-2.9576 0-0.38199 3.6948-5.0174 4.1024-5.1467 0.14474-0.046 0.54575 0.0386 0.89117 0.18788 2.6859 1.1608 5.5815 2.2948 5.8594 2.2948 0.38602 0 2.2925-1.2957 2.6024-1.7686 0.1836-0.28021 0.17781-0.70265-0.0489-3.5555-0.18452-2.3232-0.21483-3.3207-0.10733-3.532 0.11224-0.22053 0.864-0.53842 2.9962-1.2669 1.5655-0.5349 3.0333-0.95772 3.2618-0.9396 0.36637 0.029 0.63112 0.34258 2.2416 2.6547 1.0044 1.442 1.9321 2.7388 2.0616 2.882 0.34108 0.37688 2.8845 0.38572 3.2102 0.0113 0.11912-0.13697 0.87003-1.4659 1.6687-2.9531 0.79866-1.4872 1.5729-2.8275 1.7204-2.9784 0.26487-0.27081 0.29-0.26936 1.9469 0.11252 4.0145 0.92526 4.8025 1.1615 4.9659 1.4889 0.0893 0.17883 0.19968 1.6964 0.25742 3.5385 0.0556 1.774 0.16229 3.3397 0.23705 3.4794 0.1538 0.28738 1.6669 1.2127 2.2031 1.3473 0.27693 0.0695 0.99805-0.26936 3.3536-1.5759 2.2338-1.239 3.0845-1.6435 3.3281-1.5824 0.44812 0.11247 4.7675 4.6241 4.7675 4.9797 0 0.15332-0.74631 1.5321-1.6585 3.064-1.1217 1.8838-1.659 2.9234-1.6601 3.2122-3e-3 0.55322 0.98965 2.3356 1.3827 2.485 0.1668 0.0634 1.7434 0.21254 3.5034 0.33134 1.7601 0.1188 3.3124 0.26115 3.4497 0.31633 0.30163 0.12125 0.48758 0.76065 1.1874 4.0831 0.44894 2.1314 0.50133 2.5546 0.34024 2.7487-0.10473 0.12618-1.5178 0.89773-3.1402 1.7146-2.6396 1.329-2.9662 1.5322-3.1061 1.9335-0.18849 0.54073-0.20424 2.6715-0.0218 2.9598 0.0716 0.11309 1.3354 1.1058 2.8086 2.206 1.9434 1.4513 2.6914 2.0908 2.7252 2.3298 0.0686 0.48392-1.9607 5.9898-2.2683 6.1545-0.16647 0.0891-1.3397 0.0166-3.4723-0.21427-2.0669-0.22385-3.3387-0.30402-3.5498-0.22374-0.48252 0.18346-2.0709 2.4418-2.0694 2.9423 5.5e-4 0.22265 0.51301 1.7488 1.1386 3.3914 0.62555 1.6426 1.1374 3.0876 1.1374 3.2111 0 0.12348-0.17613 0.38729-0.39137 0.58622-0.57226 0.52883-4.3366 3.3295-4.6068 3.4274-0.3192 0.11571-0.72883-0.16436-3.2563-2.2262-1.2133-0.98976-2.3546-1.8385-2.5362-1.886-0.45948-0.12028-3.5516 1.0474-3.8008 1.4354-0.10353 0.16118-0.45086 1.5739-0.77183 3.1395-0.77122 3.7617-0.76174 3.7354-1.4048 3.8996-0.68158 0.17404-3.553 0.44109-4.743 0.44109-0.70919 0-0.98277-0.0593-1.148-0.24906zm4.2674-13.215c3.7253-0.65944 7.2056-2.5349 9.9438-5.3585 2.6562-2.7391 4.1834-5.616 4.9924-9.4046 0.3521-1.6489 0.34314-5.5435-0.0166-7.2098-1.5528-7.1931-6.8528-12.697-13.92-14.455-1.9673-0.48949-5.0864-0.61526-7.2052-0.29055-7.7855 1.1931-14.007 7.2909-15.459 15.153-0.28691 1.5527-0.28712 4.8248-4.2e-4 6.4638 0.44523 2.5453 1.5649 5.2544 3.0944 7.4872 1.5105 2.205 4.442 4.7399 6.923 5.9865 3.4366 1.7267 7.7135 2.3246 11.647 1.6282z"/>
</g>
<rect x="138.54" y="241.01" width="159.85" height="108.95" fill="none" opacity=".9" stroke="#000" stroke-dasharray="2.38998124, 4.77996247" stroke-dashoffset="41.326" stroke-linecap="round" stroke-linejoin="round" stroke-width="2.39" style="paint-order:normal"/>
</g>
</g>
</svg>
