<?xml version="1.0" encoding="UTF-8" standalone="no"?>
<!-- Created with Inkscape (http://www.inkscape.org/) -->

<svg
   xmlns:dc="http://purl.org/dc/elements/1.1/"
   xmlns:cc="http://creativecommons.org/ns#"
   xmlns:rdf="http://www.w3.org/1999/02/22-rdf-syntax-ns#"
   xmlns:svg="http://www.w3.org/2000/svg"
   xmlns="http://www.w3.org/2000/svg"
   xmlns:sodipodi="http://sodipodi.sourceforge.net/DTD/sodipodi-0.dtd"
   xmlns:inkscape="http://www.inkscape.org/namespaces/inkscape"
   width="162.24074mm"
   height="111.34162mm"
   viewBox="0 0 162.24074 111.34162"
   version="1.1"
   id="svg8"
   inkscape:version="0.92.4 (5da689c313, 2019-01-14)"
   sodipodi:docname="Settings.svg">
  <defs
     id="defs2" />
  <sodipodi:namedview
     id="base"
     pagecolor="#ffffff"
     bordercolor="#666666"
     borderopacity="1.0"
     inkscape:pageopacity="0.0"
     inkscape:pageshadow="2"
     inkscape:zoom="0.88"
     inkscape:cx="251.9976"
     inkscape:cy="193.09765"
     inkscape:document-units="mm"
     inkscape:current-layer="g1455"
     showgrid="false"
     inkscape:window-width="1920"
     inkscape:window-height="1017"
     inkscape:window-x="-8"
     inkscape:window-y="-8"
     inkscape:window-maximized="1" />
  <metadata
     id="metadata5">
    <rdf:RDF>
      <cc:Work
         rdf:about="">
        <dc:format>image/svg+xml</dc:format>
        <dc:type
           rdf:resource="http://purl.org/dc/dcmitype/StillImage" />
        <dc:title></dc:title>
      </cc:Work>
    </rdf:RDF>
  </metadata>
  <g
     inkscape:label="Calque 1"
     inkscape:groupmode="layer"
     id="layer1"
     transform="translate(-111.79353,-240.11796)">
    <g
       id="g1455">
      <g
         id="g1461"
         transform="translate(-25.556345,0.30066279)">
        <g
           id="g1449"
           transform="translate(-1.1100705,-2.4347213)">
          <path
             inkscape:connector-curvature="0"
             id="path826"
             d="m 191.06232,343.96019 c -0.11934,-0.13697 -0.67942,-1.64334 -1.2446,-3.34748 -1.18099,-3.56086 -0.96571,-3.30428 -3.17633,-3.78566 -2.29518,-0.49978 -1.96992,-0.64537 -4.7281,2.1164 -1.5301,1.53207 -2.52126,2.41917 -2.70249,2.41876 -0.15742,-3.6e-4 -1.42299,-0.64358 -2.81238,-1.4294 -2.39805,-1.35627 -2.52616,-1.45047 -2.52616,-1.85743 0,-0.23578 0.35507,-1.80097 0.78906,-3.47818 0.65607,-2.53545 0.76138,-3.10385 0.62479,-3.37212 -0.0903,-0.17747 -0.74839,-0.91506 -1.46227,-1.63911 -0.9055,-0.91838 -1.39909,-1.31645 -1.6323,-1.31645 -0.27181,0 -3.07382,0.60179 -5.88803,1.26458 -0.34428,0.0811 -0.63162,0.0684 -0.8379,-0.0369 -0.38836,-0.1983 -2.831,-4.83253 -2.83428,-5.37725 -0.002,-0.30416 0.4075,-0.76341 2.09297,-2.34827 1.15237,-1.08358 2.27314,-2.14134 2.49058,-2.35058 0.48499,-0.46669 0.50009,-0.84808 0.11274,-2.84628 -0.17599,-0.90789 -0.37732,-1.54862 -0.5337,-1.69846 -0.1381,-0.13236 -1.66004,-0.75528 -3.3821,-1.38428 l -3.13103,-1.14362 0.03,-1.25462 c 0.0506,-2.11174 0.45321,-4.91522 0.74975,-5.22083 0.19426,-0.20019 1.06646,-0.41221 3.52904,-0.85789 1.79906,-0.32557 3.36765,-0.67217 3.48575,-0.77017 0.26309,-0.21836 1.38498,-2.88482 1.38498,-3.2918 0,-0.16156 -0.89661,-1.47846 -1.99246,-2.92644 -1.21097,-1.60006 -1.99247,-2.7601 -1.99247,-2.95755 0,-0.38199 3.69482,-5.01738 4.10243,-5.14675 0.14473,-0.0459 0.54575,0.0387 0.89116,0.18789 2.68594,1.16078 5.58153,2.29482 5.85944,2.29482 0.38602,0 2.29254,-1.2957 2.60242,-1.76864 0.18359,-0.28021 0.17781,-0.70265 -0.0489,-3.55552 -0.18453,-2.32318 -0.21484,-3.32069 -0.10733,-3.53197 0.11222,-0.22053 0.86399,-0.53842 2.9962,-1.26692 1.56551,-0.5349 3.03333,-0.95771 3.26182,-0.9396 0.36637,0.029 0.63111,0.34258 2.24155,2.65466 1.00437,1.44196 1.93211,2.73884 2.06164,2.88197 0.34107,0.37687 2.8845,0.38572 3.21022,0.0112 0.11912,-0.13698 0.87005,-1.46588 1.66871,-2.95312 0.79866,-1.48724 1.57288,-2.82751 1.72045,-2.97841 0.26487,-0.27082 0.29,-0.26935 1.94691,0.11251 4.01448,0.92527 4.80248,1.16153 4.96591,1.4889 0.0893,0.17881 0.19969,1.69643 0.25743,3.53853 0.0556,1.77398 0.16228,3.33973 0.23704,3.47942 0.1538,0.28737 1.66691,1.21272 2.20309,1.34728 0.27694,0.0695 0.99805,-0.26935 3.35365,-1.57593 2.23377,-1.23899 3.08449,-1.64348 3.32805,-1.58234 0.44813,0.11247 4.76749,4.6241 4.76749,4.9797 0,0.15332 -0.74632,1.53212 -1.65849,3.06399 -1.12169,1.88374 -1.65901,2.92341 -1.66009,3.21217 -0.003,0.55321 0.98965,2.3356 1.38268,2.48504 0.16681,0.0634 1.74337,0.21252 3.50344,0.33133 1.76009,0.1188 3.31245,0.26115 3.44971,0.31633 0.30163,0.12124 0.48757,0.76065 1.18741,4.08308 0.44895,2.13139 0.50133,2.5546 0.34024,2.7487 -0.10473,0.12618 -1.51781,0.89772 -3.14018,1.71454 -2.63966,1.32897 -2.96622,1.53225 -3.10609,1.9335 -0.1885,0.54073 -0.20425,2.67152 -0.0218,2.95978 0.0716,0.11309 1.33543,1.10577 2.80862,2.20594 1.94334,1.4513 2.69134,2.09077 2.72523,2.32981 0.0686,0.48391 -1.96072,5.98981 -2.26833,6.15445 -0.16647,0.0891 -1.33967,0.0166 -3.47227,-0.21428 -2.06689,-0.22385 -3.33872,-0.30401 -3.54986,-0.22373 -0.48254,0.18346 -2.07089,2.44183 -2.06938,2.94234 5.2e-4,0.22263 0.513,1.74877 1.13855,3.39142 0.62553,1.64262 1.13734,3.08763 1.13734,3.21112 0,0.12349 -0.17613,0.38729 -0.39139,0.58622 -0.57223,0.52884 -4.33656,3.32949 -4.60678,3.42744 -0.31919,0.1157 -0.72884,-0.16437 -3.25633,-2.22625 -1.21329,-0.98977 -2.35457,-1.83849 -2.53622,-1.88604 -0.4595,-0.12028 -3.5516,1.04746 -3.80078,1.43538 -0.10356,0.16118 -0.45088,1.57393 -0.77185,3.13944 -0.77121,3.76173 -0.76174,3.7354 -1.40485,3.89963 -0.68158,0.17406 -3.55304,0.4411 -4.74303,0.4411 -0.70919,0 -0.98278,-0.0593 -1.14804,-0.24905 z m 4.26736,-13.21546 c 3.72535,-0.65945 7.20564,-2.53493 9.94376,-5.35856 2.65617,-2.73909 4.18338,-5.61604 4.99238,-9.40458 0.3521,-1.64886 0.34315,-5.54348 -0.0166,-7.20978 -1.55282,-7.19312 -6.85275,-12.69707 -13.91953,-14.45537 -1.9673,-0.48949 -5.08639,-0.61526 -7.20523,-0.29056 -7.78552,1.19315 -14.00652,7.29091 -15.45933,15.15303 -0.28691,1.55269 -0.28711,4.82479 -4.2e-4,6.46382 0.44524,2.54533 1.56488,5.25439 3.09444,7.48722 1.5105,2.20503 4.44199,4.73995 6.92304,5.98655 3.43662,1.72671 7.71353,2.32459 11.64746,1.62823 z"
             style="fill:#000000;stroke-width:1" />
          <path
             inkscape:connector-curvature="0"
             id="path826-0"
             d="m 246.31932,314.82797 c -0.11934,-0.13699 -0.67941,-1.64335 -1.24459,-3.34748 -1.181,-3.56087 -0.96572,-3.3043 -3.17634,-3.78567 -2.29517,-0.49978 -1.96992,-0.64538 -4.72809,2.11639 -1.53009,1.53208 -2.52126,2.41919 -2.70251,2.41877 -0.1574,-4.3e-4 -1.42296,-0.64359 -2.81237,-1.42939 -2.39803,-1.35628 -2.52615,-1.45048 -2.52615,-1.85743 0,-0.2358 0.35508,-1.80097 0.78906,-3.47818 0.65607,-2.53546 0.76137,-3.10387 0.62478,-3.37214 -0.0903,-0.17745 -0.74838,-0.91506 -1.46227,-1.6391 -0.9055,-0.91838 -1.39907,-1.31644 -1.63228,-1.31644 -0.27183,0 -3.07385,0.60178 -5.88806,1.26457 -0.34426,0.0811 -0.63163,0.0684 -0.83789,-0.0368 -0.38834,-0.19831 -2.831,-4.83254 -2.83428,-5.37726 -0.002,-0.30416 0.4075,-0.76341 2.09297,-2.34826 1.15238,-1.08359 2.27315,-2.14134 2.49059,-2.35059 0.485,-0.46669 0.50009,-0.84807 0.11274,-2.84628 -0.17599,-0.90789 -0.37732,-1.54862 -0.5337,-1.69846 -0.1381,-0.13236 -1.66005,-0.75528 -3.38212,-1.38428 l -3.13101,-1.14362 0.03,-1.25462 c 0.0506,-2.11174 0.4532,-4.91522 0.74975,-5.22083 0.19425,-0.20019 1.06646,-0.41221 3.52903,-0.85789 1.79907,-0.32557 3.36765,-0.67217 3.48576,-0.77017 0.26309,-0.21836 1.38498,-2.88482 1.38498,-3.2918 0,-0.16156 -0.8966,-1.47846 -1.99247,-2.92644 -1.21097,-1.60006 -1.99246,-2.7601 -1.99246,-2.95755 0,-0.38199 3.69483,-5.01739 4.10242,-5.14674 0.14474,-0.046 0.54575,0.0386 0.89117,0.18788 2.68594,1.16078 5.58152,2.29482 5.85944,2.29482 0.38602,0 2.29253,-1.29569 2.60241,-1.76864 0.1836,-0.28021 0.17781,-0.70265 -0.0489,-3.55551 -0.18452,-2.32319 -0.21483,-3.3207 -0.10733,-3.53198 0.11224,-0.22053 0.864,-0.53842 2.9962,-1.26692 1.56551,-0.5349 3.03333,-0.95772 3.26182,-0.9396 0.36637,0.029 0.63112,0.34258 2.24156,2.65466 1.00437,1.44196 1.9321,2.73884 2.06163,2.88197 0.34108,0.37688 2.8845,0.38572 3.21024,0.0113 0.11912,-0.13697 0.87003,-1.46588 1.6687,-2.95311 0.79866,-1.48724 1.57286,-2.82753 1.72045,-2.97842 0.26487,-0.27081 0.29,-0.26936 1.94691,0.11252 4.01447,0.92526 4.80248,1.16152 4.96591,1.48888 0.0893,0.17883 0.19968,1.69644 0.25742,3.53854 0.0556,1.77398 0.16229,3.33972 0.23705,3.47941 0.1538,0.28738 1.6669,1.21273 2.20309,1.3473 0.27693,0.0695 0.99805,-0.26936 3.35364,-1.57593 2.23378,-1.23901 3.0845,-1.64348 3.32807,-1.58235 0.44812,0.11247 4.76748,4.6241 4.76748,4.9797 0,0.15332 -0.74631,1.53212 -1.65849,3.06398 -1.1217,1.88376 -1.65901,2.92341 -1.66009,3.21217 -0.003,0.55322 0.98965,2.33562 1.38269,2.48504 0.1668,0.0634 1.74335,0.21254 3.50344,0.33134 1.76007,0.1188 3.31244,0.26115 3.4497,0.31633 0.30163,0.12125 0.48758,0.76065 1.18741,4.08309 0.44894,2.13138 0.50133,2.55458 0.34024,2.74868 -0.10473,0.12618 -1.51781,0.89773 -3.14019,1.71455 -2.63965,1.32897 -2.96621,1.53224 -3.10609,1.9335 -0.18849,0.54073 -0.20424,2.67151 -0.0218,2.95977 0.0716,0.11309 1.33542,1.10577 2.80861,2.20596 1.94335,1.45128 2.69135,2.09075 2.72522,2.32979 0.0686,0.48392 -1.9607,5.98983 -2.26832,6.15446 -0.16647,0.0891 -1.33966,0.0166 -3.47228,-0.21427 -2.06688,-0.22385 -3.3387,-0.30402 -3.54985,-0.22374 -0.48252,0.18346 -2.07088,2.44184 -2.06939,2.94233 5.5e-4,0.22265 0.51301,1.74879 1.13855,3.39142 0.62555,1.64263 1.13735,3.08764 1.13735,3.21113 0,0.12348 -0.17613,0.38729 -0.39137,0.58622 -0.57226,0.52883 -4.33658,3.3295 -4.60679,3.42743 -0.3192,0.11571 -0.72883,-0.16436 -3.25634,-2.22625 -1.21327,-0.98976 -2.35457,-1.83847 -2.53622,-1.88603 -0.45948,-0.12028 -3.55158,1.04745 -3.80079,1.43537 -0.10353,0.16118 -0.45086,1.57394 -0.77183,3.13946 -0.77122,3.76171 -0.76174,3.73541 -1.40485,3.89963 -0.68158,0.17404 -3.55303,0.44109 -4.74304,0.44109 -0.70919,0 -0.98277,-0.0593 -1.14804,-0.24906 z m 4.26737,-13.21548 c 3.72533,-0.65944 7.20564,-2.53492 9.94377,-5.35854 2.65616,-2.73909 4.18337,-5.61605 4.99237,-9.40458 0.3521,-1.64886 0.34314,-5.54348 -0.0166,-7.20979 -1.55282,-7.19312 -6.85275,-12.69707 -13.91953,-14.45537 -1.96728,-0.48949 -5.08639,-0.61526 -7.20523,-0.29055 -7.78552,1.19313 -14.00653,7.29089 -15.45933,15.15302 -0.28691,1.55269 -0.28712,4.82478 -4.2e-4,6.46382 0.44523,2.54533 1.56488,5.25438 3.09444,7.48723 1.51051,2.20501 4.44198,4.73994 6.92305,5.98653 3.4366,1.72672 7.71353,2.3246 11.64746,1.62823 z"
             style="fill:#000000;stroke-width:1" />
        </g>
        <rect
           style="opacity:0.9;fill:none;fill-opacity:1;stroke:#000000;stroke-width:2.38998127;stroke-linecap:round;stroke-linejoin:round;stroke-miterlimit:4;stroke-dasharray:2.38998124, 4.77996247;stroke-dashoffset:41.32597733;stroke-opacity:1;paint-order:normal"
           id="rect4760"
           width="159.85075"
           height="108.95164"
           x="138.54486"
           y="241.01228" />
      </g>
    </g>
  </g>
</svg>
