<?xml version="1.0" encoding="UTF-8"?>
<svg enable-background="new 0 0 512 512" version="1.1" viewBox="0 0 400 400" xml:space="preserve" xmlns="http://www.w3.org/2000/svg" xmlns:cc="http://creativecommons.org/ns#" xmlns:dc="http://purl.org/dc/elements/1.1/" xmlns:rdf="http://www.w3.org/1999/02/22-rdf-syntax-ns#"><metadata><rdf:RDF><cc:Work rdf:about=""><dc:format>image/svg+xml</dc:format><dc:type rdf:resource="http://purl.org/dc/dcmitype/StillImage"/></cc:Work></rdf:RDF></metadata>

	
		<path d="m200 7.4377c-105.77 0-192.56 86.796-192.56 192.56 0 105.77 86.796 192.56 192.56 192.56 105.77 0 192.56-86.796 192.56-192.56 0-105.77-86.796-192.56-192.56-192.56zm-119.52 277.52c-17.773-24.935-27.16-54.321-27.16-84.961 0-80.876 65.802-146.68 146.68-146.68 30.642 0 60.029 9.3874 84.961 27.16 0.51976 0.37158 0.98311 0.78754 1.4186 1.2223l-204.68 204.68c-0.43477-0.43626-0.85073-0.89961-1.2223-1.4194zm119.52 61.715c-30.642 0-60.029-9.3874-84.961-27.16-0.51976-0.37158-0.98311-0.78755-1.4186-1.2223l204.67-204.67c0.43703 0.43627 0.85374 0.90038 1.2231 1.4179 17.774 24.934 27.161 54.321 27.161 84.961 0 80.876-65.802 146.68-146.68 146.68z" fill="#d40000" stroke="#000" stroke-width="14.875"/>
	
















</svg>
