<?xml version="1.0" encoding="UTF-8"?>
<svg width="162.24mm" height="111.34mm" version="1.1" viewBox="0 0 162.24 111.34" xmlns="http://www.w3.org/2000/svg" xmlns:cc="http://creativecommons.org/ns#" xmlns:dc="http://purl.org/dc/elements/1.1/" xmlns:rdf="http://www.w3.org/1999/02/22-rdf-syntax-ns#">
<metadata>
<rdf:RDF>
<cc:Work rdf:about="">
<dc:format>image/svg+xml</dc:format>
<dc:type rdf:resource="http://purl.org/dc/dcmitype/StillImage"/>
<dc:title/>
</cc:Work>
</rdf:RDF>
</metadata>
<g transform="translate(175.31 -80.966)">
<g transform="matrix(.15019 0 0 .1469 -132.64 98.926)" stroke-width="1.7813">
<g stroke-width="1.7813">
<path d="m53.333 224c-29.397 0-53.333 23.936-53.333 53.333v170.67c0 29.397 23.936 53.333 53.333 53.333h64c12.011 0 23.061-4.053 32-10.795v-266.54z" stroke-width="1.7813"/>
</g>
</g>
<g transform="matrix(.15019 0 0 .15019 -132.64 98.189)" stroke-width="1.7617">
<g stroke-width="1.7617">
<path d="m512 304c0-12.821-5.077-24.768-13.888-33.579 9.963-10.901 15.04-25.515 13.653-40.725-2.496-27.115-26.923-48.363-55.637-48.363h-131.78c6.528-19.819 16.981-56.149 16.981-85.333 0-46.272-39.317-85.333-64-85.333-22.165 0-37.995 12.48-38.677 12.992-2.517 2.027-3.989 5.099-3.989 8.341v72.341l-61.44 133.1-2.56 1.301v228.65c17.365 8.192 39.338 12.608 53.333 12.608h195.82c23.232 0 43.563-15.659 48.341-37.269 2.453-11.115 1.024-22.315-3.861-32.043 15.765-7.936 26.368-24.171 26.368-42.688 0-7.552-1.728-14.784-5.013-21.333 15.765-7.936 26.346-24.171 26.346-42.667z" stroke-width="1.7617"/>
</g>
</g>
<rect x="-174.12" y="82.161" width="159.85" height="108.95" fill="none" opacity=".9" stroke="#000" stroke-dasharray="2.38998124, 4.77996247" stroke-dashoffset="41.326" stroke-linecap="round" stroke-linejoin="round" stroke-width="2.39" style="paint-order:normal"/>
</g>
</svg>
